<svg width="40" height="47" viewBox="0 0 40 47" fill="none" xmlns="http://www.w3.org/2000/svg">
<g id="Vector">
<path d="M10 43.3333H13.3333V46.6667H10V43.3333Z" fill="black"/>
<path d="M13.3333 43.3333H16.6667V46.6667H13.3333V43.3333Z" fill="black"/>
<path d="M16.6667 43.3333H20V46.6667H16.6667V43.3333Z" fill="black"/>
<path d="M20 43.3333H23.3333V46.6667H20V43.3333Z" fill="black"/>
<path d="M23.3333 43.3333H26.6667V46.6667H23.3333V43.3333Z" fill="black"/>
<path d="M26.6667 43.3333H30V46.6667H26.6667V43.3333Z" fill="black"/>
<path d="M6.66667 40H10V43.3333H6.66667V40Z" fill="black"/>
<path d="M6.66667 36.6667H10V40H6.66667V36.6667Z" fill="black"/>
<path d="M3.33333 33.3333H6.66667V36.6667H3.33333V33.3333Z" fill="black"/>
<path d="M30 40H33.3333V43.3333H30V40Z" fill="black"/>
<path d="M30 36.6667H33.3333V40H30V36.6667Z" fill="black"/>
<path d="M33.3333 33.3333H36.6667V36.6667H33.3333V33.3333Z" fill="black"/>
<path d="M36.6667 30H40V33.3333H36.6667V30Z" fill="black"/>
<path d="M36.6667 26.6667H40V30H36.6667V26.6667Z" fill="black"/>
<path d="M36.6667 23.3333H40V26.6667H36.6667V23.3333Z" fill="black"/>
<path d="M36.6667 20H40V23.3333H36.6667V20Z" fill="black"/>
<path d="M0 30H3.33333V33.3333H0V30Z" fill="black"/>
<path d="M0 26.6667H3.33333V30H0V26.6667Z" fill="black"/>
<path d="M0 23.3333H3.33333V26.6667H0V23.3333Z" fill="black"/>
<path d="M0 20H3.33333V23.3333H0V20Z" fill="black"/>
<path d="M3.33333 16.6667H6.66667V20H3.33333V16.6667Z" fill="black"/>
<path d="M3.33333 13.3333H6.66667V16.6667H3.33333V13.3333Z" fill="black"/>
<path d="M6.66667 10H10V13.3333H6.66667V10Z" fill="black"/>
<path d="M6.66667 6.66667H10V10H6.66667V6.66667Z" fill="black"/>
<path d="M10 3.33333H13.3333V6.66667H10V3.33333Z" fill="black"/>
<path d="M13.3333 0H16.6667V3.33333H13.3333V0Z" fill="black"/>
<path d="M16.6667 0H20V3.33333H16.6667V0Z" fill="black"/>
<path d="M20 0H23.3333V3.33333H20V0Z" fill="black"/>
<path d="M23.3333 0H26.6667V3.33333H23.3333V0Z" fill="black"/>
<path d="M33.3333 16.6667H36.6667V20H33.3333V16.6667Z" fill="black"/>
<path d="M33.3333 13.3333H36.6667V16.6667H33.3333V13.3333Z" fill="black"/>
<path d="M30 10H33.3333V13.3333H30V10Z" fill="black"/>
<path d="M30 6.66667H33.3333V10H30V6.66667Z" fill="black"/>
<path d="M26.6667 3.33333H30V6.66667H26.6667V3.33333Z" fill="black"/>
<path d="M13.3333 3.33333H16.6667V6.66667H13.3333V3.33333Z" fill="#7EC928"/>
<path d="M16.6667 3.33333H20V6.66667H16.6667V3.33333Z" fill="#7EC928"/>
<path d="M20 3.33333H23.3333V6.66667H20V3.33333Z" fill="#7EC928"/>
<path d="M23.3333 3.33333H26.6667V6.66667H23.3333V3.33333Z" fill="#7EC928"/>
<path d="M23.3333 6.66667H26.6667V10H23.3333V6.66667Z" fill="#7EC928"/>
<path d="M20 6.66667H23.3333V10H20V6.66667Z" fill="#7EC928"/>
<path d="M16.6667 6.66667H20V10H16.6667V6.66667Z" fill="#7EC928"/>
<path d="M13.3333 6.66667H16.6667V10H13.3333V6.66667Z" fill="#7EC928"/>
<path d="M10 6.66667H13.3333V10H10V6.66667Z" fill="#7EC928"/>
<path d="M10 10H13.3333V13.3333H10V10Z" fill="#7EC928"/>
<path d="M13.3333 10H16.6667V13.3333H13.3333V10Z" fill="#7EC928"/>
<path d="M16.6667 10H20V13.3333H16.6667V10Z" fill="#7EC928"/>
<path d="M20 10H23.3333V13.3333H20V10Z" fill="#7EC928"/>
<path d="M23.3333 10H26.6667V13.3333H23.3333V10Z" fill="#7EC928"/>
<path d="M26.6667 10H30V13.3333H26.6667V10Z" fill="#7EC928"/>
<path d="M26.6667 6.66667H30V10H26.6667V6.66667Z" fill="#7EC928"/>
<path d="M26.6667 13.3333H30V16.6667H26.6667V13.3333Z" fill="#7EC928"/>
<path d="M30 13.3333H33.3333V16.6667H30V13.3333Z" fill="#7EC928"/>
<path d="M30 16.6667H33.3333V20H30V16.6667Z" fill="#7EC928"/>
<path d="M26.6667 16.6667H30V20H26.6667V16.6667Z" fill="#7EC928"/>
<path d="M23.3333 16.6667H26.6667V20H23.3333V16.6667Z" fill="black"/>
<path d="M20 16.6667H23.3333V20H20V16.6667Z" fill="black"/>
<path d="M16.6667 16.6667H20V20H16.6667V16.6667Z" fill="black"/>
<path d="M13.3333 16.6667H16.6667V20H13.3333V16.6667Z" fill="black"/>
<path d="M10 16.6667H13.3333V20H10V16.6667Z" fill="#7EC928"/>
<path d="M6.66667 16.6667H10V20H6.66667V16.6667Z" fill="#7EC928"/>
<path d="M6.66667 13.3333H10V16.6667H6.66667V13.3333Z" fill="#7EC928"/>
<path d="M10 13.3333H13.3333V16.6667H10V13.3333Z" fill="#7EC928"/>
<path d="M13.3333 13.3333H16.6667V16.6667H13.3333V13.3333Z" fill="#7EC928"/>
<path d="M16.6667 13.3333H20V16.6667H16.6667V13.3333Z" fill="#7EC928"/>
<path d="M20 13.3333H23.3333V16.6667H20V13.3333Z" fill="#7EC928"/>
<path d="M23.3333 13.3333H26.6667V16.6667H23.3333V13.3333Z" fill="#7EC928"/>
<path d="M16.6667 20H20V23.3333H16.6667V20Z" fill="#633804"/>
<path d="M13.3333 20H16.6667V23.3333H13.3333V20Z" fill="#633804"/>
<path d="M10 20H13.3333V23.3333H10V20Z" fill="black"/>
<path d="M6.66667 20H10V23.3333H6.66667V20Z" fill="#7EC928"/>
<path d="M3.33333 20H6.66667V23.3333H3.33333V20Z" fill="#7EC928"/>
<path d="M3.33333 23.3333H6.66667V26.6667H3.33333V23.3333Z" fill="#7EC928"/>
<path d="M3.33333 26.6667H6.66667V30H3.33333V26.6667Z" fill="#7EC928"/>
<path d="M3.33333 30H6.66667V33.3333H3.33333V30Z" fill="#7EC928"/>
<path d="M6.66667 30H10V33.3333H6.66667V30Z" fill="#7EC928"/>
<path d="M6.66667 33.3333H10V36.6667H6.66667V33.3333Z" fill="#7EC928"/>
<path d="M6.66667 26.6667H10V30H6.66667V26.6667Z" fill="#7EC928"/>
<path d="M6.66667 23.3333H10V26.6667H6.66667V23.3333Z" fill="#7EC928"/>
<path d="M10 23.3333H13.3333V26.6667H10V23.3333Z" fill="black"/>
<path d="M13.3333 23.3333H16.6667V26.6667H13.3333V23.3333Z" fill="#633804"/>
<path d="M16.6667 23.3333H20V26.6667H16.6667V23.3333Z" fill="#633804"/>
<path d="M20 20H23.3333V23.3333H20V20Z" fill="#633804"/>
<path d="M23.3333 20H26.6667V23.3333H23.3333V20Z" fill="#633804"/>
<path d="M26.6667 20H30V23.3333H26.6667V20Z" fill="black"/>
<path d="M33.3333 20H36.6667V23.3333H33.3333V20Z" fill="#7EC928"/>
<path d="M30 20H33.3333V23.3333H30V20Z" fill="#7EC928"/>
<path d="M30 23.3333H33.3333V26.6667H30V23.3333Z" fill="#7EC928"/>
<path d="M33.3333 23.3333H36.6667V26.6667H33.3333V23.3333Z" fill="#7EC928"/>
<path d="M33.3333 26.6667H36.6667V30H33.3333V26.6667Z" fill="#7EC928"/>
<path d="M33.3333 30H36.6667V33.3333H33.3333V30Z" fill="#7EC928"/>
<path d="M30 30H33.3333V33.3333H30V30Z" fill="#7EC928"/>
<path d="M30 26.6667H33.3333V30H30V26.6667Z" fill="#7EC928"/>
<path d="M26.6667 26.6667H30V30H26.6667V26.6667Z" fill="black"/>
<path d="M26.6667 23.3333H30V26.6667H26.6667V23.3333Z" fill="black"/>
<path d="M23.3333 23.3333H26.6667V26.6667H23.3333V23.3333Z" fill="#633804"/>
<path d="M20 23.3333H23.3333V26.6667H20V23.3333Z" fill="#633804"/>
<path d="M20 26.6667H23.3333V30H20V26.6667Z" fill="#633804"/>
<path d="M16.6667 26.6667H20V30H16.6667V26.6667Z" fill="#633804"/>
<path d="M13.3333 26.6667H16.6667V30H13.3333V26.6667Z" fill="#633804"/>
<path d="M10 26.6667H13.3333V30H10V26.6667Z" fill="black"/>
<path d="M23.3333 26.6667H26.6667V30H23.3333V26.6667Z" fill="#633804"/>
<path d="M26.6667 30H30V33.3333H26.6667V30Z" fill="black"/>
<path d="M30 33.3333H33.3333V36.6667H30V33.3333Z" fill="#7EC928"/>
<path d="M26.6667 33.3333H30V36.6667H26.6667V33.3333Z" fill="#7EC928"/>
<path d="M23.3333 33.3333H26.6667V36.6667H23.3333V33.3333Z" fill="black"/>
<path d="M20 33.3333H23.3333V36.6667H20V33.3333Z" fill="black"/>
<path d="M16.6667 33.3333H20V36.6667H16.6667V33.3333Z" fill="black"/>
<path d="M13.3333 33.3333H16.6667V36.6667H13.3333V33.3333Z" fill="black"/>
<path d="M10 30H13.3333V33.3333H10V30Z" fill="black"/>
<path d="M13.3333 30H16.6667V33.3333H13.3333V30Z" fill="#633804"/>
<path d="M16.6667 30H20V33.3333H16.6667V30Z" fill="#633804"/>
<path d="M20 30H23.3333V33.3333H20V30Z" fill="#633804"/>
<path d="M23.3333 30H26.6667V33.3333H23.3333V30Z" fill="#633804"/>
<path d="M10 33.3333H13.3333V36.6667H10V33.3333Z" fill="#7EC928"/>
<path d="M10 36.6667H13.3333V40H10V36.6667Z" fill="#7EC928"/>
<path d="M10 40H13.3333V43.3333H10V40Z" fill="#7EC928"/>
<path d="M13.3333 40H16.6667V43.3333H13.3333V40Z" fill="#7EC928"/>
<path d="M16.6667 40H20V43.3333H16.6667V40Z" fill="#7EC928"/>
<path d="M20 40H23.3333V43.3333H20V40Z" fill="#7EC928"/>
<path d="M23.3333 40H26.6667V43.3333H23.3333V40Z" fill="#7EC928"/>
<path d="M26.6667 40H30V43.3333H26.6667V40Z" fill="#7EC928"/>
<path d="M26.6667 36.6667H30V40H26.6667V36.6667Z" fill="#7EC928"/>
<path d="M23.3333 36.6667H26.6667V40H23.3333V36.6667Z" fill="#7EC928"/>
<path d="M20 36.6667H23.3333V40H20V36.6667Z" fill="#7EC928"/>
<path d="M16.6667 36.6667H20V40H16.6667V36.6667Z" fill="#7EC928"/>
<path d="M13.3333 36.6667H16.6667V40H13.3333V36.6667Z" fill="#7EC928"/>
<path d="M3.33333 36.6667H6.66667V40H3.33333V36.6667Z" fill="black"/>
<path d="M33.3333 36.6667H36.6667V40H33.3333V36.6667Z" fill="black"/>
</g>
</svg>
