<svg width="186" height="82" viewBox="0 0 186 82" fill="none" xmlns="http://www.w3.org/2000/svg">
<rect y="81.5043" width="14" height="186" transform="rotate(-90 0 81.5043)" fill="#B63B3B"/>
<rect y="81.5043" width="14" height="186" transform="rotate(-90 0 81.5043)" fill="#B63B3B"/>
<rect x="72" y="14.5043" width="14" height="100" transform="rotate(-90 72 14.5043)" fill="#B63B3B"/>
<rect x="72" y="14.5043" width="14" height="100" transform="rotate(-90 72 14.5043)" fill="#B63B3B"/>
<rect x="55" y="68.5043" width="54" height="131" transform="rotate(-90 55 68.5043)" fill="#B63B3B"/>
<rect x="55" y="68.5043" width="54" height="131" transform="rotate(-90 55 68.5043)" fill="#B63B3B"/>
<rect x="62" y="67.5043" width="26" height="14" transform="rotate(-90 62 67.5043)" fill="#FFFBFB"/>
<rect x="173" y="69" width="54" height="13" transform="rotate(-90 173 69)" fill="#B63B3B"/>
<rect x="173" y="69" width="54" height="13" transform="rotate(-90 173 69)" fill="#B22222"/>
</svg>
