<svg width="120" height="110" viewBox="0 0 120 110" fill="none" xmlns="http://www.w3.org/2000/svg">
<path d="M30 100.004H40V110.004H30V100.004Z" fill="black"/>
<path d="M40 100.004H50V110.004H40V100.004Z" fill="black"/>
<path d="M50 100.004H60V110.004H50V100.004Z" fill="black"/>
<path d="M60 100.004H70V110.004H60V100.004Z" fill="black"/>
<path d="M10 90.0044H20V100.004H10V90.0044Z" fill="black"/>
<path d="M10 80.0044H20V90.0044H10V80.0044Z" fill="black"/>
<path d="M10 70.0044H20V80.0044H10V70.0044Z" fill="black"/>
<path d="M10 60.0044H20V70.0044H10V60.0044Z" fill="black"/>
<path d="M80 90.0044H90V100.004H80V90.0044Z" fill="black"/>
<path d="M80 80.0044H90V90.0044H80V80.0044Z" fill="black"/>
<path d="M80 70.0044H90V80.0044H80V70.0044Z" fill="black"/>
<path d="M80 60.0044H90V70.0044H80V60.0044Z" fill="black"/>
<path d="M10 50.0044H20V60.0044H10V50.0044Z" fill="black"/>
<path d="M10 40.0044H20V50.0044H10V40.0044Z" fill="black"/>
<path d="M10 30.0044H20V40.0044H10V30.0044Z" fill="black"/>
<path d="M10 20.0044H20V30.0044H10V20.0044Z" fill="black"/>
<path d="M80 50.0044H90V60.0044H80V50.0044Z" fill="black"/>
<path d="M80 40.0044H90V50.0044H80V40.0044Z" fill="black"/>
<path d="M80 30.0044H90V40.0044H80V30.0044Z" fill="black"/>
<path d="M80 20.0044H90V30.0044H80V20.0044Z" fill="black"/>
<path d="M0 10.0044H10V20.0044H0V10.0044Z" fill="black"/>
<path d="M0 0.00439453H10V10.0044H0V0.00439453Z" fill="black"/>
<path d="M10 0.00439453H20V10.0044H10V0.00439453Z" fill="black"/>
<path d="M20 0.00439453H30V10.0044H20V0.00439453Z" fill="black"/>
<path d="M30 0.00439453H40V10.0044H30V0.00439453Z" fill="black"/>
<path d="M40 0.00439453H50V10.0044H40V0.00439453Z" fill="black"/>
<path d="M50 0.00439453H60V10.0044H50V0.00439453Z" fill="black"/>
<path d="M60 0.00439453H70V10.0044H60V0.00439453Z" fill="black"/>
<path d="M70 0.00439453H80V10.0044H70V0.00439453Z" fill="black"/>
<path d="M80 0.00439453H90V10.0044H80V0.00439453Z" fill="black"/>
<path d="M90 0.00439453H100V10.0044H90V0.00439453Z" fill="black"/>
<path d="M90 10.0044H100V20.0044H90V10.0044Z" fill="black"/>
<path d="M70 30.0044H80V40.0044H70V30.0044Z" fill="#FEC200"/>
<path d="M60 30.0044H70V40.0044H60V30.0044Z" fill="#FEC200"/>
<path d="M50 30.0044H60V40.0044H50V30.0044Z" fill="#E4AE00"/>
<path d="M40 30.0044H50V40.0044H40V30.0044Z" fill="#FEC200"/>
<path d="M30 30.0044H40V40.0044H30V30.0044Z" fill="#FEC200"/>
<path d="M20 30.0044H30V40.0044H20V30.0044Z" fill="#FEC200"/>
<path d="M20 40.0044H30V50.0044H20V40.0044Z" fill="#FEC200"/>
<path d="M20 50.0044H30V100.004H20V50.0044Z" fill="#FEC200"/>
<path d="M30 50.0044H40V60.0044H30V50.0044Z" fill="#FEC200"/>
<path d="M40 50.0044H50V60.0044H40V50.0044Z" fill="#FEC200"/>
<path d="M50 50.0044H60V60.0044H50V50.0044Z" fill="#FEC200"/>
<path d="M60 60.0044H70V70.0044H60V60.0044Z" fill="#FEC200"/>
<path d="M70 50.0044H80V60.0044H70V50.0044Z" fill="#FEC200"/>
<path d="M70 60.0044H80V100.004H70V60.0044Z" fill="#FEC200"/>
<path d="M60 50.0044H70V60.0044H60V50.0044Z" fill="#E4AE00"/>
<path d="M60 40.0044H70V50.0044H60V40.0044Z" fill="#FEC200"/>
<path d="M70 40.0044H80V50.0044H70V40.0044Z" fill="#FEC200"/>
<path d="M50 40.0044H60V50.0044H50V40.0044Z" fill="#FEC200"/>
<path d="M40 40.0044H50V50.0044H40V40.0044Z" fill="#FEC200"/>
<path d="M30 40.0044H40V50.0044H30V40.0044Z" fill="#E4AE00"/>
<path d="M30 60.0044H40V70.0044H30V60.0044Z" fill="#FEC200"/>
<path d="M30 70.0044H40V80.0044H30V70.0044Z" fill="#FEC200"/>
<path d="M30 80.0044H40V90.0044H30V80.0044Z" fill="#E4AE00"/>
<path d="M30 90.0044H40V100.004H30V90.0044Z" fill="#FEC200"/>
<path d="M40 90.0044H50V100.004H40V90.0044Z" fill="#FEC200"/>
<path d="M50 90.0044H60V100.004H50V90.0044Z" fill="#E4AE00"/>
<path d="M60 90.0044H70V100.004H60V90.0044Z" fill="#FEC200"/>
<path d="M60 80.0044H70V90.0044H60V80.0044Z" fill="#FEC200"/>
<path d="M60 70.0044H70V80.0044H60V70.0044Z" fill="#E4AE00"/>
<path d="M50 70.0044H60V80.0044H50V70.0044Z" fill="#FEC200"/>
<path d="M40 70.0044H50V80.0044H40V70.0044Z" fill="#FEC200"/>
<path d="M40 60.0044H50V70.0044H40V60.0044Z" fill="#E4AE00"/>
<path d="M50 60.0044H60V70.0044H50V60.0044Z" fill="#FEC200"/>
<path d="M50 80.0044H60V90.0044H50V80.0044Z" fill="#FEC200"/>
<path d="M40 80.0044H50V90.0044H40V80.0044Z" fill="#FEC200"/>
<path d="M10 10.0044H20V20.0044H10V10.0044Z" fill="#A5E1FF"/>
<path d="M20 10.0044H30V20.0044H20V10.0044Z" fill="#A5E1FF"/>
<path d="M30 10.0044H40V20.0044H30V10.0044Z" fill="#A5E1FF"/>
<path d="M40 10.0044H50V20.0044H40V10.0044Z" fill="#A5E1FF"/>
<path d="M50 10.0044H60V20.0044H50V10.0044Z" fill="#A5E1FF"/>
<path d="M60 10.0044H70V20.0044H60V10.0044Z" fill="#A5E1FF"/>
<path d="M70 10.0044H80V20.0044H70V10.0044Z" fill="#A5E1FF"/>
<path d="M80 10.0044H90V20.0044H80V10.0044Z" fill="#A5E1FF"/>
<path d="M70 20.0044H80V30.0044H70V20.0044Z" fill="#A5E1FF"/>
<path d="M60 20.0044H70V30.0044H60V20.0044Z" fill="#A5E1FF"/>
<path d="M50 20.0044H60V30.0044H50V20.0044Z" fill="#A5E1FF"/>
<path d="M40 20.0044H50V30.0044H40V20.0044Z" fill="#A5E1FF"/>
<path d="M30 20.0044H40V30.0044H30V20.0044Z" fill="#A5E1FF"/>
<path d="M20 20.0044H30V30.0044H20V20.0044Z" fill="#A5E1FF"/>
<path d="M90 30.0044H110V40.0044H90V30.0044Z" fill="black"/>
<path d="M90 80.0044H110V90.0044H90V80.0044Z" fill="black"/>
<path d="M20 100.004H30V110.004H20V100.004Z" fill="black"/>
<path d="M70 100.004H80V110.004H70V100.004Z" fill="black"/>
<path d="M110 80.0044V40.0044H120V80.0044H110Z" fill="black"/>
</svg>
