<svg width="100" height="100" viewBox="0 0 100 100" fill="none" xmlns="http://www.w3.org/2000/svg">
<path d="M28.5714 0H35.7143V7.14286H28.5714V0Z" fill="black"/>
<path d="M35.7143 0H42.8571V7.14286H35.7143V0Z" fill="black"/>
<path d="M42.8571 0H50V7.14286H42.8571V0Z" fill="black"/>
<path d="M50 0H57.1429V7.14286H50V0Z" fill="black"/>
<path d="M57.1429 0H64.2857V7.14286H57.1429V0Z" fill="black"/>
<path d="M64.2857 0H71.4286V7.14286H64.2857V0Z" fill="black"/>
<path d="M21.4286 7.14286H28.5714V14.2857H21.4286V7.14286Z" fill="black"/>
<path d="M14.2857 7.14286H21.4286V14.2857H14.2857V7.14286Z" fill="black"/>
<path d="M71.4286 7.14286H78.5714V14.2857H71.4286V7.14286Z" fill="black"/>
<path d="M78.5714 7.14286H85.7143V14.2857H78.5714V7.14286Z" fill="black"/>
<path d="M7.14286 14.2857H14.2857V21.4286H7.14286V14.2857Z" fill="black"/>
<path d="M85.7143 14.2857H92.8571V21.4286H85.7143V14.2857Z" fill="black"/>
<path d="M0 21.4286H7.14286V28.5714H0V21.4286Z" fill="black"/>
<path d="M0 28.5714H7.14286V35.7143H0V28.5714Z" fill="black"/>
<path d="M92.8571 21.4286H100V28.5714H92.8571V21.4286Z" fill="black"/>
<path d="M92.8571 28.5714H100V35.7143H92.8571V28.5714Z" fill="black"/>
<path d="M7.14286 92.8571H14.2857V100H7.14286V92.8571Z" fill="black"/>
<path d="M14.2857 92.8571H21.4286V100H14.2857V92.8571Z" fill="black"/>
<path d="M21.4286 92.8571H28.5714V100H21.4286V92.8571Z" fill="black"/>
<path d="M28.5714 92.8571H35.7143V100H28.5714V92.8571Z" fill="black"/>
<path d="M35.7143 92.8571H42.8571V100H35.7143V92.8571Z" fill="black"/>
<path d="M42.8571 92.8571H50V100H42.8571V92.8571Z" fill="black"/>
<path d="M50 92.8571H57.1429V100H50V92.8571Z" fill="black"/>
<path d="M57.1429 92.8571H64.2857V100H57.1429V92.8571Z" fill="black"/>
<path d="M64.2857 92.8571H71.4286V100H64.2857V92.8571Z" fill="black"/>
<path d="M71.4286 92.8571H78.5714V100H71.4286V92.8571Z" fill="black"/>
<path d="M78.5714 92.8571H85.7143V100H78.5714V92.8571Z" fill="black"/>
<path d="M85.7143 92.8571H92.8571V100H85.7143V92.8571Z" fill="black"/>
<path d="M92.8571 85.7143H100V92.8571H92.8571V85.7143Z" fill="black"/>
<path d="M92.8571 78.5714H100V85.7143H92.8571V78.5714Z" fill="black"/>
<path d="M0 85.7143H7.14286V92.8571H0V85.7143Z" fill="black"/>
<path d="M0 78.5714H7.14286V85.7143H0V78.5714Z" fill="black"/>
<path d="M0 71.4286H7.14286V78.5714H0V71.4286Z" fill="black"/>
<path d="M7.14286 71.4286H14.2857V78.5714H7.14286V71.4286Z" fill="black"/>
<path d="M14.2857 71.4286H21.4286V78.5714H14.2857V71.4286Z" fill="black"/>
<path d="M21.4286 71.4286H28.5714V78.5714H21.4286V71.4286Z" fill="black"/>
<path d="M28.5714 71.4286H35.7143V78.5714H28.5714V71.4286Z" fill="black"/>
<path d="M35.7143 71.4286H42.8571V78.5714H35.7143V71.4286Z" fill="black"/>
<path d="M42.8571 71.4286H50V78.5714H42.8571V71.4286Z" fill="black"/>
<path d="M50 71.4286H57.1429V78.5714H50V71.4286Z" fill="black"/>
<path d="M57.1429 71.4286H64.2857V78.5714H57.1429V71.4286Z" fill="black"/>
<path d="M64.2857 71.4286H71.4286V78.5714H64.2857V71.4286Z" fill="black"/>
<path d="M71.4286 71.4286H78.5714V78.5714H71.4286V71.4286Z" fill="black"/>
<path d="M78.5714 71.4286H85.7143V78.5714H78.5714V71.4286Z" fill="black"/>
<path d="M85.7143 71.4286H92.8571V78.5714H85.7143V71.4286Z" fill="black"/>
<path d="M92.8571 71.4286H100V78.5714H92.8571V71.4286Z" fill="black"/>
<path d="M7.14286 21.4286H14.2857V28.5714H7.14286V21.4286Z" fill="#FEC200"/>
<path d="M14.2857 21.4286H21.4286V28.5714H14.2857V21.4286Z" fill="#FEC200"/>
<path d="M21.4286 21.4286H28.5714V28.5714H21.4286V21.4286Z" fill="#B17C25"/>
<path d="M28.5714 21.4286H35.7143V28.5714H28.5714V21.4286Z" fill="#FEC200"/>
<path d="M35.7143 21.4286H42.8571V28.5714H35.7143V21.4286Z" fill="#FEC200"/>
<path d="M42.8571 21.4286H50V28.5714H42.8571V21.4286Z" fill="#FEC200"/>
<path d="M50 21.4286H57.1429V28.5714H50V21.4286Z" fill="#B17C25"/>
<path d="M57.1429 21.4286H64.2857V28.5714H57.1429V21.4286Z" fill="#FEC200"/>
<path d="M64.2857 21.4286H71.4286V28.5714H64.2857V21.4286Z" fill="#FEC200"/>
<path d="M71.4286 21.4286H78.5714V28.5714H71.4286V21.4286Z" fill="#FEC200"/>
<path d="M78.5714 21.4286H85.7143V28.5714H78.5714V21.4286Z" fill="#B17C25"/>
<path d="M85.7143 21.4286H92.8571V28.5714H85.7143V21.4286Z" fill="#FEC200"/>
<path d="M14.2857 14.2857H21.4286V21.4286H14.2857V14.2857Z" fill="#FEC200"/>
<path d="M21.4286 14.2857H28.5714V21.4286H21.4286V14.2857Z" fill="#FEC200"/>
<path d="M28.5714 7.14286H35.7143V14.2857H28.5714V7.14286Z" fill="#FEC200"/>
<path d="M28.5714 14.2857H35.7143V21.4286H28.5714V14.2857Z" fill="#FEC200"/>
<path d="M35.7143 14.2857H42.8571V21.4286H35.7143V14.2857Z" fill="#B17C25"/>
<path d="M35.7143 7.14286H42.8571V14.2857H35.7143V7.14286Z" fill="#FEC200"/>
<path d="M42.8571 7.14286H50V14.2857H42.8571V7.14286Z" fill="#FEC200"/>
<path d="M50 7.14286H57.1429V14.2857H50V7.14286Z" fill="#FEC200"/>
<path d="M50 14.2857H57.1429V21.4286H50V14.2857Z" fill="#FEC200"/>
<path d="M42.8571 14.2857H50V21.4286H42.8571V14.2857Z" fill="#FEC200"/>
<path d="M57.1429 14.2857H64.2857V21.4286H57.1429V14.2857Z" fill="#FEC200"/>
<path d="M57.1429 7.14286H64.2857V14.2857H57.1429V7.14286Z" fill="#FEC200"/>
<path d="M64.2857 7.14286H71.4286V14.2857H64.2857V7.14286Z" fill="#FEC200"/>
<path d="M64.2857 14.2857H71.4286V21.4286H64.2857V14.2857Z" fill="#B17C25"/>
<path d="M71.4286 14.2857H78.5714V21.4286H71.4286V14.2857Z" fill="#FEC200"/>
<path d="M78.5714 14.2857H85.7143V21.4286H78.5714V14.2857Z" fill="#FEC200"/>
<path d="M7.14286 78.5714H14.2857V85.7143H7.14286V78.5714Z" fill="#FEC200"/>
<path d="M7.14286 85.7143H14.2857V92.8571H7.14286V85.7143Z" fill="#FEC200"/>
<path d="M14.2857 85.7143H21.4286V92.8571H14.2857V85.7143Z" fill="#FEC200"/>
<path d="M21.4286 85.7143H28.5714V92.8571H21.4286V85.7143Z" fill="#FEC200"/>
<path d="M28.5714 78.5714H35.7143V85.7143H28.5714V78.5714Z" fill="#FEC200"/>
<path d="M35.7143 78.5714H42.8571V85.7143H35.7143V78.5714Z" fill="#FEC200"/>
<path d="M42.8571 78.5714H50V85.7143H42.8571V78.5714Z" fill="#FEC200"/>
<path d="M50 78.5714H57.1429V85.7143H50V78.5714Z" fill="#FEC200"/>
<path d="M57.1429 78.5714H64.2857V85.7143H57.1429V78.5714Z" fill="#FEC200"/>
<path d="M64.2857 78.5714H71.4286V85.7143H64.2857V78.5714Z" fill="#FEC200"/>
<path d="M21.4286 78.5714H28.5714V85.7143H21.4286V78.5714Z" fill="#FEC200"/>
<path d="M14.2857 78.5714H21.4286V85.7143H14.2857V78.5714Z" fill="#FEC200"/>
<path d="M28.5714 85.7143H35.7143V92.8571H28.5714V85.7143Z" fill="#FEC200"/>
<path d="M35.7143 85.7143H42.8571V92.8571H35.7143V85.7143Z" fill="#FEC200"/>
<path d="M42.8571 85.7143H50V92.8571H42.8571V85.7143Z" fill="#FEC200"/>
<path d="M50 85.7143H57.1429V92.8571H50V85.7143Z" fill="#FEC200"/>
<path d="M57.1429 85.7143H64.2857V92.8571H57.1429V85.7143Z" fill="#FEC200"/>
<path d="M64.2857 85.7143H71.4286V92.8571H64.2857V85.7143Z" fill="#FEC200"/>
<path d="M71.4286 85.7143H78.5714V92.8571H71.4286V85.7143Z" fill="#FEC200"/>
<path d="M78.5714 85.7143H85.7143V92.8571H78.5714V85.7143Z" fill="#FEC200"/>
<path d="M85.7143 85.7143H92.8571V92.8571H85.7143V85.7143Z" fill="#FEC200"/>
<path d="M85.7143 78.5714H92.8571V85.7143H85.7143V78.5714Z" fill="#FEC200"/>
<path d="M78.5714 78.5714H85.7143V85.7143H78.5714V78.5714Z" fill="#FEC200"/>
<path d="M71.4286 78.5714H78.5714V85.7143H71.4286V78.5714Z" fill="#FEC200"/>
<path d="M0 42.8571H7.14286V50H0V42.8571Z" fill="black"/>
<path d="M7.14286 64.2857H14.2857V71.4286H7.14286V64.2857Z" fill="#FF8B00"/>
<path d="M14.2857 64.2857H21.4286V71.4286H14.2857V64.2857Z" fill="#FF8B00"/>
<path d="M21.4286 64.2857H28.5714V71.4286H21.4286V64.2857Z" fill="#FF8B00"/>
<path d="M28.5714 64.2857H35.7143V71.4286H28.5714V64.2857Z" fill="#FF8B00"/>
<path d="M35.7143 64.2857H42.8571V71.4286H35.7143V64.2857Z" fill="#FF8B00"/>
<path d="M42.8571 64.2857H50V71.4286H42.8571V64.2857Z" fill="#FF8B00"/>
<path d="M50 64.2857H57.1429V71.4286H50V64.2857Z" fill="#FF8B00"/>
<path d="M57.1429 64.2857H64.2857V71.4286H57.1429V64.2857Z" fill="#FF8B00"/>
<path d="M64.2857 64.2857H71.4286V71.4286H64.2857V64.2857Z" fill="#FF8B00"/>
<path d="M71.4286 64.2857H78.5714V71.4286H71.4286V64.2857Z" fill="#FF8B00"/>
<path d="M78.5714 64.2857H85.7143V71.4286H78.5714V64.2857Z" fill="#FF8B00"/>
<path d="M85.7143 64.2857H92.8571V71.4286H85.7143V64.2857Z" fill="#FF8B00"/>
<path d="M7.14286 28.5714H14.2857V35.7143H7.14286V28.5714Z" fill="#B17C25"/>
<path d="M14.2857 28.5714H21.4286V35.7143H14.2857V28.5714Z" fill="#FEC200"/>
<path d="M21.4286 28.5714H28.5714V35.7143H21.4286V28.5714Z" fill="#FEC200"/>
<path d="M28.5714 28.5714H35.7143V35.7143H28.5714V28.5714Z" fill="#FEC200"/>
<path d="M35.7143 28.5714H42.8571V35.7143H35.7143V28.5714Z" fill="#B17C25"/>
<path d="M42.8571 28.5714H50V35.7143H42.8571V28.5714Z" fill="#FEC200"/>
<path d="M50 28.5714H57.1429V35.7143H50V28.5714Z" fill="#FEC200"/>
<path d="M57.1429 28.5714H64.2857V35.7143H57.1429V28.5714Z" fill="#FEC200"/>
<path d="M64.2857 28.5714H71.4286V35.7143H64.2857V28.5714Z" fill="#B17C25"/>
<path d="M71.4286 28.5714H78.5714V35.7143H71.4286V28.5714Z" fill="#FEC200"/>
<path d="M78.5714 28.5714H85.7143V35.7143H78.5714V28.5714Z" fill="#FEC200"/>
<path d="M85.7143 28.5714H92.8571V35.7143H85.7143V28.5714Z" fill="#FEC200"/>
<path d="M7.14286 35.7143H14.2857V42.8571H7.14286V35.7143Z" fill="black"/>
<path d="M14.2857 35.7143H21.4286V42.8571H14.2857V35.7143Z" fill="black"/>
<path d="M21.4286 35.7143H28.5714V42.8571H21.4286V35.7143Z" fill="black"/>
<path d="M28.5714 35.7143H35.7143V42.8571H28.5714V35.7143Z" fill="black"/>
<path d="M35.7143 35.7143H42.8571V42.8571H35.7143V35.7143Z" fill="black"/>
<path d="M42.8571 35.7143H50V42.8571H42.8571V35.7143Z" fill="black"/>
<path d="M50 35.7143H57.1429V42.8571H50V35.7143Z" fill="black"/>
<path d="M57.1429 35.7143H64.2857V42.8571H57.1429V35.7143Z" fill="black"/>
<path d="M64.2857 35.7143H71.4286V42.8571H64.2857V35.7143Z" fill="black"/>
<path d="M71.4286 35.7143H78.5714V42.8571H71.4286V35.7143Z" fill="black"/>
<path d="M78.5714 35.7143H85.7143V42.8571H78.5714V35.7143Z" fill="black"/>
<path d="M85.7143 35.7143H92.8571V42.8571H85.7143V35.7143Z" fill="black"/>
<path d="M7.14286 42.8571H14.2857V50H7.14286V42.8571Z" fill="#0BD30B"/>
<path d="M14.2857 42.8571H21.4286V50H14.2857V42.8571Z" fill="#0BD30B"/>
<path d="M21.4286 42.8571H28.5714V50H21.4286V42.8571Z" fill="#0BD30B"/>
<path d="M28.5714 42.8571H35.7143V50H28.5714V42.8571Z" fill="#0BD30B"/>
<path d="M35.7143 42.8571H42.8571V50H35.7143V42.8571Z" fill="#0BD30B"/>
<path d="M42.8571 42.8571H50V50H42.8571V42.8571Z" fill="#0BD30B"/>
<path d="M50 42.8571H57.1429V50H50V42.8571Z" fill="#0BD30B"/>
<path d="M57.1429 42.8571H64.2857V50H57.1429V42.8571Z" fill="#0BD30B"/>
<path d="M64.2857 42.8571H71.4286V50H64.2857V42.8571Z" fill="#0BD30B"/>
<path d="M71.4286 42.8571H78.5714V50H71.4286V42.8571Z" fill="#0BD30B"/>
<path d="M78.5714 42.8571H85.7143V50H78.5714V42.8571Z" fill="#0BD30B"/>
<path d="M85.7143 42.8571H92.8571V50H85.7143V42.8571Z" fill="#0BD30B"/>
<path d="M14.2857 50H21.4286V57.1429H14.2857V50Z" fill="#0BD30B"/>
<path d="M21.4286 50H28.5714V57.1429H21.4286V50Z" fill="#0BD30B"/>
<path d="M42.8571 50H50V57.1429H42.8571V50Z" fill="#0BD30B"/>
<path d="M50 50H57.1429V57.1429H50V50Z" fill="#0BD30B"/>
<path d="M71.4286 50H78.5714V57.1429H71.4286V50Z" fill="#0BD30B"/>
<path d="M78.5714 50H85.7143V57.1429H78.5714V50Z" fill="#0BD30B"/>
<path d="M28.5714 57.1429H35.7143V64.2857H28.5714V57.1429Z" fill="#FE0002"/>
<path d="M35.7143 57.1429H42.8571V64.2857H35.7143V57.1429Z" fill="#FE0002"/>
<path d="M57.1429 57.1429H64.2857V64.2857H57.1429V57.1429Z" fill="#FE0002"/>
<path d="M64.2857 57.1429H71.4286V64.2857H64.2857V57.1429Z" fill="#FE0002"/>
<path d="M21.4286 57.1429H28.5714V64.2857H21.4286V57.1429Z" fill="black"/>
<path d="M14.2857 57.1429H21.4286V64.2857H14.2857V57.1429Z" fill="black"/>
<path d="M7.14286 57.1429H14.2857V64.2857H7.14286V57.1429Z" fill="black"/>
<path d="M7.14286 50H14.2857V57.1429H7.14286V50Z" fill="black"/>
<path d="M28.5714 50H35.7143V57.1429H28.5714V50Z" fill="black"/>
<path d="M35.7143 50H42.8571V57.1429H35.7143V50Z" fill="black"/>
<path d="M42.8571 57.1429H50V64.2857H42.8571V57.1429Z" fill="black"/>
<path d="M50 57.1429H57.1429V64.2857H50V57.1429Z" fill="black"/>
<path d="M57.1429 50H64.2857V57.1429H57.1429V50Z" fill="black"/>
<path d="M64.2857 50H71.4286V57.1429H64.2857V50Z" fill="black"/>
<path d="M71.4286 57.1429H78.5714V64.2857H71.4286V57.1429Z" fill="black"/>
<path d="M78.5714 57.1429H85.7143V64.2857H78.5714V57.1429Z" fill="black"/>
<path d="M85.7143 57.1429H92.8571V64.2857H85.7143V57.1429Z" fill="black"/>
<path d="M85.7143 50H92.8571V57.1429H85.7143V50Z" fill="black"/>
<path d="M92.8571 64.2857H100V71.4286H92.8571V64.2857Z" fill="black"/>
<path d="M0 64.2857H7.14286V71.4286H0V64.2857Z" fill="black"/>
<path d="M92.8571 42.8571H100V50H92.8571V42.8571Z" fill="black"/>
</svg>
