<svg width="100" height="100" viewBox="0 0 100 100" fill="none" xmlns="http://www.w3.org/2000/svg">
<path d="M0 35.7186H7.14286V42.8614H0V35.7186Z" fill="black"/>
<path d="M0 42.8614H7.14286V50.0043H0V42.8614Z" fill="black"/>
<path d="M0 50.0043H7.14286V57.1471H0V50.0043Z" fill="black"/>
<path d="M0 57.1471H7.14286V64.29H0V57.1471Z" fill="black"/>
<path d="M92.8571 35.7186H100V42.8614H92.8571V35.7186Z" fill="black"/>
<path d="M92.8571 42.8614H100V50.0043H92.8571V42.8614Z" fill="black"/>
<path d="M92.8571 50.0043H100V57.1471H92.8571V50.0043Z" fill="black"/>
<path d="M92.8571 57.1471H100V64.29H92.8571V57.1471Z" fill="black"/>
<path d="M7.14286 28.5757H14.2857V35.7186H7.14286V28.5757Z" fill="black"/>
<path d="M14.2857 21.4328H21.4286V28.5757H14.2857V21.4328Z" fill="#FF8B00"/>
<path d="M14.2857 14.29H21.4286V21.4328H14.2857V14.29Z" fill="black"/>
<path d="M21.4286 7.14713H28.5714V14.29H21.4286V7.14713Z" fill="black"/>
<path d="M71.4286 7.14713H78.5714V14.29H71.4286V7.14713Z" fill="black"/>
<path d="M78.5714 14.29H85.7143V21.4328H78.5714V14.29Z" fill="black"/>
<path d="M78.5714 21.4328H85.7143V28.5757H78.5714V21.4328Z" fill="black"/>
<path d="M85.7143 28.5757H92.8571V35.7186H85.7143V28.5757Z" fill="black"/>
<path d="M85.7143 64.29H92.8571V71.4328H85.7143V64.29Z" fill="black"/>
<path d="M78.5714 71.4328H85.7143V78.5757H78.5714V71.4328Z" fill="#CF6908"/>
<path d="M78.5714 78.5757H85.7143V85.7186H78.5714V78.5757Z" fill="black"/>
<path d="M71.4286 85.7186H78.5714V92.8614H71.4286V85.7186Z" fill="black"/>
<path d="M21.4286 85.7186H28.5714V92.8614H21.4286V85.7186Z" fill="black"/>
<path d="M7.14286 64.29H14.2857V71.4328H7.14286V64.29Z" fill="black"/>
<path d="M14.2857 71.4328H21.4286V78.5757H14.2857V71.4328Z" fill="#CF6908"/>
<path d="M14.2857 78.5757H21.4286V85.7186H14.2857V78.5757Z" fill="black"/>
<path d="M21.4286 78.5757H28.5714V85.7186H21.4286V78.5757Z" fill="black"/>
<path d="M71.4286 78.5757H78.5714V85.7186H71.4286V78.5757Z" fill="black"/>
<path d="M71.4286 14.29H78.5714V21.4328H71.4286V14.29Z" fill="black"/>
<path d="M21.4286 14.29H28.5714V21.4328H21.4286V14.29Z" fill="black"/>
<path d="M28.5714 0.00427246H35.7143V7.14713H28.5714V0.00427246Z" fill="black"/>
<path d="M35.7143 0.00427246H42.8571V7.14713H35.7143V0.00427246Z" fill="black"/>
<path d="M42.8571 0.00427246H50V7.14713H42.8571V0.00427246Z" fill="black"/>
<path d="M50 0.00427246H57.1429V7.14713H50V0.00427246Z" fill="black"/>
<path d="M57.1429 0.00427246H64.2857V7.14713H57.1429V0.00427246Z" fill="black"/>
<path d="M64.2857 0.00427246H71.4286V7.14713H64.2857V0.00427246Z" fill="black"/>
<path d="M28.5714 92.8614H35.7143V100.004H28.5714V92.8614Z" fill="black"/>
<path d="M35.7143 92.8614H42.8571V100.004H35.7143V92.8614Z" fill="black"/>
<path d="M42.8571 92.8614H50V100.004H42.8571V92.8614Z" fill="black"/>
<path d="M50 92.8614H57.1429V100.004H50V92.8614Z" fill="black"/>
<path d="M57.1429 92.8614H64.2857V100.004H57.1429V92.8614Z" fill="black"/>
<path d="M64.2857 92.8614H71.4286V100.004H64.2857V92.8614Z" fill="black"/>
<path d="M57.1429 7.14713H64.2857V14.29H57.1429V7.14713Z" fill="black"/>
<path d="M50 7.14713H57.1429V14.29H50V7.14713Z" fill="#8C1200"/>
<path d="M50 14.29H57.1429V21.4328H50V14.29Z" fill="black"/>
<path d="M42.8571 7.14713H50V14.29H42.8571V7.14713Z" fill="black"/>
<path d="M28.5714 28.5757H35.7143V35.7186H28.5714V28.5757Z" fill="#8C1200"/>
<path d="M28.5714 21.4328H35.7143V28.5757H28.5714V21.4328Z" fill="black"/>
<path d="M21.4286 28.5757H28.5714V35.7186H21.4286V28.5757Z" fill="black"/>
<path d="M28.5714 35.7186H35.7143V42.8614H28.5714V35.7186Z" fill="black"/>
<path d="M35.7143 28.5757H42.8571V35.7186H35.7143V28.5757Z" fill="black"/>
<path d="M7.14286 50.0043H14.2857V57.1471H7.14286V50.0043Z" fill="#8C1200"/>
<path d="M14.2857 50.0043H21.4286V57.1471H14.2857V50.0043Z" fill="black"/>
<path d="M7.14286 42.8614H14.2857V50.0043H7.14286V42.8614Z" fill="black"/>
<path d="M7.14286 57.1471H14.2857V64.29H7.14286V57.1471Z" fill="black"/>
<path d="M35.7143 64.29H42.8571V71.4328H35.7143V64.29Z" fill="#8C1200"/>
<path d="M35.7143 57.1471H42.8571V64.29H35.7143V57.1471Z" fill="black"/>
<path d="M28.5714 64.29H35.7143V71.4328H28.5714V64.29Z" fill="black"/>
<path d="M35.7143 71.4328H42.8571V78.5757H35.7143V71.4328Z" fill="black"/>
<path d="M42.8571 64.29H50V71.4328H42.8571V64.29Z" fill="black"/>
<path d="M57.1429 85.7186H64.2857V92.8614H57.1429V85.7186Z" fill="#8C1200"/>
<path d="M50 85.7186H57.1429V92.8614H50V85.7186Z" fill="black"/>
<path d="M57.1429 78.5757H64.2857V85.7186H57.1429V78.5757Z" fill="black"/>
<path d="M64.2857 85.7186H71.4286V92.8614H64.2857V85.7186Z" fill="black"/>
<path d="M78.5714 64.29H85.7143V71.4328H78.5714V64.29Z" fill="#8C1200"/>
<path d="M71.4286 71.4328H78.5714V78.5757H71.4286V71.4328Z" fill="#CF6908"/>
<path d="M71.4286 64.29H78.5714V71.4328H71.4286V64.29Z" fill="black"/>
<path d="M78.5714 71.4328H85.7143V78.5757H78.5714V71.4328Z" fill="black"/>
<path d="M78.5714 57.1471H85.7143V64.29H78.5714V57.1471Z" fill="black"/>
<path d="M57.1429 42.8614H64.2857V50.0043H57.1429V42.8614Z" fill="#8C1200"/>
<path d="M57.1429 50.0043H64.2857V57.1471H57.1429V50.0043Z" fill="black"/>
<path d="M50 42.8614H57.1429V50.0043H50V42.8614Z" fill="black"/>
<path d="M57.1429 35.7186H64.2857V42.8614H57.1429V35.7186Z" fill="black"/>
<path d="M64.2857 42.8614H71.4286V50.0043H64.2857V42.8614Z" fill="black"/>
<path d="M78.5714 28.5757H85.7143V35.7186H78.5714V28.5757Z" fill="#8C1200"/>
<path d="M71.4286 28.5757H78.5714V35.7186H71.4286V28.5757Z" fill="black"/>
<path d="M78.5714 35.7186H85.7143V42.8614H78.5714V35.7186Z" fill="black"/>
<path d="M42.8571 85.7186H50V92.8614H42.8571V85.7186Z" fill="#CF6908"/>
<path d="M35.7143 85.7186H42.8571V92.8614H35.7143V85.7186Z" fill="#CF6908"/>
<path d="M28.5714 78.5757H35.7143V85.7186H28.5714V78.5757Z" fill="#CF6908"/>
<path d="M28.5714 85.7186H35.7143V92.8614H28.5714V85.7186Z" fill="#CF6908"/>
<path d="M35.7143 78.5757H42.8571V85.7186H35.7143V78.5757Z" fill="#CF6908"/>
<path d="M42.8571 78.5757H50V85.7186H42.8571V78.5757Z" fill="#CF6908"/>
<path d="M50 78.5757H57.1429V85.7186H50V78.5757Z" fill="#CF6908"/>
<path d="M50 71.4328H57.1429V78.5757H50V71.4328Z" fill="#CF6908"/>
<path d="M42.8571 71.4328H50V78.5757H42.8571V71.4328Z" fill="#CF6908"/>
<path d="M57.1429 71.4328H64.2857V78.5757H57.1429V71.4328Z" fill="#CF6908"/>
<path d="M64.2857 71.4328H71.4286V78.5757H64.2857V71.4328Z" fill="#CF6908"/>
<path d="M64.2857 78.5757H71.4286V85.7186H64.2857V78.5757Z" fill="#CF6908"/>
<path d="M64.2857 64.29H71.4286V71.4328H64.2857V64.29Z" fill="#FF8000"/>
<path d="M57.1429 64.29H64.2857V71.4328H57.1429V64.29Z" fill="#FF8000"/>
<path d="M50 64.29H57.1429V71.4328H50V64.29Z" fill="#FF8000"/>
<path d="M50 57.1471H57.1429V64.29H50V57.1471Z" fill="#FF8000"/>
<path d="M57.1429 57.1471H64.2857V64.29H57.1429V57.1471Z" fill="#FF8000"/>
<path d="M64.2857 57.1471H71.4286V64.29H64.2857V57.1471Z" fill="#FF8000"/>
<path d="M71.4286 57.1471H78.5714V64.29H71.4286V57.1471Z" fill="#FF8000"/>
<path d="M71.4286 50.0043H78.5714V57.1471H71.4286V50.0043Z" fill="#FF8000"/>
<path d="M64.2857 50.0043H71.4286V57.1471H64.2857V50.0043Z" fill="#FF8000"/>
<path d="M71.4286 42.8614H78.5714V50.0043H71.4286V42.8614Z" fill="#FF8000"/>
<path d="M78.5714 42.8614H85.7143V50.0043H78.5714V42.8614Z" fill="#FF8000"/>
<path d="M78.5714 50.0043H85.7143V57.1471H78.5714V50.0043Z" fill="#FF8000"/>
<path d="M85.7143 50.0043H92.8571V57.1471H85.7143V50.0043Z" fill="#FF8000"/>
<path d="M85.7143 42.8614H92.8571V50.0043H85.7143V42.8614Z" fill="#FF8000"/>
<path d="M85.7143 57.1471H92.8571V64.29H85.7143V57.1471Z" fill="#FF8000"/>
<path d="M85.7143 35.7186H92.8571V42.8614H85.7143V35.7186Z" fill="#FF8000"/>
<path d="M64.2857 35.7186H71.4286V42.8614H64.2857V35.7186Z" fill="#FF8000"/>
<path d="M71.4286 35.7186H78.5714V42.8614H71.4286V35.7186Z" fill="#FF8000"/>
<path d="M64.2857 28.5757H71.4286V35.7186H64.2857V28.5757Z" fill="#FF8000"/>
<path d="M64.2857 21.4328H71.4286V28.5757H64.2857V21.4328Z" fill="#FF8000"/>
<path d="M64.2857 14.29H71.4286V21.4328H64.2857V14.29Z" fill="#FF8000"/>
<path d="M64.2857 7.14713H71.4286V14.29H64.2857V7.14713Z" fill="#FF8000"/>
<path d="M71.4286 21.4328H78.5714V28.5757H71.4286V21.4328Z" fill="#FF8000"/>
<path d="M57.1429 21.4328H64.2857V28.5757H57.1429V21.4328Z" fill="#FF8000"/>
<path d="M50 21.4328H57.1429V28.5757H50V21.4328Z" fill="#FF8000"/>
<path d="M42.8571 21.4328H50V28.5757H42.8571V21.4328Z" fill="#FF8000"/>
<path d="M35.7143 21.4328H42.8571V28.5757H35.7143V21.4328Z" fill="#FF8000"/>
<path d="M28.5714 7.14713H35.7143V14.29H28.5714V7.14713Z" fill="#FF8000"/>
<path d="M35.7143 7.14713H42.8571V14.29H35.7143V7.14713Z" fill="#FF8000"/>
<path d="M28.5714 14.29H35.7143V21.4328H28.5714V14.29Z" fill="#FF8000"/>
<path d="M35.7143 14.29H42.8571V21.4328H35.7143V14.29Z" fill="#FF8000"/>
<path d="M42.8571 14.29H50V21.4328H42.8571V14.29Z" fill="#FF8000"/>
<path d="M57.1429 14.29H64.2857V21.4328H57.1429V14.29Z" fill="#FF8000"/>
<path d="M57.1429 28.5757H64.2857V35.7186H57.1429V28.5757Z" fill="#FF8000"/>
<path d="M50 28.5757H57.1429V35.7186H50V28.5757Z" fill="#FF8000"/>
<path d="M42.8571 28.5757H50V35.7186H42.8571V28.5757Z" fill="#FF8000"/>
<path d="M21.4286 21.4328H28.5714V28.5757H21.4286V21.4328Z" fill="#FF8000"/>
<path d="M14.2857 28.5757H21.4286V35.7186H14.2857V28.5757Z" fill="#FF8000"/>
<path d="M7.14286 35.7186H14.2857V42.8614H7.14286V35.7186Z" fill="#FF8000"/>
<path d="M14.2857 35.7186H21.4286V42.8614H14.2857V35.7186Z" fill="#FF8000"/>
<path d="M21.4286 35.7186H28.5714V42.8614H21.4286V35.7186Z" fill="#FF8000"/>
<path d="M14.2857 42.8614H21.4286V50.0043H14.2857V42.8614Z" fill="#FF8000"/>
<path d="M21.4286 42.8614H28.5714V50.0043H21.4286V42.8614Z" fill="#FF8000"/>
<path d="M28.5714 42.8614H35.7143V50.0043H28.5714V42.8614Z" fill="#FF8000"/>
<path d="M35.7143 42.8614H42.8571V50.0043H35.7143V42.8614Z" fill="#FF8000"/>
<path d="M42.8571 42.8614H50V50.0043H42.8571V42.8614Z" fill="#FF8000"/>
<path d="M50 35.7186H57.1429V42.8614H50V35.7186Z" fill="#FF8000"/>
<path d="M42.8571 35.7186H50V42.8614H42.8571V35.7186Z" fill="#FF8000"/>
<path d="M35.7143 35.7186H42.8571V42.8614H35.7143V35.7186Z" fill="#FF8000"/>
<path d="M50 50.0043H57.1429V57.1471H50V50.0043Z" fill="#FF8000"/>
<path d="M42.8571 50.0043H50V57.1471H42.8571V50.0043Z" fill="#FF8000"/>
<path d="M35.7143 50.0043H42.8571V57.1471H35.7143V50.0043Z" fill="#FF8000"/>
<path d="M28.5714 50.0043H35.7143V57.1471H28.5714V50.0043Z" fill="#FF8000"/>
<path d="M21.4286 50.0043H28.5714V57.1471H21.4286V50.0043Z" fill="#CF6908"/>
<path d="M14.2857 57.1471H21.4286V64.29H14.2857V57.1471Z" fill="#CF6908"/>
<path d="M14.2857 64.29H21.4286V71.4328H14.2857V64.29Z" fill="#CF6908"/>
<path d="M21.4286 64.29H28.5714V71.4328H21.4286V64.29Z" fill="#CF6908"/>
<path d="M21.4286 57.1471H28.5714V64.29H21.4286V57.1471Z" fill="#CF6908"/>
<path d="M28.5714 57.1471H35.7143V64.29H28.5714V57.1471Z" fill="#CF6908"/>
<path d="M42.8571 57.1471H50V64.29H42.8571V57.1471Z" fill="#FF8000"/>
<path d="M28.5714 71.4328H35.7143V78.5757H28.5714V71.4328Z" fill="#CF6908"/>
<path d="M21.4286 71.4328H28.5714V78.5757H21.4286V71.4328Z" fill="#CF6908"/>
<path d="M7.14286 21.4328H14.2857V28.5757H7.14286V21.4328Z" fill="black"/>
<path d="M85.7143 21.4328H92.8571V28.5757H85.7143V21.4328Z" fill="black"/>
<path d="M85.7143 71.4328H92.8571V78.5757H85.7143V71.4328Z" fill="black"/>
<path d="M7.14286 71.4328H14.2857V78.5757H7.14286V71.4328Z" fill="black"/>
</svg>
