<svg width="41" height="41" viewBox="0 0 41 41" fill="none" xmlns="http://www.w3.org/2000/svg">
<g id="Vector">
<path d="M15.8846 0.5H18.9615V3.57692H15.8846V0.5Z" fill="black"/>
<path d="M18.9615 0.5H22.0385V3.57692H18.9615V0.5Z" fill="black"/>
<path d="M22.0385 0.5H25.1154V3.57692H22.0385V0.5Z" fill="black"/>
<path d="M25.1154 3.57692H28.1923V6.65385H25.1154V3.57692Z" fill="black"/>
<path d="M28.1923 3.57692H31.2692V6.65385H28.1923V3.57692Z" fill="black"/>
<path d="M31.2692 6.65385H34.3462V9.73077H31.2692V6.65385Z" fill="black"/>
<path d="M34.3462 9.73077H37.4231V12.8077H34.3462V9.73077Z" fill="black"/>
<path d="M34.3462 12.8077H37.4231V15.8846H34.3462V12.8077Z" fill="black"/>
<path d="M37.4231 15.8846H40.5V18.9615H37.4231V15.8846Z" fill="black"/>
<path d="M37.4231 18.9615H40.5V22.0385H37.4231V18.9615Z" fill="black"/>
<path d="M37.4231 22.0385H40.5V25.1154H37.4231V22.0385Z" fill="black"/>
<path d="M37.4231 25.1154H40.5V28.1923H37.4231V25.1154Z" fill="black"/>
<path d="M34.3462 28.1923H37.4231V31.2692H34.3462V28.1923Z" fill="black"/>
<path d="M31.2692 31.2692H34.3462V34.3462H31.2692V31.2692Z" fill="black"/>
<path d="M28.1923 34.3462H31.2692V37.4231H28.1923V34.3462Z" fill="black"/>
<path d="M25.1154 37.4231H28.1923V40.5H25.1154V37.4231Z" fill="black"/>
<path d="M22.0385 37.4231H25.1154V40.5H22.0385V37.4231Z" fill="black"/>
<path d="M18.9615 37.4231H22.0385V40.5H18.9615V37.4231Z" fill="black"/>
<path d="M15.8846 37.4231H18.9615V40.5H15.8846V37.4231Z" fill="black"/>
<path d="M12.8077 34.3462H15.8846V37.4231H12.8077V34.3462Z" fill="black"/>
<path d="M9.73077 34.3462H12.8077V37.4231H9.73077V34.3462Z" fill="black"/>
<path d="M6.65385 31.2692H9.73077V34.3462H6.65385V31.2692Z" fill="black"/>
<path d="M3.57692 28.1923H6.65385V31.2692H3.57692V28.1923Z" fill="black"/>
<path d="M3.57692 25.1154H6.65385V28.1923H3.57692V25.1154Z" fill="black"/>
<path d="M0.5 22.0385H3.57692V25.1154H0.5V22.0385Z" fill="black"/>
<path d="M0.5 18.9615H3.57692V22.0385H0.5V18.9615Z" fill="black"/>
<path d="M0.5 15.8846H3.57692V18.9615H0.5V15.8846Z" fill="black"/>
<path d="M0.5 12.8077H3.57692V15.8846H0.5V12.8077Z" fill="black"/>
<path d="M3.57692 9.73077H6.65385V12.8077H3.57692V9.73077Z" fill="black"/>
<path d="M6.65385 6.65385H9.73077V9.73077H6.65385V6.65385Z" fill="black"/>
<path d="M9.73077 3.57692H12.8077V6.65385H9.73077V3.57692Z" fill="black"/>
<path d="M12.8077 0.5H15.8846V3.57692H12.8077V0.5Z" fill="black"/>
<path d="M12.8077 9.73077H15.8846V12.8077H12.8077V9.73077Z" fill="black"/>
<path d="M15.8846 9.73077H18.9615V12.8077H15.8846V9.73077Z" fill="black"/>
<path d="M15.8846 25.1154H18.9615V28.1923H15.8846V25.1154Z" fill="black"/>
<path d="M12.8077 25.1154H15.8846V28.1923H12.8077V25.1154Z" fill="black"/>
<path d="M9.73077 22.0385H12.8077V25.1154H9.73077V22.0385Z" fill="black"/>
<path d="M6.65385 18.9615H9.73077V22.0385H6.65385V18.9615Z" fill="black"/>
<path d="M6.65385 15.8846H9.73077V18.9615H6.65385V15.8846Z" fill="black"/>
<path d="M9.73077 12.8077H12.8077V15.8846H9.73077V12.8077Z" fill="black"/>
<path d="M12.8077 12.8077H15.8846V15.8846H12.8077V12.8077Z" fill="#F9ED32"/>
<path d="M12.8077 15.8846H15.8846V18.9615H12.8077V15.8846Z" fill="#F9ED32"/>
<path d="M9.73077 15.8846H12.8077V18.9615H9.73077V15.8846Z" fill="#F9ED32"/>
<path d="M9.73077 18.9615H12.8077V22.0385H9.73077V18.9615Z" fill="#F9ED32"/>
<path d="M12.8077 18.9615H15.8846V22.0385H12.8077V18.9615Z" fill="#FF8B00"/>
<path d="M12.8077 22.0385H15.8846V25.1154H12.8077V22.0385Z" fill="#FF8B00"/>
<path d="M15.8846 22.0385H18.9615V25.1154H15.8846V22.0385Z" fill="#FF8B00"/>
<path d="M15.8846 18.9615H18.9615V22.0385H15.8846V18.9615Z" fill="#FF8B00"/>
<path d="M15.8846 15.8846H18.9615V18.9615H15.8846V15.8846Z" fill="#FF8B00"/>
<path d="M15.8846 12.8077H18.9615V15.8846H15.8846V12.8077Z" fill="#FF8B00"/>
<path d="M18.9615 12.8077H22.0385V15.8846H18.9615V12.8077Z" fill="black"/>
<path d="M22.0385 15.8846H25.1154V18.9615H22.0385V15.8846Z" fill="black"/>
<path d="M22.0385 18.9615H25.1154V22.0385H22.0385V18.9615Z" fill="black"/>
<path d="M18.9615 22.0385H22.0385V25.1154H18.9615V22.0385Z" fill="black"/>
<path d="M18.9615 15.8846H22.0385V18.9615H18.9615V15.8846Z" fill="#FF8B00"/>
<path d="M18.9615 18.9615H22.0385V22.0385H18.9615V18.9615Z" fill="#FF8B00"/>
<path d="M3.57692 22.0385H6.65385V25.1154H3.57692V22.0385Z" fill="white"/>
<path d="M3.57692 18.9615H6.65385V22.0385H3.57692V18.9615Z" fill="white"/>
<path d="M3.57692 15.8846H6.65385V18.9615H3.57692V15.8846Z" fill="white"/>
<path d="M3.57692 12.8077H6.65385V15.8846H3.57692V12.8077Z" fill="white"/>
<path d="M6.65385 12.8077H9.73077V15.8846H6.65385V12.8077Z" fill="white"/>
<path d="M6.65385 9.73077H9.73077V12.8077H6.65385V9.73077Z" fill="white"/>
<path d="M9.73077 9.73077H12.8077V12.8077H9.73077V9.73077Z" fill="white"/>
<path d="M9.73077 6.65385H12.8077V9.73077H9.73077V6.65385Z" fill="white"/>
<path d="M12.8077 6.65385H15.8846V9.73077H12.8077V6.65385Z" fill="white"/>
<path d="M12.8077 3.57692H15.8846V6.65385H12.8077V3.57692Z" fill="white"/>
<path d="M15.8846 3.57692H18.9615V6.65385H15.8846V3.57692Z" fill="white"/>
<path d="M18.9615 3.57692H22.0385V6.65385H18.9615V3.57692Z" fill="white"/>
<path d="M22.0385 3.57692H25.1154V6.65385H22.0385V3.57692Z" fill="white"/>
<path d="M22.0385 6.65385H25.1154V9.73077H22.0385V6.65385Z" fill="white"/>
<path d="M18.9615 6.65385H22.0385V9.73077H18.9615V6.65385Z" fill="white"/>
<path d="M15.8846 6.65385H18.9615V9.73077H15.8846V6.65385Z" fill="white"/>
<path d="M18.9615 9.73077H22.0385V12.8077H18.9615V9.73077Z" fill="white"/>
<path d="M22.0385 9.73077H25.1154V12.8077H22.0385V9.73077Z" fill="white"/>
<path d="M22.0385 12.8077H25.1154V15.8846H22.0385V12.8077Z" fill="white"/>
<path d="M25.1154 12.8077H28.1923V15.8846H25.1154V12.8077Z" fill="white"/>
<path d="M25.1154 9.73077H28.1923V12.8077H25.1154V9.73077Z" fill="white"/>
<path d="M25.1154 6.65385H28.1923V9.73077H25.1154V6.65385Z" fill="white"/>
<path d="M28.1923 6.65385H31.2692V9.73077H28.1923V6.65385Z" fill="white"/>
<path d="M28.1923 9.73077H31.2692V12.8077H28.1923V9.73077Z" fill="white"/>
<path d="M28.1923 12.8077H31.2692V15.8846H28.1923V12.8077Z" fill="white"/>
<path d="M31.2692 12.8077H34.3462V15.8846H31.2692V12.8077Z" fill="white"/>
<path d="M31.2692 9.73077H34.3462V12.8077H31.2692V9.73077Z" fill="white"/>
<path d="M25.1154 15.8846H28.1923V18.9615H25.1154V15.8846Z" fill="white"/>
<path d="M28.1923 15.8846H31.2692V18.9615H28.1923V15.8846Z" fill="white"/>
<path d="M31.2692 15.8846H34.3462V18.9615H31.2692V15.8846Z" fill="white"/>
<path d="M34.3462 15.8846H37.4231V18.9615H34.3462V15.8846Z" fill="white"/>
<path d="M34.3462 18.9615H37.4231V22.0385H34.3462V18.9615Z" fill="white"/>
<path d="M34.3462 22.0385H37.4231V25.1154H34.3462V22.0385Z" fill="white"/>
<path d="M34.3462 25.1154H37.4231V28.1923H34.3462V25.1154Z" fill="white"/>
<path d="M31.2692 25.1154H34.3462V28.1923H31.2692V25.1154Z" fill="white"/>
<path d="M31.2692 22.0385H34.3462V25.1154H31.2692V22.0385Z" fill="white"/>
<path d="M31.2692 18.9615H34.3462V22.0385H31.2692V18.9615Z" fill="white"/>
<path d="M28.1923 18.9615H31.2692V22.0385H28.1923V18.9615Z" fill="white"/>
<path d="M25.1154 18.9615H28.1923V22.0385H25.1154V18.9615Z" fill="white"/>
<path d="M25.1154 22.0385H28.1923V25.1154H25.1154V22.0385Z" fill="white"/>
<path d="M25.1154 25.1154H28.1923V28.1923H25.1154V25.1154Z" fill="white"/>
<path d="M28.1923 25.1154H31.2692V28.1923H28.1923V25.1154Z" fill="white"/>
<path d="M28.1923 22.0385H31.2692V25.1154H28.1923V22.0385Z" fill="white"/>
<path d="M22.0385 22.0385H25.1154V25.1154H22.0385V22.0385Z" fill="white"/>
<path d="M22.0385 25.1154H25.1154V28.1923H22.0385V25.1154Z" fill="white"/>
<path d="M18.9615 25.1154H22.0385V28.1923H18.9615V25.1154Z" fill="white"/>
<path d="M18.9615 28.1923H22.0385V31.2692H18.9615V28.1923Z" fill="white"/>
<path d="M15.8846 28.1923H18.9615V31.2692H15.8846V28.1923Z" fill="white"/>
<path d="M12.8077 28.1923H15.8846V31.2692H12.8077V28.1923Z" fill="white"/>
<path d="M9.73077 28.1923H12.8077V31.2692H9.73077V28.1923Z" fill="white"/>
<path d="M9.73077 25.1154H12.8077V28.1923H9.73077V25.1154Z" fill="white"/>
<path d="M6.65385 25.1154H9.73077V28.1923H6.65385V25.1154Z" fill="white"/>
<path d="M6.65385 22.0385H9.73077V25.1154H6.65385V22.0385Z" fill="white"/>
<path d="M6.65385 28.1923H9.73077V31.2692H6.65385V28.1923Z" fill="white"/>
<path d="M22.0385 28.1923H25.1154V31.2692H22.0385V28.1923Z" fill="white"/>
<path d="M25.1154 28.1923H28.1923V31.2692H25.1154V28.1923Z" fill="white"/>
<path d="M28.1923 28.1923H31.2692V31.2692H28.1923V28.1923Z" fill="white"/>
<path d="M31.2692 28.1923H34.3462V31.2692H31.2692V28.1923Z" fill="white"/>
<path d="M28.1923 31.2692H31.2692V34.3462H28.1923V31.2692Z" fill="white"/>
<path d="M25.1154 31.2692H28.1923V34.3462H25.1154V31.2692Z" fill="white"/>
<path d="M22.0385 31.2692H25.1154V34.3462H22.0385V31.2692Z" fill="white"/>
<path d="M18.9615 31.2692H22.0385V34.3462H18.9615V31.2692Z" fill="white"/>
<path d="M15.8846 31.2692H18.9615V34.3462H15.8846V31.2692Z" fill="white"/>
<path d="M12.8077 31.2692H15.8846V34.3462H12.8077V31.2692Z" fill="white"/>
<path d="M9.73077 31.2692H12.8077V34.3462H9.73077V31.2692Z" fill="white"/>
<path d="M15.8846 34.3462H18.9615V37.4231H15.8846V34.3462Z" fill="white"/>
<path d="M18.9615 34.3462H22.0385V37.4231H18.9615V34.3462Z" fill="white"/>
<path d="M22.0385 34.3462H25.1154V37.4231H22.0385V34.3462Z" fill="white"/>
<path d="M25.1154 34.3462H28.1923V37.4231H25.1154V34.3462Z" fill="white"/>
</g>
</svg>
