<svg width="223" height="82" viewBox="0 0 223 82" fill="none" xmlns="http://www.w3.org/2000/svg">
<rect y="81.5043" width="14" height="223" transform="rotate(-90 0 81.5043)" fill="#834D29"/>
<rect y="81.5043" width="14" height="223" transform="rotate(-90 0 81.5043)" fill="#834D29"/>
<rect x="72" y="14.5043" width="14" height="100" transform="rotate(-90 72 14.5043)" fill="#834D29"/>
<rect x="72" y="14.5043" width="14" height="100" transform="rotate(-90 72 14.5043)" fill="#834D29"/>
<rect x="55" y="66.5043" width="54" height="131" transform="rotate(-90 55 66.5043)" fill="#834D29"/>
<rect x="55" y="66.5043" width="54" height="131" transform="rotate(-90 55 66.5043)" fill="#834D29"/>
<rect x="55" y="67" width="54" height="9" transform="rotate(-90 55 67)" fill="#976545"/>
<rect x="202.906" y="18.8002" width="4" height="43.6814" transform="rotate(34.7616 202.906 18.8002)" fill="#66A865"/>
<rect x="202.906" y="18.8002" width="4" height="43.6814" transform="rotate(34.7616 202.906 18.8002)" fill="#66A865"/>
<rect x="201.904" y="21.8724" width="4" height="8.06478" transform="rotate(-5.45003 201.904 21.8724)" fill="#66A865"/>
<rect x="201.904" y="21.8724" width="4" height="8.06478" transform="rotate(-5.45003 201.904 21.8724)" fill="#66A865"/>
<rect x="197" y="28.8842" width="4" height="8.06478" transform="rotate(-5.45003 197 28.8842)" fill="#66A865"/>
<rect x="197" y="28.8842" width="4" height="8.06478" transform="rotate(-5.45003 197 28.8842)" fill="#66A865"/>
<rect x="192" y="35.8842" width="4" height="8.06478" transform="rotate(-5.45003 192 35.8842)" fill="#66A865"/>
<rect x="192" y="35.8842" width="4" height="8.06478" transform="rotate(-5.45003 192 35.8842)" fill="#66A865"/>
<rect width="4" height="8.06478" transform="matrix(0.305352 0.952239 0.952239 -0.305352 186 34.9672)" fill="#66A865"/>
<rect width="4" height="8.06478" transform="matrix(0.305352 0.952239 0.952239 -0.305352 186 34.9672)" fill="#66A865"/>
<rect width="4" height="8.06478" transform="matrix(0.119201 0.99287 0.99287 -0.119201 190 27.4657)" fill="#66A865"/>
<rect width="4" height="8.06478" transform="matrix(0.119201 0.99287 0.99287 -0.119201 190 27.4657)" fill="#66A865"/>
<rect width="4" height="8.06478" transform="matrix(0.119201 0.99287 0.99287 -0.119201 195 20.4657)" fill="#66A865"/>
<rect width="4" height="8.06478" transform="matrix(0.119201 0.99287 0.99287 -0.119201 195 20.4657)" fill="#66A865"/>
<rect x="55" y="68.5043" width="14" height="131" transform="rotate(-90 55 68.5043)" fill="#834D29"/>
<rect x="55" y="68.5043" width="14" height="131" transform="rotate(-90 55 68.5043)" fill="#715B4D"/>
</svg>
