<svg width="90" height="126" viewBox="0 0 90 126" fill="none" xmlns="http://www.w3.org/2000/svg">
<path d="M36 117.009H45V126.009H36V117.009Z" fill="black"/>
<path d="M45 117.009H54V126.009H45V117.009Z" fill="black"/>
<path d="M54 108.009H63V117.009H54V108.009Z" fill="black"/>
<path d="M54 99.0087H63V108.009H54V99.0087Z" fill="black"/>
<path d="M27 108.009H36V117.009H27V108.009Z" fill="black"/>
<path d="M27 99.0087H36V108.009H27V99.0087Z" fill="black"/>
<path d="M63 54.0087H72V63.0087H63V54.0087Z" fill="black"/>
<path d="M54 54.0087H63V63.0087H54V54.0087Z" fill="black"/>
<path d="M45 63.0087H54V72.0087H45V63.0087Z" fill="black"/>
<path d="M36 63.0087H45V72.0087H36V63.0087Z" fill="black"/>
<path d="M27 54.0087H36V63.0087H27V54.0087Z" fill="black"/>
<path d="M0 45.0087H9V54.0087H0V45.0087Z" fill="black"/>
<path d="M0 36.0087H9V45.0087H0V36.0087Z" fill="black"/>
<path d="M9 36.0087H18V45.0087H9V36.0087Z" fill="black"/>
<path d="M9 27.0087H18V36.0087H9V27.0087Z" fill="black"/>
<path d="M9 18.0087H18V27.0087H9V18.0087Z" fill="black"/>
<path d="M18 9.00867H27V18.0087H18V9.00867Z" fill="black"/>
<path d="M27 9.00867H36V18.0087H27V9.00867Z" fill="black"/>
<path d="M36 0.00866699H45V9.00867H36V0.00866699Z" fill="black"/>
<path d="M45 0.00866699H54V9.00867H45V0.00866699Z" fill="black"/>
<path d="M54 9.00867H63V18.0087H54V9.00867Z" fill="black"/>
<path d="M63 9.00867H72V18.0087H63V9.00867Z" fill="black"/>
<path d="M72 18.0087H81V27.0087H72V18.0087Z" fill="black"/>
<path d="M72 27.0087H81V36.0087H72V27.0087Z" fill="black"/>
<path d="M72 36.0087H81V45.0087H72V36.0087Z" fill="black"/>
<path d="M81 36.0087H90V45.0087H81V36.0087Z" fill="black"/>
<path d="M81 45.0087H90V54.0087H81V45.0087Z" fill="black"/>
<path d="M27 63.0087H36V72.0087H27V63.0087Z" fill="#FF8000"/>
<path d="M27 72.0087H36V81.0087H27V72.0087Z" fill="#FFB524"/>
<path d="M27 81.0087H36V90.0087H27V81.0087Z" fill="#FF8000"/>
<path d="M27 90.0087H36V99.0087H27V90.0087Z" fill="black"/>
<path d="M36 90.0087H45V99.0087H36V90.0087Z" fill="#FFB524"/>
<path d="M45 90.0087H54V99.0087H45V90.0087Z" fill="#FF8000"/>
<path d="M45 99.0087H54V108.009H45V99.0087Z" fill="#FF8000"/>
<path d="M45 108.009H54V117.009H45V108.009Z" fill="#FFB524"/>
<path d="M36 108.009H45V117.009H36V108.009Z" fill="#FF8000"/>
<path d="M36 99.0087H45V108.009H36V99.0087Z" fill="#FF8000"/>
<path d="M36 81.0087H45V90.0087H36V81.0087Z" fill="#FF8000"/>
<path d="M36 72.0087H45V81.0087H36V72.0087Z" fill="#FF8000"/>
<path d="M45 72.0087H54V81.0087H45V72.0087Z" fill="#FFB524"/>
<path d="M45 81.0087H54V90.0087H45V81.0087Z" fill="#FF8000"/>
<path d="M54 81.0087H63V90.0087H54V81.0087Z" fill="#FF8000"/>
<path d="M54 90.0087H63V99.0087H54V90.0087Z" fill="black"/>
<path d="M54 72.0087H63V81.0087H54V72.0087Z" fill="#FF8000"/>
<path d="M54 63.0087H63V72.0087H54V63.0087Z" fill="#FF8000"/>
<path d="M63 63.0087H72V72.0087H63V63.0087Z" fill="black"/>
<path d="M63 72.0087H72V81.0087H63V72.0087Z" fill="black"/>
<path d="M9 45.0087H18V54.0087H9V45.0087Z" fill="#F34A69"/>
<path d="M18 45.0087H27V54.0087H18V45.0087Z" fill="#F34A69"/>
<path d="M27 45.0087H36V54.0087H27V45.0087Z" fill="#F34A69"/>
<path d="M36 45.0087H45V54.0087H36V45.0087Z" fill="#F34A69"/>
<path d="M45 45.0087H54V54.0087H45V45.0087Z" fill="#F34A69"/>
<path d="M54 45.0087H63V54.0087H54V45.0087Z" fill="#F34A69"/>
<path d="M63 45.0087H72V54.0087H63V45.0087Z" fill="#F34A69"/>
<path d="M72 45.0087H81V54.0087H72V45.0087Z" fill="#F34A69"/>
<path d="M45 54.0087H54V63.0087H45V54.0087Z" fill="#F34A69"/>
<path d="M36 54.0087H45V63.0087H36V54.0087Z" fill="#F34A69"/>
<path d="M18 36.0087H27V45.0087H18V36.0087Z" fill="#F34A69"/>
<path d="M63 36.0087H72V45.0087H63V36.0087Z" fill="#F34A69"/>
<path d="M54 36.0087H63V45.0087H54V36.0087Z" fill="#FF8FAC"/>
<path d="M45 36.0087H54V45.0087H45V36.0087Z" fill="#FF8FAC"/>
<path d="M36 36.0087H45V45.0087H36V36.0087Z" fill="#FF8FAC"/>
<path d="M27 36.0087H36V45.0087H27V36.0087Z" fill="#FF8FAC"/>
<path d="M27 27.0087H36V36.0087H27V27.0087Z" fill="#FF8FAC"/>
<path d="M18 27.0087H27V36.0087H18V27.0087Z" fill="#FF8FAC"/>
<path d="M18 18.0087H27V27.0087H18V18.0087Z" fill="#FF8FAC"/>
<path d="M27 18.0087H36V27.0087H27V18.0087Z" fill="#FF8FAC"/>
<path d="M36 18.0087H45V27.0087H36V18.0087Z" fill="#FF8FAC"/>
<path d="M36 9.00867H45V18.0087H36V9.00867Z" fill="#FF8FAC"/>
<path d="M45 9.00867H54V18.0087H45V9.00867Z" fill="#FF8FAC"/>
<path d="M45 18.0087H54V27.0087H45V18.0087Z" fill="#FF8FAC"/>
<path d="M45 27.0087H54V36.0087H45V27.0087Z" fill="#FF8FAC"/>
<path d="M36 27.0087H45V36.0087H36V27.0087Z" fill="#FF8FAC"/>
<path d="M54 27.0087H63V36.0087H54V27.0087Z" fill="#FF8FAC"/>
<path d="M63 27.0087H72V36.0087H63V27.0087Z" fill="#FF8FAC"/>
<path d="M63 18.0087H72V27.0087H63V18.0087Z" fill="#FF8FAC"/>
<path d="M54 18.0087H63V27.0087H54V18.0087Z" fill="#FF8FAC"/>
<path d="M18 54.0087H27V63.0087H18V54.0087Z" fill="black"/>
<path d="M18 63.0087H27V72.0087H18V63.0087Z" fill="black"/>
<path d="M18 72.0087H27V81.0087H18V72.0087Z" fill="black"/>
<path d="M72 54.0087H81V63.0087H72V54.0087Z" fill="black"/>
<path d="M63 81.0087H72V90.0087H63V81.0087Z" fill="black"/>
<path d="M18 81.0087H27V90.0087H18V81.0087Z" fill="black"/>
<path d="M9 54.0087H18V63.0087H9V54.0087Z" fill="black"/>
</svg>
