<svg width="238" height="94" viewBox="0 0 238 94" fill="none" xmlns="http://www.w3.org/2000/svg">
<rect y="40.0043" width="13.8728" height="13.8728" fill="#D7A3A3"/>
<rect y="40.0043" width="13.8728" height="13.8728" fill="#471919"/>
<rect y="80.0043" width="13.8728" height="13.8728" fill="#D7A3A3"/>
<rect y="80.0043" width="13.8728" height="13.8728" fill="#471919"/>
<rect y="60.0043" width="13.8728" height="13.8728" fill="#D7A3A3"/>
<rect y="60.0043" width="13.8728" height="13.8728" fill="#471919"/>
<rect x="14" y="94.0043" width="54" height="131" transform="rotate(-90 14 94.0043)" fill="#B63B3B"/>
<rect x="14" y="94.0043" width="54" height="131" transform="rotate(-90 14 94.0043)" fill="#782727"/>
<rect x="130" y="82.0043" width="54" height="75" transform="rotate(-90 130 82.0043)" fill="#B63B3B"/>
<rect x="130" y="82.0043" width="54" height="75" transform="rotate(-90 130 82.0043)" fill="#782727"/>
<rect x="163" y="54.0043" width="54" height="75" transform="rotate(-90 163 54.0043)" fill="#B63B3B"/>
<rect x="163" y="54.0043" width="54" height="75" transform="rotate(-90 163 54.0043)" fill="#782727"/>
</svg>
