<svg width="140" height="94" viewBox="0 0 140 94" fill="none" xmlns="http://www.w3.org/2000/svg">
<path d="M130.667 75.0043H140V84.3377H130.667V75.0043Z" fill="black"/>
<path d="M130.667 65.671H140V75.0043H130.667V65.671Z" fill="black"/>
<path d="M112 84.3377H121.333V93.671H112V84.3377Z" fill="black"/>
<path d="M121.333 84.3377H130.667V93.671H121.333V84.3377Z" fill="black"/>
<path d="M102.667 84.3377H112V93.671H102.667V84.3377Z" fill="black"/>
<path d="M93.3333 84.3377H102.667V93.671H93.3333V84.3377Z" fill="black"/>
<path d="M84 84.3377H93.3333V93.671H84V84.3377Z" fill="black"/>
<path d="M74.6667 84.3377H84V93.671H74.6667V84.3377Z" fill="black"/>
<path d="M65.3333 84.3377H74.6667V93.671H65.3333V84.3377Z" fill="black"/>
<path d="M56 84.3377H65.3333V93.671H56V84.3377Z" fill="black"/>
<path d="M46.6667 84.3377H56V93.671H46.6667V84.3377Z" fill="black"/>
<path d="M37.3333 84.3377H46.6667V93.671H37.3333V84.3377Z" fill="black"/>
<path d="M28 75.0043H37.3333V84.3377H28V75.0043Z" fill="black"/>
<path d="M28 65.671H37.3333V75.0043H28V65.671Z" fill="black"/>
<path d="M18.6667 65.671H28V75.0043H18.6667V65.671Z" fill="black"/>
<path d="M0 56.3377H9.33333V65.671H0V56.3377Z" fill="black"/>
<path d="M0 47.0043H9.33333V56.3377H0V47.0043Z" fill="black"/>
<path d="M9.33333 65.671H18.6667V75.0043H9.33333V65.671Z" fill="black"/>
<path d="M9.33333 37.671H18.6667V47.0043H9.33333V37.671Z" fill="black"/>
<path d="M18.6667 28.3376H28V37.671H18.6667V28.3376Z" fill="black"/>
<path d="M37.3333 56.3377H46.6667V65.671H37.3333V56.3377Z" fill="black"/>
<path d="M37.3333 47.0043H46.6667V56.3377H37.3333V47.0043Z" fill="black"/>
<path d="M46.6667 37.671H56V47.0043H46.6667V37.671Z" fill="black"/>
<path d="M56 28.3376H65.3333V37.671H56V28.3376Z" fill="black"/>
<path d="M65.3333 19.0043H74.6667V28.3376H65.3333V19.0043Z" fill="black"/>
<path d="M74.6667 19.0043H84V28.3376H74.6667V19.0043Z" fill="black"/>
<path d="M121.333 56.3377H130.667V65.671H121.333V56.3377Z" fill="black"/>
<path d="M121.333 47.0043H130.667V56.3377H121.333V47.0043Z" fill="black"/>
<path d="M112 37.671H121.333V47.0043H112V37.671Z" fill="black"/>
<path d="M102.667 37.671H112V47.0043H102.667V37.671Z" fill="black"/>
<path d="M102.667 28.3376H112V37.671H102.667V28.3376Z" fill="black"/>
<path d="M84 19.0043H93.3333V28.3376H84V19.0043Z" fill="black"/>
<path d="M28 19.0043H37.3333V28.3376H28V19.0043Z" fill="black"/>
<path d="M37.3333 9.67098H46.6667V19.0043H37.3333V9.67098Z" fill="black"/>
<path d="M46.6667 0.337646H56V9.67098H46.6667V0.337646Z" fill="black"/>
<path d="M93.3333 19.0043H102.667V28.3376H93.3333V19.0043Z" fill="black"/>
<path d="M74.6667 9.67098H84V19.0043H74.6667V9.67098Z" fill="#FF8B00"/>
<path d="M74.6667 0.337646H84V9.67098H74.6667V0.337646Z" fill="black"/>
<path d="M65.3333 0.337646H74.6667V9.67098H65.3333V0.337646Z" fill="black"/>
<path d="M65.3333 9.67098H74.6667V19.0043H65.3333V9.67098Z" fill="#FF8B00"/>
<path d="M56 0.337646H65.3333V9.67098H56V0.337646Z" fill="black"/>
<path d="M56 9.67098H65.3333V19.0043H56V9.67098Z" fill="#FF8B00"/>
<path d="M112 75.0043H121.333V84.3377H112V75.0043Z" fill="#FEC200"/>
<path d="M102.667 75.0043H112V84.3377H102.667V75.0043Z" fill="#FEC200"/>
<path d="M102.667 65.671H112V75.0043H102.667V65.671Z" fill="#DDA900"/>
<path d="M93.3333 65.671H102.667V75.0043H93.3333V65.671Z" fill="#FEC200"/>
<path d="M84 65.671H93.3333V75.0043H84V65.671Z" fill="#FEC200"/>
<path d="M74.6667 65.671H84V75.0043H74.6667V65.671Z" fill="#DDA900"/>
<path d="M74.6667 75.0043H84V84.3377H74.6667V75.0043Z" fill="#FEC200"/>
<path d="M65.3333 75.0043H74.6667V84.3377H65.3333V75.0043Z" fill="#FEC200"/>
<path d="M56 75.0043H65.3333V84.3377H56V75.0043Z" fill="#FEC200"/>
<path d="M46.6667 75.0043H56V84.3377H46.6667V75.0043Z" fill="#FEC200"/>
<path d="M46.6667 65.671H56V75.0043H46.6667V65.671Z" fill="#DDA900"/>
<path d="M37.3333 65.671H46.6667V75.0043H37.3333V65.671Z" fill="#FEC200"/>
<path d="M37.3333 75.0043H46.6667V84.3377H37.3333V75.0043Z" fill="#FEC200"/>
<path d="M84 75.0043H93.3333V84.3377H84V75.0043Z" fill="#FEC200"/>
<path d="M93.3333 75.0043H102.667V84.3377H93.3333V75.0043Z" fill="#FEC200"/>
<path d="M112 65.671H121.333V75.0043H112V65.671Z" fill="#FEC200"/>
<path d="M121.333 75.0043H130.667V84.3377H121.333V75.0043Z" fill="#FEC200"/>
<path d="M121.333 65.671H130.667V75.0043H121.333V65.671Z" fill="#FEC200"/>
<path d="M65.3333 65.671H74.6667V75.0043H65.3333V65.671Z" fill="#FEC200"/>
<path d="M56 65.671H65.3333V75.0043H56V65.671Z" fill="#FEC200"/>
<path d="M46.6667 56.3377H56V65.671H46.6667V56.3377Z" fill="#FEC200"/>
<path d="M56 56.3377H65.3333V65.671H56V56.3377Z" fill="#FEC200"/>
<path d="M65.3333 56.3377H74.6667V65.671H65.3333V56.3377Z" fill="#FEC200"/>
<path d="M74.6667 56.3377H84V65.671H74.6667V56.3377Z" fill="#FEC200"/>
<path d="M84 56.3377H93.3333V65.671H84V56.3377Z" fill="#FEC200"/>
<path d="M93.3333 47.0043H102.667V56.3377H93.3333V47.0043Z" fill="#DDA900"/>
<path d="M93.3333 56.3377H102.667V65.671H93.3333V56.3377Z" fill="#FEC200"/>
<path d="M102.667 56.3377H112V65.671H102.667V56.3377Z" fill="#FEC200"/>
<path d="M102.667 47.0043H112V56.3377H102.667V47.0043Z" fill="#FEC200"/>
<path d="M112 56.3377H121.333V65.671H112V56.3377Z" fill="#FEC200"/>
<path d="M112 47.0043H121.333V56.3377H112V47.0043Z" fill="#FEC200"/>
<path d="M84 47.0043H93.3333V56.3377H84V47.0043Z" fill="#FEC200"/>
<path d="M74.6667 47.0043H84V56.3377H74.6667V47.0043Z" fill="#FEC200"/>
<path d="M65.3333 47.0043H74.6667V56.3377H65.3333V47.0043Z" fill="#DDA900"/>
<path d="M56 47.0043H65.3333V56.3377H56V47.0043Z" fill="#FEC200"/>
<path d="M46.6667 47.0043H56V56.3377H46.6667V47.0043Z" fill="#FEC200"/>
<path d="M56 37.671H65.3333V47.0043H56V37.671Z" fill="#FEC200"/>
<path d="M65.3333 37.671H74.6667V47.0043H65.3333V37.671Z" fill="#FEC200"/>
<path d="M74.6667 37.671H84V47.0043H74.6667V37.671Z" fill="#FEC200"/>
<path d="M84 37.671H93.3333V47.0043H84V37.671Z" fill="#FEC200"/>
<path d="M93.3333 37.671H102.667V47.0043H93.3333V37.671Z" fill="#FEC200"/>
<path d="M93.3333 28.3376H102.667V37.671H93.3333V28.3376Z" fill="#FEC200"/>
<path d="M84 28.3376H93.3333V37.671H84V28.3376Z" fill="#FEC200"/>
<path d="M74.6667 28.3376H84V37.671H74.6667V28.3376Z" fill="#FEC200"/>
<path d="M65.3333 28.3376H74.6667V37.671H65.3333V28.3376Z" fill="#FEC200"/>
<path d="M56 19.0043H65.3333V28.3376H56V19.0043Z" fill="#FE0002"/>
<path d="M46.6667 19.0043H56V28.3376H46.6667V19.0043Z" fill="#FE0002"/>
<path d="M37.3333 19.0043H46.6667V28.3376H37.3333V19.0043Z" fill="#FE0002"/>
<path d="M46.6667 9.67098H56V19.0043H46.6667V9.67098Z" fill="#FE0002"/>
<path d="M28 28.3376H37.3333V37.671H28V28.3376Z" fill="#FE0002"/>
<path d="M46.6667 28.3376H56V37.671H46.6667V28.3376Z" fill="#7EC928"/>
<path d="M37.3333 28.3376H46.6667V37.671H37.3333V28.3376Z" fill="#7EC928"/>
<path d="M37.3333 37.671H46.6667V47.0043H37.3333V37.671Z" fill="#7EC928"/>
<path d="M18.6667 37.671H28V47.0043H18.6667V37.671Z" fill="#7EC928"/>
<path d="M28 37.671H37.3333V47.0043H28V37.671Z" fill="#7EC928"/>
<path d="M28 47.0043H37.3333V56.3377H28V47.0043Z" fill="#8C1200"/>
<path d="M28 56.3377H37.3333V65.671H28V56.3377Z" fill="#8C1200"/>
<path d="M9.33333 56.3377H18.6667V65.671H9.33333V56.3377Z" fill="#8C1200"/>
<path d="M18.6667 56.3377H28V65.671H18.6667V56.3377Z" fill="#8C1200"/>
<path d="M18.6667 47.0043H28V56.3377H18.6667V47.0043Z" fill="#8C1200"/>
<path d="M9.33333 47.0043H18.6667V56.3377H9.33333V47.0043Z" fill="#8C1200"/>
<path d="M18.6667 47.0043H28V56.3377H18.6667V47.0043Z" fill="#7EC928"/>
<path d="M84 9.67098H93.3333V19.0043H84V9.67098Z" fill="black"/>
</svg>
