<svg width="76" height="130" viewBox="0 0 76 130" fill="none" xmlns="http://www.w3.org/2000/svg">
<path d="M0 119.171H10.8333V130.004H0V119.171Z" fill="black"/>
<path d="M10.8333 119.171H21.6667V130.004H10.8333V119.171Z" fill="black"/>
<path d="M21.6667 119.171H32.5V130.004H21.6667V119.171Z" fill="black"/>
<path d="M32.5 119.171H43.3333V130.004H32.5V119.171Z" fill="black"/>
<path d="M43.3333 119.171H54.1667V130.004H43.3333V119.171Z" fill="black"/>
<path d="M54.1667 119.171H65V130.004H54.1667V119.171Z" fill="black"/>
<path d="M32.5 108.338H43.3333V119.171H32.5V108.338Z" fill="black"/>
<path d="M32.5 97.5044H43.3333V108.338H32.5V97.5044Z" fill="black"/>
<path d="M32.5 86.6711H43.3333V97.5044H32.5V86.6711Z" fill="black"/>
<path d="M65 119.171H75.8333V130.004H65V119.171Z" fill="black"/>
<path d="M21.6667 75.8377H32.5V86.6711H21.6667V75.8377Z" fill="black"/>
<path d="M32.5 75.8377H43.3333V86.6711H32.5V75.8377Z" fill="black"/>
<path d="M43.3333 75.8377H54.1667V86.6711H43.3333V75.8377Z" fill="black"/>
<path d="M54.1667 65.0044H65V75.8377H54.1667V65.0044Z" fill="black"/>
<path d="M10.8333 65.0044H21.6667V75.8377H10.8333V65.0044Z" fill="black"/>
<path d="M0 54.1711H10.8333V65.0044H0V54.1711Z" fill="black"/>
<path d="M0 43.3377H10.8333V54.1711H0V43.3377Z" fill="black"/>
<path d="M0 32.5044H10.8333V43.3377H0V32.5044Z" fill="black"/>
<path d="M0 21.6711H10.8333V32.5044H0V21.6711Z" fill="black"/>
<path d="M0 10.8377H10.8333V21.6711H0V10.8377Z" fill="black"/>
<path d="M65 10.8377H75.8333V21.6711H65V10.8377Z" fill="black"/>
<path d="M65 21.6711H75.8333V32.5044H65V21.6711Z" fill="black"/>
<path d="M65 32.5044H75.8333V43.3377H65V32.5044Z" fill="black"/>
<path d="M65 43.3377H75.8333V54.1711H65V43.3377Z" fill="black"/>
<path d="M65 54.1711H75.8333V65.0044H65V54.1711Z" fill="black"/>
<path d="M65 0.00439453H75.8333V10.8377H65V0.00439453Z" fill="black"/>
<path d="M54.1667 0.00439453H65V10.8377H54.1667V0.00439453Z" fill="black"/>
<path d="M43.3333 0.00439453H54.1667V10.8377H43.3333V0.00439453Z" fill="black"/>
<path d="M32.5 0.00439453H43.3333V10.8377H32.5V0.00439453Z" fill="black"/>
<path d="M21.6667 0.00439453H32.5V10.8377H21.6667V0.00439453Z" fill="black"/>
<path d="M10.8333 0.00439453H21.6667V10.8377H10.8333V0.00439453Z" fill="black"/>
<path d="M0 0.00439453H10.8333V10.8377H0V0.00439453Z" fill="black"/>
<path d="M10.8333 32.5044H21.6667V43.3377H10.8333V32.5044Z" fill="#FE0002"/>
<path d="M21.6667 32.5044H32.5V43.3377H21.6667V32.5044Z" fill="white"/>
<path d="M32.5 32.5044H43.3333V43.3377H32.5V32.5044Z" fill="#FE0002"/>
<path d="M43.3333 32.5044H54.1667V43.3377H43.3333V32.5044Z" fill="#FE0002"/>
<path d="M54.1667 32.5044H65V43.3377H54.1667V32.5044Z" fill="#FE0002"/>
<path d="M54.1667 43.3377H65V54.1711H54.1667V43.3377Z" fill="#FE0002"/>
<path d="M54.1667 54.1711H65V65.0044H54.1667V54.1711Z" fill="#FE0002"/>
<path d="M43.3333 54.1711H54.1667V65.0044H43.3333V54.1711Z" fill="#FE0002"/>
<path d="M32.5 54.1711H43.3333V65.0044H32.5V54.1711Z" fill="#FE0002"/>
<path d="M21.6667 54.1711H32.5V65.0044H21.6667V54.1711Z" fill="#FE0002"/>
<path d="M10.8333 54.1711H21.6667V65.0044H10.8333V54.1711Z" fill="#FE0002"/>
<path d="M10.8333 43.3377H21.6667V54.1711H10.8333V43.3377Z" fill="#FE0002"/>
<path d="M21.6667 43.3377H32.5V54.1711H21.6667V43.3377Z" fill="#FE0002"/>
<path d="M32.5 43.3377H43.3333V54.1711H32.5V43.3377Z" fill="#FE0002"/>
<path d="M43.3333 43.3377H54.1667V54.1711H43.3333V43.3377Z" fill="#FE0002"/>
<path d="M43.3333 65.0044H54.1667V75.8377H43.3333V65.0044Z" fill="#FE0002"/>
<path d="M32.5 65.0044H43.3333V75.8377H32.5V65.0044Z" fill="#FE0002"/>
<path d="M21.6667 65.0044H32.5V75.8377H21.6667V65.0044Z" fill="#FE0002"/>
<path d="M10.8333 10.8377H21.6667V21.6711H10.8333V10.8377Z" fill="#A5E1FF"/>
<path d="M21.6667 10.8377H32.5V21.6711H21.6667V10.8377Z" fill="#A5E1FF"/>
<path d="M32.5 10.8377H43.3333V21.6711H32.5V10.8377Z" fill="#A5E1FF"/>
<path d="M43.3333 10.8377H54.1667V21.6711H43.3333V10.8377Z" fill="#A5E1FF"/>
<path d="M54.1667 10.8377H65V21.6711H54.1667V10.8377Z" fill="#A5E1FF"/>
<path d="M54.1667 21.6711H65V32.5044H54.1667V21.6711Z" fill="#A5E1FF"/>
<path d="M43.3333 21.6711H54.1667V32.5044H43.3333V21.6711Z" fill="#A5E1FF"/>
<path d="M32.5 21.6711H43.3333V32.5044H32.5V21.6711Z" fill="#A5E1FF"/>
<path d="M21.6667 21.6711H32.5V32.5044H21.6667V21.6711Z" fill="white"/>
<path d="M10.8333 21.6711H21.6667V32.5044H10.8333V21.6711Z" fill="#A5E1FF"/>
</svg>
