<svg xmlns="http://www.w3.org/2000/svg" viewBox="0 -0.5 29 29" shape-rendering="crispEdges">
<metadata>Made with Pixels to Svg https://codepen.io/shshaw/pen/XbxvNj</metadata>
<path stroke="#000000" d="M6 8h4M3 9h3M10 9h3M0 10h3M13 10h4M0 11h1M15 11h1M1 12h1M14 12h10M1 13h1M13 13h2M24 13h1M2 14h1M25 14h1M2 15h1M25 15h1M2 16h1M26 16h1M3 17h1M26 17h1M4 18h4M27 18h1M4 19h1M27 19h1M2 20h2M27 20h1M1 21h1M27 21h1M0 22h1M27 22h1M0 23h26M27 23h1M25 24h1M27 24h1M19 25h6M27 25h1M19 26h1M22 26h1M26 26h2M19 27h1M24 27h3M20 28h5" />
<path stroke="#555555" d="M6 9h1M8 9h2M3 10h2M11 10h2M1 11h1M14 11h1M2 12h1M13 12h1M2 13h1M17 13h1M20 13h1M17 14h1M20 14h1M17 15h1M20 15h1M3 16h1M20 16h1M4 17h2M7 17h3M20 17h1M19 20h2M25 20h1M7 21h1M17 21h2M25 21h1M5 22h2M15 22h2M23 22h3M25 25h1M24 26h1" />
<path stroke="#a8a8a8" d="M7 9h1M5 10h6M2 11h12M3 12h10M3 13h10M15 13h2M18 13h2M21 13h3M3 14h14M18 14h2M21 14h4M3 15h14M18 15h2M21 15h4M4 16h16M21 16h5M6 17h1M10 17h10M21 17h5M8 18h19M5 19h22M4 20h15M21 20h4M26 20h1M2 21h5M8 21h9M19 21h6M26 21h1M1 22h4M7 22h8M17 22h6M26 22h1M26 23h1M26 24h1M26 25h1M20 26h2M23 26h1M25 26h1M20 27h4" />
</svg>