<svg xmlns="http://www.w3.org/2000/svg" viewBox="0 -0.5 29 29" shape-rendering="crispEdges">
<metadata>Made with Pixels to Svg https://codepen.io/shshaw/pen/XbxvNj</metadata>
<path stroke="#000000" d="M6 8h4M3 9h3M10 9h3M0 10h3M13 10h4M0 11h1M15 11h1M1 12h1M14 12h10M1 13h1M13 13h2M24 13h1M2 14h1M25 14h1M2 15h1M25 15h1M2 16h1M26 16h1M3 17h1M26 17h1M4 18h4M27 18h1M4 19h1M27 19h1M2 20h2M27 20h1M1 21h1M27 21h1M0 22h1M27 22h1M0 23h26M27 23h1M25 24h1M27 24h1M19 25h6M27 25h1M19 26h1M22 26h1M26 26h2M19 27h1M24 27h3M20 28h5" />
<path stroke="#ffe69e" d="M6 9h4M3 10h10M1 11h14M2 12h12M2 13h11M23 13h1M3 14h9M23 14h2M3 15h8M24 15h1M3 16h7M18 16h1M24 16h2M4 17h7M16 17h5M25 17h1M8 18h4M15 18h7M24 18h3M5 19h22M4 20h15M21 20h4M26 20h1M2 21h5M8 21h9M19 21h6M26 21h1M1 22h4M7 22h8M17 22h6M26 22h1M26 23h1M26 24h1M25 25h2M20 26h2M23 26h3M20 27h4" />
<path stroke="#ff922d" d="M15 13h3M21 13h2M14 14h4M21 14h2M13 15h5M21 15h3M10 16h8M21 16h3M11 17h5M21 17h4M12 18h3M22 18h2" />
<path stroke="#808080" d="M18 13h3M12 14h2M18 14h3M11 15h2M18 15h3M19 16h2" />
<path stroke="#c1ae78" d="M19 20h2M25 20h1M7 21h1M17 21h2M25 21h1M5 22h2M15 22h2M23 22h3" />
</svg>