<svg xmlns="http://www.w3.org/2000/svg" viewBox="0 -0.5 29 29" shape-rendering="crispEdges">
<metadata>Made with Pixels to Svg https://codepen.io/shshaw/pen/XbxvNj</metadata>
<path stroke="#000000" d="M20 3h2M19 4h1M22 4h2M19 5h1M24 5h1M20 6h3M25 6h1M23 7h1M25 7h1M23 8h1M26 8h1M24 9h1M26 9h1M9 10h1M13 10h1M17 10h1M21 10h1M24 10h1M26 10h1M8 11h1M10 11h1M12 11h1M14 11h1M16 11h1M18 11h1M20 11h1M22 11h1M24 11h1M26 11h1M8 12h1M10 12h2M14 12h2M18 12h2M22 12h1M24 12h1M26 12h1M7 13h1M23 13h1M26 13h1M5 14h5M26 14h1M4 15h1M10 15h1M26 15h1M3 16h1M11 16h1M26 16h1M2 17h1M12 17h1M26 17h1M2 18h1M26 18h1M1 19h1M26 19h1M1 20h1M26 20h1M2 21h1M13 21h1M25 21h1M1 22h1M14 22h1M24 22h2M1 23h23" />
<path stroke="#5b5b5b" d="M20 4h2M20 5h4M23 6h2M24 7h1M24 8h2M25 9h1M25 10h1M25 11h1M25 12h1M9 13h1M13 13h1M16 13h2M20 13h2M25 13h1M12 14h11M24 14h2M13 15h13M5 16h6M14 16h12M4 17h8M13 17h12M3 18h22M3 19h23M3 20h22M3 21h10M14 21h10M6 22h2M9 22h1" />
<path stroke="#404040" d="M9 11h1M13 11h1M17 11h1M21 11h1M9 12h1M12 12h2M16 12h2M20 12h2M8 13h1M12 13h1M14 13h2M18 13h2M22 13h1M24 13h1M23 14h1M5 15h5M4 16h1M3 17h1M25 17h1M25 18h1M2 19h1M2 20h1M25 20h1M24 21h1M2 22h4M8 22h1M10 22h4M15 22h9" />
<path stroke="#ddc76e" d="M10 13h2" />
<path stroke="#ffe97f" d="M10 14h2M11 15h2M12 16h2" />
</svg>