<svg xmlns="http://www.w3.org/2000/svg" viewBox="0 -0.5 29 29" shape-rendering="crispEdges">
<metadata>Made with Pixels to Svg https://codepen.io/shshaw/pen/XbxvNj</metadata>
<path stroke="#000000" d="M20 3h2M19 4h1M22 4h2M19 5h1M24 5h1M20 6h3M25 6h1M23 7h1M25 7h1M23 8h1M26 8h1M24 9h1M26 9h1M9 10h1M13 10h1M17 10h1M21 10h1M24 10h1M26 10h1M8 11h1M10 11h1M12 11h1M14 11h1M16 11h1M18 11h1M20 11h1M22 11h1M24 11h1M26 11h1M8 12h1M10 12h2M14 12h2M18 12h2M22 12h1M24 12h1M26 12h1M7 13h1M23 13h1M26 13h1M5 14h5M26 14h1M4 15h1M10 15h1M26 15h1M3 16h1M11 16h1M26 16h1M2 17h1M12 17h1M26 17h1M2 18h1M26 18h1M1 19h1M26 19h1M1 20h1M26 20h1M2 21h1M13 21h1M25 21h1M1 22h1M14 22h1M24 22h2M1 23h23" />
<path stroke="#ff922d" d="M20 4h2M20 5h4M24 7h1M25 9h1M25 10h1M25 11h1M25 12h1M9 13h1M12 13h2M16 13h2M20 13h2M24 13h2M13 14h10M24 14h2M14 15h12M5 16h5M14 16h12M3 17h9M13 17h13M3 18h23M2 19h16M19 19h7M2 20h15M19 20h1M21 20h4M3 21h10M14 21h3M21 21h3M4 22h1M7 22h3M11 22h1" />
<path stroke="#d17825" d="M23 6h2M24 8h2M18 19h1M18 20h1M20 20h1M18 21h1M20 21h1M16 22h1M18 22h1M20 22h1" />
<path stroke="#ffe69e" d="M9 11h1M13 11h1M17 11h1M9 12h1M13 12h1M17 12h1M21 12h1M10 13h2M10 14h3M11 15h3M12 16h2" />
<path stroke="#c1ae78" d="M21 11h1M12 12h1M16 12h1M20 12h1M8 13h1M14 13h2M18 13h2M22 13h1M23 14h1M5 15h5M4 16h1M10 16h1" />
<path stroke="#e58429" d="M17 20h1M25 20h1M17 21h1M19 21h1M24 21h1M2 22h2M5 22h2M10 22h1M12 22h2M15 22h1M17 22h1M19 22h1M21 22h3" />
</svg>