<svg xmlns="http://www.w3.org/2000/svg" viewBox="0 -0.5 29 29" shape-rendering="crispEdges">
<metadata>Made with Pixels to Svg https://codepen.io/shshaw/pen/XbxvNj</metadata>
<path stroke="#000000" d="M20 3h2M19 4h1M22 4h2M19 5h1M24 5h1M20 6h3M25 6h1M23 7h1M25 7h1M23 8h1M26 8h1M24 9h1M26 9h1M9 10h1M13 10h1M17 10h1M21 10h1M24 10h1M26 10h1M8 11h1M10 11h1M12 11h1M14 11h1M16 11h1M18 11h1M20 11h1M22 11h1M24 11h1M26 11h1M8 12h1M10 12h2M14 12h2M18 12h2M22 12h1M24 12h1M26 12h1M7 13h1M23 13h1M26 13h1M5 14h5M26 14h1M4 15h1M10 15h1M26 15h1M3 16h1M11 16h1M26 16h1M2 17h1M12 17h1M26 17h1M2 18h1M26 18h1M1 19h1M26 19h1M1 20h1M26 20h1M2 21h1M13 21h1M25 21h1M1 22h1M14 22h1M24 22h2M1 23h23" />
<path stroke="#ffe69e" d="M20 4h2M20 5h4M23 6h2M24 7h1M24 8h2M25 9h1M25 10h1M25 11h1M9 12h1M13 12h1M17 12h1M21 12h1M25 12h1M9 13h1M12 13h2M16 13h2M20 13h2M24 13h2M10 14h13M24 14h2M11 15h15M5 16h5M12 16h14M3 17h9M13 17h2M17 17h9M3 18h11M18 18h4M23 18h3M2 19h13M19 19h2M24 19h2M2 20h12M24 20h2M3 21h10M24 21h1M2 22h1M6 22h2M9 22h1M13 22h1M23 22h1" />
<path stroke="#c1ae78" d="M9 11h1M13 11h1M17 11h1M21 11h1M12 12h1M16 12h1M20 12h1M8 13h1M10 13h2M14 13h2M18 13h2M22 13h1M23 14h1M5 15h5M4 16h1M10 16h1" />
<path stroke="#ff922d" d="M15 17h2M14 18h4M22 18h1M15 19h4M21 19h3M15 20h3M21 20h3M15 21h3M21 21h3M15 22h3M20 22h3" />
<path stroke="#808080" d="M14 20h1M18 20h3M14 21h1M18 21h3M18 22h2" />
<path stroke="#555555" d="M3 22h3M8 22h1M10 22h3" />
</svg>