<svg xmlns="http://www.w3.org/2000/svg" viewBox="0 -0.5 29 29" shape-rendering="crispEdges">
<metadata>Made with Pixels to Svg https://codepen.io/shshaw/pen/XbxvNj</metadata>
<path stroke="#000000" d="M18 3h4M17 4h1M22 4h2M17 5h1M20 5h1M24 5h1M18 6h2M21 6h2M25 6h1M5 7h1M13 7h1M23 7h1M25 7h1M4 8h1M6 8h1M12 8h1M14 8h1M24 8h1M26 8h1M4 9h1M7 9h5M14 9h1M24 9h1M26 9h1M3 10h1M14 10h1M20 10h5M26 10h1M3 11h1M14 11h1M17 11h3M26 11h1M2 12h1M14 12h3M27 12h1M2 13h1M27 13h1M2 14h1M27 14h1M2 15h1M27 15h1M2 16h1M27 16h1M2 17h1M27 17h1M3 18h1M27 18h1M3 19h1M27 19h1M2 20h1M26 20h1M1 21h1M26 21h1M0 22h1M19 22h1M22 22h1M25 22h1M0 23h19M20 23h2M23 23h2" />
<path stroke="#a8a8a8" d="M18 4h4M18 5h2M21 5h1M23 5h1M23 6h2M25 8h1M5 9h1M13 9h1M25 9h1M4 10h3M9 10h1M12 10h2M25 10h1M4 11h9M21 11h5M3 12h10M18 12h2M21 12h6M3 13h10M16 13h1M18 13h2M21 13h6M3 14h14M18 14h2M21 14h6M3 15h14M18 15h2M21 15h6M3 16h24M3 17h24M4 18h22M4 19h22M3 20h16M20 20h5M2 21h3M6 21h11M20 21h2M23 21h2M1 22h3M6 22h8M21 22h1M23 22h1" />
<path stroke="#555555" d="M22 5h1M24 7h1M5 8h1M13 8h1M6 9h1M12 9h1M7 10h2M10 10h2M13 11h1M20 11h1M13 12h1M17 12h1M20 12h1M13 13h3M17 13h1M20 13h1M17 14h1M20 14h1M17 15h1M20 15h1M26 18h1M26 19h1M19 20h1M25 20h1M5 21h1M17 21h3M22 21h1M25 21h1M4 22h2M14 22h5M20 22h1M24 22h1" />
</svg>