<svg xmlns="http://www.w3.org/2000/svg" viewBox="0 -0.5 29 29" shape-rendering="crispEdges">
<metadata>Made with Pixels to Svg https://codepen.io/shshaw/pen/XbxvNj</metadata>
<path stroke="#000000" d="M18 3h4M17 4h1M22 4h2M17 5h1M20 5h1M24 5h1M18 6h2M21 6h2M25 6h1M5 7h1M13 7h1M23 7h1M25 7h1M4 8h1M6 8h1M12 8h1M14 8h1M24 8h1M26 8h1M4 9h1M7 9h5M14 9h1M24 9h1M26 9h1M3 10h1M14 10h1M20 10h5M26 10h1M3 11h1M14 11h1M17 11h3M26 11h1M2 12h1M14 12h3M27 12h1M2 13h1M27 13h1M2 14h1M27 14h1M2 15h1M27 15h1M2 16h1M27 16h1M2 17h1M27 17h1M3 18h1M27 18h1M3 19h1M27 19h1M2 20h1M26 20h1M1 21h1M26 21h1M0 22h1M19 22h1M22 22h1M25 22h1M0 23h19M20 23h2M23 23h2" />
<path stroke="#ff922d" d="M18 4h4M18 5h2M21 5h1M23 6h2M25 8h1M5 9h1M13 9h1M25 9h1M5 10h2M9 10h2M12 10h2M25 10h1M4 11h10M24 11h2M4 12h10M19 12h1M22 12h5M4 13h12M19 13h1M21 13h6M3 14h14M19 14h8M3 15h14M18 15h9M3 16h24M3 17h24M4 18h4M12 18h14M4 19h3M14 19h9M24 19h2M5 20h1M9 20h11M21 20h1M24 20h1M4 21h1M12 21h7M20 21h1M23 21h1M11 22h7" />
<path stroke="#e58429" d="M22 5h2M24 7h1M5 8h1M13 8h1M6 9h1M12 9h1M4 10h1M7 10h2M11 10h1M21 11h3M3 12h1M18 12h1M21 12h1M3 13h1M16 13h1M18 13h1M18 14h1M23 19h1M3 20h2M8 20h1M20 20h1M22 20h2M3 21h1M7 21h1M11 21h1M19 21h1M3 22h1M6 22h1M10 22h1M18 22h1" />
<path stroke="#d17825" d="M20 11h1M17 12h1M20 12h1M17 13h1M20 13h1M17 14h1M17 15h1" />
<path stroke="#ffe69e" d="M8 18h4M7 19h7M6 20h2M2 21h1M5 21h2M8 21h3M21 21h1M24 21h1M1 22h2M4 22h2M7 22h3M21 22h1M23 22h1" />
<path stroke="#c1ae78" d="M26 18h1M26 19h1M25 20h1M22 21h1M25 21h1M20 22h1M24 22h1" />
</svg>