<svg xmlns="http://www.w3.org/2000/svg" viewBox="0 -0.5 29 29" shape-rendering="crispEdges">
<metadata>Made with Pixels to Svg https://codepen.io/shshaw/pen/XbxvNj</metadata>
<path stroke="#000000" d="M6 8h4M3 9h3M10 9h3M0 10h3M13 10h4M0 11h1M15 11h1M1 12h1M14 12h10M1 13h1M13 13h2M24 13h1M2 14h1M25 14h1M2 15h1M25 15h1M2 16h1M26 16h1M3 17h1M26 17h1M4 18h4M27 18h1M4 19h1M27 19h1M2 20h2M27 20h1M1 21h1M27 21h1M0 22h1M27 22h1M0 23h26M27 23h1M25 24h1M27 24h1M19 25h6M27 25h1M19 26h1M22 26h1M26 26h2M19 27h1M24 27h3M20 28h5" />
<path stroke="#404040" d="M6 9h1M8 9h2M3 10h3M10 10h3M1 11h2M13 11h2M2 12h1M13 12h1M2 13h1M15 13h9M12 14h2M24 14h1M3 15h1M24 15h1M3 16h1M25 16h1M4 17h2M25 17h1M8 18h3M23 18h1M26 18h1M5 19h1M8 19h1M22 19h1M26 19h1M4 20h1M7 20h1M11 20h1M14 20h1M20 20h3M26 20h1M2 21h2M6 21h1M9 21h2M13 21h1M20 21h1M1 22h1M5 22h1M8 22h1M12 22h14M26 24h1M24 26h2M21 27h3" />
<path stroke="#5b5b5b" d="M7 9h1M6 10h4M3 11h10M3 12h10M3 13h10M3 14h9M14 14h10M4 15h20M4 16h21M6 17h19M11 18h12M24 18h2M6 19h2M12 19h10M23 19h3M5 20h2M12 20h2M15 20h5M23 20h3M4 21h2M11 21h2M14 21h6M21 21h6M2 22h3M9 22h3M26 22h1M26 23h1M25 25h2M20 26h2M23 26h1M20 27h1" />
<path stroke="#ffe97f" d="M9 19h3M8 20h3M7 21h2" />
<path stroke="#ddc76e" d="M6 22h2" />
</svg>