<svg xmlns="http://www.w3.org/2000/svg" viewBox="0 -0.5 29 29" shape-rendering="crispEdges">
<metadata>Made with Pixels to Svg https://codepen.io/shshaw/pen/XbxvNj</metadata>
<path stroke="#000000" d="M6 8h4M3 9h3M10 9h3M0 10h3M13 10h4M0 11h1M15 11h1M1 12h1M14 12h10M1 13h1M13 13h2M24 13h1M2 14h1M25 14h1M2 15h1M25 15h1M2 16h1M26 16h1M3 17h1M26 17h1M4 18h4M27 18h1M4 19h1M27 19h1M2 20h2M27 20h1M1 21h1M27 21h1M0 22h1M27 22h1M0 23h26M27 23h1M25 24h1M27 24h1M19 25h6M27 25h1M19 26h1M22 26h1M26 26h2M19 27h1M24 27h3M20 28h5" />
<path stroke="#e58429" d="M6 9h1M8 9h2M3 10h2M11 10h2M1 11h2M13 11h2M3 16h1M4 17h2M5 19h1M4 20h1M12 20h1M17 20h1M23 20h1M5 21h1M10 21h2M15 21h2M21 21h1M3 22h2M9 22h1M13 22h2M19 22h3M25 25h1M23 26h1M25 26h1M23 27h1" />
<path stroke="#ff922d" d="M7 9h1M5 10h6M3 11h10M2 12h12M2 13h11M15 13h2M18 13h2M21 13h3M3 14h14M18 14h2M21 14h4M3 15h14M18 15h2M21 15h4M4 16h13M18 16h8M6 17h20M8 18h19M10 19h17M5 20h1M8 20h4M13 20h4M18 20h1M21 20h2M26 20h1M6 21h1M12 21h3M26 21h1M10 22h3M26 22h1M26 23h1M26 24h1M26 25h1M20 26h2M24 26h1M20 27h3" />
<path stroke="#d17825" d="M17 13h1M20 13h1M17 14h1M20 14h1M17 15h1M20 15h1M17 16h1" />
<path stroke="#ffe69e" d="M6 19h4M6 20h2M24 20h1M2 21h3M8 21h2M19 21h2M22 21h3M1 22h2M7 22h2M17 22h2M22 22h1" />
<path stroke="#c1ae78" d="M19 20h2M25 20h1M7 21h1M17 21h2M25 21h1M5 22h2M15 22h2M23 22h3" />
</svg>