<svg xmlns="http://www.w3.org/2000/svg" viewBox="0 -0.5 29 29" shape-rendering="crispEdges">
<metadata>Made with Pixels to Svg https://codepen.io/shshaw/pen/XbxvNj</metadata>
<path stroke="#000000" d="M18 3h4M17 4h1M22 4h2M17 5h1M20 5h1M24 5h1M18 6h2M21 6h2M25 6h1M5 7h1M13 7h1M23 7h1M25 7h1M4 8h1M6 8h1M12 8h1M14 8h1M24 8h1M26 8h1M4 9h1M7 9h5M14 9h1M24 9h1M26 9h1M3 10h1M14 10h1M20 10h5M26 10h1M3 11h1M14 11h1M17 11h3M26 11h1M2 12h1M14 12h3M27 12h1M2 13h1M27 13h1M2 14h1M27 14h1M2 15h1M27 15h1M2 16h1M27 16h1M2 17h1M27 17h1M3 18h1M27 18h1M3 19h1M27 19h1M2 20h1M26 20h1M1 21h1M26 21h1M0 22h1M19 22h1M22 22h1M25 22h1M0 23h19M20 23h2M23 23h2" />
<path stroke="#ff8d47" d="M18 4h3M18 5h2M5 8h1M13 8h1M5 9h2M12 9h2M4 10h2M13 10h1M2 21h2M8 21h2M20 21h1M23 21h1M1 22h2M7 22h2M20 22h1M23 22h1" />
<path stroke="#c1ae78" d="M21 4h1M23 5h1M24 7h1M7 10h2M10 10h1M20 11h3M3 12h1M17 12h2M3 13h1M3 14h1M3 15h1M3 16h1M3 17h1M4 18h1M4 19h1M3 20h1M5 20h2M12 20h2M19 20h1M22 20h1M25 20h1M5 21h1M11 21h2M19 21h1M22 21h1M25 21h1M4 22h1M10 22h2" />
<path stroke="#ffe97f" d="M21 5h2M23 6h2M25 8h1M25 9h1M6 10h1M9 10h1M11 10h2M25 10h1M4 11h10M23 11h3M4 12h10M19 12h8M4 13h23M4 14h23M4 15h23M4 16h23M4 17h23M5 18h22M5 19h22M4 20h1M7 20h5M14 20h5M20 20h2M23 20h2M6 21h2M13 21h6M12 22h7" />
<path stroke="#e57f40" d="M4 21h1M10 21h1M21 21h1M24 21h1M3 22h1M9 22h1M21 22h1M24 22h1" />
<path stroke="#ddc76e" d="M5 22h2" />
</svg>