<svg xmlns="http://www.w3.org/2000/svg" viewBox="0 -0.5 29 29" shape-rendering="crispEdges">
<metadata>Made with Pixels to Svg https://codepen.io/shshaw/pen/XbxvNj</metadata>
<path stroke="#000000" d="M18 3h4M17 4h1M22 4h2M17 5h1M20 5h1M24 5h1M18 6h2M21 6h2M25 6h1M5 7h1M13 7h1M23 7h1M25 7h1M4 8h1M6 8h1M12 8h1M14 8h1M24 8h1M26 8h1M4 9h1M7 9h5M14 9h1M24 9h1M26 9h1M3 10h1M14 10h1M20 10h5M26 10h1M3 11h1M14 11h1M17 11h3M26 11h1M2 12h1M14 12h3M27 12h1M2 13h1M27 13h1M2 14h1M27 14h1M2 15h1M27 15h1M2 16h1M27 16h1M2 17h1M27 17h1M3 18h1M27 18h1M3 19h1M27 19h1M2 20h1M26 20h1M1 21h1M26 21h1M0 22h1M19 22h1M22 22h1M25 22h1M0 23h19M20 23h2M23 23h2" />
<path stroke="#ffe69e" d="M18 4h4M18 5h2M21 5h3M23 6h2M24 7h1M5 8h1M13 8h1M25 8h1M5 9h2M12 9h2M25 9h1M4 10h10M25 10h1M4 11h10M25 11h1M3 12h11M25 12h2M3 13h11M25 13h2M3 14h11M26 14h1M3 15h10M21 15h1M26 15h1M4 16h8M19 16h4M25 16h2M6 17h6M18 17h9M7 18h5M16 18h10M7 19h19M3 20h16M20 20h5M2 21h3M6 21h11M20 21h2M23 21h2M1 22h3M6 22h8M21 22h1M23 22h1" />
<path stroke="#808080" d="M20 11h3M19 12h4M14 13h2M19 13h3M14 14h1M19 14h3M13 15h1M18 15h3M18 16h1" />
<path stroke="#ff922d" d="M23 11h2M17 12h2M23 12h2M16 13h3M22 13h3M15 14h4M22 14h4M14 15h4M22 15h4M3 16h1M12 16h6M23 16h2M3 17h3M12 17h6M4 18h3M12 18h4M4 19h3" />
<path stroke="#c1ae78" d="M26 18h1M26 19h1M19 20h1M25 20h1M5 21h1M17 21h3M22 21h1M25 21h1M4 22h2M14 22h5M20 22h1M24 22h1" />
</svg>