<svg xmlns="http://www.w3.org/2000/svg" viewBox="0 -0.5 29 29" shape-rendering="crispEdges">
<metadata>Made with Pixels to Svg https://codepen.io/shshaw/pen/XbxvNj</metadata>
<path stroke="#000000" d="M6 8h1M13 8h1M5 9h1M7 9h1M12 9h1M14 9h1M5 10h1M8 10h4M14 10h1M23 10h2M4 11h1M15 11h1M22 11h1M25 11h1M4 12h1M15 12h1M22 12h1M25 12h1M3 13h1M16 13h4M23 13h1M25 13h1M3 14h1M20 14h1M23 14h1M25 14h1M3 15h1M21 15h3M25 15h1M3 16h1M24 16h1M3 17h1M24 17h1M3 18h1M23 18h1M3 19h1M23 19h1M3 20h1M23 20h1M3 21h1M23 21h1M4 22h1M22 22h1M5 23h1M21 23h1M6 24h1M8 24h2M11 24h5M17 24h2M20 24h1M6 25h2M10 25h2M15 25h2M19 25h2" />
<path stroke="#404040" d="M6 9h1M13 9h1M6 10h2M12 10h2M5 11h1M13 11h2M15 13h1M15 14h1M18 14h2M15 15h1M20 15h1M6 16h6M14 16h1M4 17h2M12 17h2M4 19h1M4 20h1M22 20h1M4 21h1M22 21h1M5 22h1M21 22h1M6 23h1M11 23h1M15 23h1M17 23h2M20 23h1" />
<path stroke="#5b5b5b" d="M6 11h7M23 11h2M5 12h1M7 12h1M11 12h1M13 12h2M23 12h2M24 13h1M5 14h1M13 14h1M16 14h2M24 14h1M7 15h5M16 15h4M24 15h1M4 16h1M12 16h1M15 16h9M6 17h6M14 17h10M4 18h4M10 18h13M5 19h2M11 19h12M5 20h3M10 20h12M5 21h3M10 21h12M6 22h2M10 22h11M7 23h1M10 23h1M12 23h3M16 23h1M19 23h1M7 24h1M10 24h1M16 24h1M19 24h1" />
<path stroke="#777777" d="M6 12h1M8 12h3M12 12h1M4 13h11M4 14h1M6 14h7M14 14h1M4 15h3M12 15h3M5 16h1M13 16h1" />
<path stroke="#ffe97f" d="M8 18h2M7 19h4M8 20h2M8 21h2M8 22h2" />
<path stroke="#ddc76e" d="M8 23h2" />
</svg>