<svg xmlns="http://www.w3.org/2000/svg" viewBox="0 -0.5 29 29" shape-rendering="crispEdges">
<metadata>Made with Pixels to Svg https://codepen.io/shshaw/pen/XbxvNj</metadata>
<path stroke="#000000" d="M6 8h1M13 8h1M5 9h1M7 9h1M12 9h1M14 9h1M5 10h1M8 10h4M14 10h1M23 10h2M4 11h1M15 11h1M22 11h1M25 11h1M4 12h1M15 12h1M22 12h1M25 12h1M3 13h1M16 13h4M23 13h1M25 13h1M3 14h1M20 14h1M23 14h1M25 14h1M3 15h1M21 15h3M25 15h1M3 16h1M24 16h1M3 17h1M24 17h1M3 18h1M23 18h1M3 19h1M23 19h1M3 20h1M23 20h1M3 21h1M23 21h1M4 22h1M22 22h1M5 23h1M21 23h1M6 24h1M8 24h2M11 24h5M17 24h2M20 24h1M6 25h2M10 25h2M15 25h2M19 25h2" />
<path stroke="#ff922d" d="M6 9h1M13 9h1M6 10h1M13 10h1M5 11h3M10 11h1M12 11h2M23 11h2M5 12h10M23 12h2M4 13h11M4 14h12M24 14h1M4 15h12M4 16h12M17 16h1M20 16h4M4 17h3M11 17h7M19 17h5M4 18h2M12 18h11M5 19h2M11 19h12M5 20h2M11 20h12M5 21h3M10 21h12M6 22h2M10 22h11M7 23h1M10 23h1M12 23h3M16 23h1M19 23h1" />
<path stroke="#e58429" d="M7 10h1M12 10h1M8 11h2M11 11h1M14 11h1M15 13h1M24 13h1M16 14h1M18 14h1M16 15h1M18 15h1M24 15h1M16 16h1M18 16h1M18 17h1" />
<path stroke="#d17825" d="M17 14h1M19 14h1M17 15h1M19 15h2M19 16h1M4 19h1M4 20h1M4 21h1M22 21h1M5 22h1M21 22h1M6 23h1M11 23h1M15 23h1M17 23h2M20 23h1" />
<path stroke="#ffe97f" d="M7 17h4M6 18h6M7 19h4M7 20h4M8 21h2M8 22h2M7 24h1M10 24h1M16 24h1M19 24h1" />
<path stroke="#ddc76e" d="M8 23h2" />
</svg>