<svg xmlns="http://www.w3.org/2000/svg" viewBox="0 -0.5 29 29" shape-rendering="crispEdges">
<metadata>Made with Pixels to Svg https://codepen.io/shshaw/pen/XbxvNj</metadata>
<path stroke="#000000" d="M6 8h4M3 9h3M10 9h3M0 10h3M13 10h4M0 11h1M15 11h1M1 12h1M14 12h10M1 13h1M13 13h2M24 13h1M2 14h1M25 14h1M2 15h1M25 15h1M2 16h1M26 16h1M3 17h1M26 17h1M4 18h4M27 18h1M4 19h1M27 19h1M2 20h2M27 20h1M1 21h1M27 21h1M0 22h1M27 22h1M0 23h26M27 23h1M25 24h1M27 24h1M19 25h6M27 25h1M19 26h1M22 26h1M26 26h2M19 27h1M24 27h3M20 28h5" />
<path stroke="#ffe97f" d="M6 9h4M4 10h8M4 11h8M3 12h10M2 13h11M15 13h9M3 14h22M3 15h22M3 16h23M4 17h22M8 18h19M5 19h22M4 20h17M23 20h4M5 21h5M12 21h8M24 21h3M4 22h2M8 22h1M12 22h8M24 22h3M26 23h1M26 24h1M25 25h2M23 26h3M23 27h1" />
<path stroke="#ff8d47" d="M3 10h1M12 10h1M2 11h2M12 11h2M2 12h1M13 12h1M21 20h2M2 21h2M10 21h1M21 21h2M1 22h1M9 22h2M21 22h2M20 26h2M20 27h3" />
<path stroke="#e57f40" d="M1 11h1M14 11h1M4 21h1M11 21h1M20 21h1M23 21h1M2 22h2M11 22h1M20 22h1M23 22h1" />
<path stroke="#ddc76e" d="M6 22h2" />
</svg>