<svg xmlns="http://www.w3.org/2000/svg" viewBox="0 -0.5 29 29" shape-rendering="crispEdges">
<metadata>Made with Pixels to Svg https://codepen.io/shshaw/pen/XbxvNj</metadata>
<path stroke="#ad6437" d="M6 4h8M7 5h6" />
<path stroke="#93552f" d="M5 5h1M14 5h1M5 6h2M13 6h2M6 7h8" />
<path stroke="#9e5b32" d="M6 5h1M13 5h1M7 6h6" />
<path stroke="#00d819" d="M16 5h1M15 6h2M14 7h2M14 8h1" />
<path stroke="#834d29" d="M5 7h1M5 8h9M6 10h8" />
<path stroke="#715b4d" d="M5 9h10" />
<path stroke="#b56939" d="M1 10h1M18 10h1" />
<path stroke="#a56035" d="M2 10h1M17 10h1" />
<path stroke="#995830" d="M3 10h1M16 10h1" />
<path stroke="#8e522d" d="M4 10h2M14 10h2" />
</svg>