<svg xmlns="http://www.w3.org/2000/svg" viewBox="0 -0.5 29 29" shape-rendering="crispEdges">
<metadata>Made with Pixels to Svg https://codepen.io/shshaw/pen/XbxvNj</metadata>
<path stroke="#782727" d="M16 12h3M15 13h1M19 13h1M14 14h2M19 14h1M13 15h2M19 15h1M4 16h10M18 16h1M4 17h3M16 17h2M4 18h12" />
<path stroke="#ad3939" d="M16 13h2M16 14h2M15 15h2M14 16h2M7 17h8" />
<path stroke="#872c2c" d="M18 13h1M18 14h1M17 15h2M16 16h2M15 17h1" />
<path stroke="#471919" d="M2 16h1M2 18h1" />
<path stroke="#592020" d="M3 16h1M3 17h1M3 18h1" />
</svg>