<svg xmlns="http://www.w3.org/2000/svg" viewBox="0 -0.5 29 29" shape-rendering="crispEdges">
<metadata>Made with Pixels to Svg https://codepen.io/shshaw/pen/XbxvNj</metadata>
<path stroke="#4cff00" d="M9 2h1M8 3h2M7 8h1M11 8h1" />
<path stroke="#40d600" d="M10 3h1M9 4h1" />
<path stroke="#ff00dc" d="M8 5h1M10 5h1" />
<path stroke="#ff48e5" d="M9 5h1" />
<path stroke="#0026ff" d="M8 6h1M10 6h1" />
<path stroke="#4863ff" d="M9 6h1" />
<path stroke="#00ffff" d="M7 7h1M11 7h1" />
<path stroke="#48ffff" d="M8 7h1M10 7h1" />
<path stroke="#7bffff" d="M9 7h1" />
<path stroke="#7eff48" d="M8 8h1M10 8h1" />
<path stroke="#a2ff7b" d="M9 8h1" />
<path stroke="#ffd800" d="M6 9h1M12 9h1" />
<path stroke="#ffe348" d="M7 9h2M10 9h2" />
<path stroke="#ffea7b" d="M9 9h1" />
<path stroke="#ff0000" d="M6 10h1M12 10h1" />
<path stroke="#ff4848" d="M7 10h1M11 10h1" />
<path stroke="#ff7b7b" d="M8 10h3" />
</svg>