<svg xmlns="http://www.w3.org/2000/svg" viewBox="0 -0.5 29 29" shape-rendering="crispEdges">
<metadata>Made with Pixels to Svg https://codepen.io/shshaw/pen/XbxvNj</metadata>
<path stroke="#ff9e9e" d="M6 5h8M7 6h6" />
<path stroke="#ff8282" d="M5 6h2M13 6h2M6 7h8" />
<path stroke="#ff6666" d="M5 7h1M14 7h1M4 8h12M4 9h2M15 9h1M3 10h1M16 10h1" />
<path stroke="#ffd800" d="M6 9h1M14 9h1M4 10h3M14 10h2M3 11h2M15 11h2" />
<path stroke="#ffdf42" d="M7 9h6" />
<path stroke="#ffd60c" d="M13 9h1" />
<path stroke="#ff0000" d="M7 10h7M5 11h4M12 11h3M3 12h3M14 12h3M2 13h2M16 13h2" />
</svg>