<svg xmlns="http://www.w3.org/2000/svg" viewBox="0 -0.5 29 29" shape-rendering="crispEdges">
<metadata>Made with Pixels to Svg https://codepen.io/shshaw/pen/XbxvNj</metadata>
<path stroke="#ff0000" d="M8 1h3M7 2h3M11 2h1M7 3h2M8 4h2M9 5h1" />
<path stroke="#000000" d="M4 6h11M3 7h1M15 7h1M2 8h1M16 8h1M1 9h1M17 9h1M1 10h1M5 10h2M12 10h2M17 10h1M1 11h1M4 11h1M7 11h1M11 11h1M14 11h1M17 11h1M1 12h1M4 12h1M8 12h3M14 12h1M17 12h1M1 13h1M4 13h1M14 13h1M17 13h1M1 14h1M5 14h1M13 14h1M17 14h1M1 15h1M5 15h1M13 15h1M17 15h1M2 16h1M5 16h1M13 16h1M16 16h1M3 17h3M13 17h3" />
<path stroke="#aaaaaa" d="M4 7h1M8 7h3M14 7h1M3 8h1M9 8h1M15 8h1M2 9h1M16 9h1M2 10h1M16 10h1M2 11h1M16 11h1M2 12h1M16 12h1M2 13h1M16 13h1M2 14h1M16 14h1M2 15h1M16 15h1M3 16h1M15 16h1" />
<path stroke="#c0c0c0" d="M5 7h3M11 7h3M4 8h5M10 8h5M3 9h13M3 10h2M7 10h5M14 10h2M3 11h1M8 11h3M15 11h1M3 12h1M15 12h1M3 13h1M15 13h1M3 14h2M14 14h2M3 15h2M14 15h2M4 16h1M14 16h1" />
</svg>