<svg width="208" height="166" viewBox="0 0 208 166" fill="none" xmlns="http://www.w3.org/2000/svg">
<g filter="url(#filter0_d_125_1235)">
<rect x="4" y="43.9306" width="9.24856" height="78.0347" fill="black"/>
<rect x="47.3527" y="27.1676" width="9.24856" height="34.6821" transform="rotate(-90 47.3527 27.1676)" fill="black"/>
<rect x="117.295" y="53.1792" width="9.24856" height="34.6821" transform="rotate(-90 117.295 53.1792)" fill="black"/>
<rect x="21.3411" y="9.24854" width="9.24856" height="17.9191" fill="black"/>
<rect x="98.7977" y="9.24854" width="9.24856" height="17.341" fill="black"/>
<rect x="177.988" y="87.2833" width="9.24856" height="35.2601" fill="black"/>
<rect x="194.751" y="26.5896" width="9.24856" height="44.5087" fill="black"/>
<rect x="187.237" y="69.3642" width="9.24856" height="17.9191" fill="black"/>
<rect x="177.988" y="43.9306" width="9.24856" height="17.9191" fill="black"/>
<rect x="167.006" y="27.1676" width="9.24856" height="17.9191" fill="black"/>
<rect x="30.0116" width="9.24856" height="9.24856" fill="black"/>
<rect x="38.682" y="9.24854" width="9.24856" height="9.24856" fill="black"/>
<rect x="29.4335" y="9.24854" width="9.24856" height="34.104" fill="#A8A8A8"/>
<rect x="90.7052" y="9.24854" width="9.24856" height="34.104" fill="#A8A8A8"/>
<rect x="38.682" y="136.994" width="9.24856" height="15.0289" fill="#A8A8A8"/>
<rect x="65.2716" y="135.838" width="9.24856" height="15.0289" fill="#A8A8A8"/>
<rect x="177.988" y="69.3642" width="9.24856" height="17.9191" fill="#A8A8A8"/>
<rect x="187.237" y="50.8671" width="7.51445" height="17.9191" fill="#A8A8A8"/>
<rect x="176.254" y="26.0115" width="18.4971" height="17.9191" fill="#A8A8A8"/>
<rect x="116.717" y="52.6011" width="35.2601" height="95.3757" fill="#A8A8A8"/>
<rect x="30.5896" y="139.306" width="35.2601" height="95.3757" transform="rotate(-90 30.5896 139.306)" fill="#A8A8A8"/>
<rect x="149.665" y="131.214" width="69.3642" height="28.3237" transform="rotate(-90 149.665 131.214)" fill="#A8A8A8"/>
<rect x="13.2485" y="27.1676" width="104.046" height="94.7977" fill="#A8A8A8"/>
<rect x="82.0347" y="43.3526" width="9.24856" height="9.24856" fill="black"/>
<rect x="82.0347" y="9.24854" width="9.24856" height="9.24856" fill="black"/>
<rect x="90.1272" width="9.24856" height="9.24856" fill="black"/>
<rect x="151.977" y="52.6011" width="9.24856" height="9.24856" fill="black"/>
<rect x="170.474" y="121.965" width="9.24856" height="9.24856" fill="black"/>
<rect x="161.225" y="131.214" width="9.24856" height="9.24856" fill="black"/>
<rect x="151.977" y="139.306" width="9.24856" height="9.24856" fill="black"/>
<rect x="56.0231" y="43.3526" width="9.24856" height="9.24856" fill="black"/>
<rect x="46.7745" y="52.6011" width="9.24856" height="9.24856" fill="black"/>
<rect x="91.2832" y="52.6011" width="9.24856" height="9.24856" fill="#D7A3A3"/>
<rect x="91.2832" y="52.6011" width="9.24856" height="9.24856" fill="#D7A3A3"/>
<rect x="21.3411" y="52.6011" width="9.24856" height="9.24856" fill="#D7A3A3"/>
<rect x="21.3411" y="52.6011" width="9.24856" height="9.24856" fill="#D7A3A3"/>
<rect x="13.2485" y="95.3757" width="9.24856" height="26.5896" fill="#D7A3A3"/>
<rect x="13.2485" y="95.3757" width="9.24856" height="26.5896" fill="#555555"/>
<rect x="117.873" y="52.6011" width="9.24856" height="17.9191" fill="#D7A3A3"/>
<rect x="117.873" y="52.6011" width="9.24856" height="17.9191" fill="#555555"/>
<rect x="134.058" y="52.6011" width="9.24856" height="17.9191" fill="#D7A3A3"/>
<rect x="134.058" y="52.6011" width="9.24856" height="17.9191" fill="#555555"/>
<rect x="108.046" y="43.9306" width="9.24856" height="9.24856" fill="#D7A3A3"/>
<rect x="108.046" y="43.9306" width="9.24856" height="9.24856" fill="#555555"/>
<rect x="151.977" y="131.214" width="9.24856" height="9.24856" fill="#D7A3A3"/>
<rect x="151.977" y="131.214" width="9.24856" height="9.24856" fill="#555555"/>
<rect x="161.225" y="121.965" width="9.24856" height="9.24856" fill="#D7A3A3"/>
<rect x="161.225" y="121.965" width="9.24856" height="9.24856" fill="#555555"/>
<rect x="170.474" y="113.295" width="9.24856" height="9.24856" fill="#D7A3A3"/>
<rect x="170.474" y="113.295" width="9.24856" height="9.24856" fill="#555555"/>
<rect x="187.237" y="43.9306" width="7.51445" height="9.24856" fill="#D7A3A3"/>
<rect x="187.237" y="43.9306" width="7.51445" height="9.24856" fill="#555555"/>
<rect x="187.237" y="60.1156" width="7.51445" height="9.24856" fill="#D7A3A3"/>
<rect x="187.237" y="60.1156" width="7.51445" height="9.24856" fill="#555555"/>
<rect x="99.9537" y="26.5896" width="8.09249" height="9.24856" fill="#D7A3A3"/>
<rect x="99.9537" y="26.5896" width="8.09249" height="9.24856" fill="#555555"/>
<rect x="73.9423" y="130.058" width="9.24856" height="9.24856" fill="#D7A3A3"/>
<rect x="73.9423" y="130.058" width="9.24856" height="9.24856" fill="#555555"/>
<rect x="108.046" y="130.058" width="9.24856" height="9.24856" fill="#D7A3A3"/>
<rect x="108.046" y="130.058" width="9.24856" height="9.24856" fill="#555555"/>
<rect x="21.3411" y="121.965" width="9.24856" height="9.24856" fill="#D7A3A3"/>
<rect x="21.3411" y="121.965" width="9.24856" height="9.24856" fill="#555555"/>
<rect x="30.5896" y="130.058" width="9.24856" height="9.24856" fill="#D7A3A3"/>
<rect x="30.5896" y="130.058" width="9.24856" height="9.24856" fill="#555555"/>
<rect x="82.0347" y="17.9191" width="9.24856" height="9.24856" fill="#D7A3A3"/>
<rect x="82.0347" y="17.9191" width="9.24856" height="9.24856" fill="#555555"/>
<rect x="38.682" y="17.9191" width="9.24856" height="9.24856" fill="#D7A3A3"/>
<rect x="38.682" y="17.9191" width="9.24856" height="9.24856" fill="#555555"/>
<rect x="47.3527" y="27.1676" width="17.9191" height="9.24856" fill="#D7A3A3"/>
<rect x="47.3527" y="27.1676" width="17.9191" height="9.24856" fill="#555555"/>
<rect x="125.387" y="130.058" width="18.4971" height="9.24856" fill="#D7A3A3"/>
<rect x="125.387" y="130.058" width="18.4971" height="9.24856" fill="#555555"/>
<rect x="125.387" y="130.058" width="18.4971" height="9.24856" fill="#D7A3A3"/>
<rect x="125.387" y="130.058" width="18.4971" height="9.24856" fill="#555555"/>
<rect x="72.7861" y="27.1676" width="9.24856" height="9.24856" fill="#D7A3A3"/>
<rect x="72.7861" y="27.1676" width="9.24856" height="9.24856" fill="#555555"/>
<rect x="65.2716" y="52.6011" width="9.24856" height="9.24856" fill="black"/>
<rect x="13.2485" y="121.965" width="9.24856" height="9.24856" fill="black"/>
<rect x="21.3411" y="130.058" width="9.24856" height="9.24856" fill="black"/>
<rect x="39.2601" y="147.399" width="9.24856" height="9.24856" fill="black"/>
<rect x="46.7745" y="138.728" width="18.4971" height="9.24856" fill="black"/>
<rect x="64.6936" y="147.977" width="18.4971" height="9.24856" fill="black"/>
<rect x="108.046" y="147.977" width="18.4971" height="9.24856" fill="black"/>
<rect x="125.387" y="139.306" width="18.4971" height="9.24856" fill="black"/>
<rect x="176.254" y="17.3411" width="18.4971" height="9.24856" fill="black"/>
<rect x="142.728" y="147.977" width="18.4971" height="9.24856" fill="black"/>
<rect x="30.5896" y="139.306" width="9.24856" height="17.341" fill="black"/>
<rect x="30.0116" y="43.3526" width="9.24856" height="9.24856" fill="black"/>
<rect x="13.2485" y="26.5896" width="9.24856" height="17.341" fill="black"/>
<rect x="108.046" y="26.5896" width="9.24856" height="17.341" fill="black"/>
<rect x="167.006" y="69.3642" width="9.24856" height="17.9191" fill="black"/>
<rect x="161.225" y="71.0983" width="9.24856" height="26.0116" transform="rotate(-90 161.225 71.0983)" fill="black"/>
<rect x="73.9423" y="148.555" width="9.24856" height="43.3526" transform="rotate(-90 73.9423 148.555)" fill="black"/>
</g>
<defs>
<filter id="filter0_d_125_1235" x="0" y="0" width="208" height="165.225" filterUnits="userSpaceOnUse" color-interpolation-filters="sRGB">
<feFlood flood-opacity="0" result="BackgroundImageFix"/>
<feColorMatrix in="SourceAlpha" type="matrix" values="0 0 0 0 0 0 0 0 0 0 0 0 0 0 0 0 0 0 127 0" result="hardAlpha"/>
<feOffset dy="4"/>
<feGaussianBlur stdDeviation="2"/>
<feComposite in2="hardAlpha" operator="out"/>
<feColorMatrix type="matrix" values="0 0 0 0 0 0 0 0 0 0 0 0 0 0 0 0 0 0 0.31 0"/>
<feBlend mode="normal" in2="BackgroundImageFix" result="effect1_dropShadow_125_1235"/>
<feBlend mode="normal" in="SourceGraphic" in2="effect1_dropShadow_125_1235" result="shape"/>
</filter>
</defs>
</svg>
