<svg width="60" height="58" viewBox="0 0 60 58" fill="none" xmlns="http://www.w3.org/2000/svg">
<path d="M29.9908 1.51231H28.4967V0H29.9908V1.51231Z" fill="#21201E"/>
<path d="M28.497 3.00652H27.0029V1.51245H28.497V3.00652Z" fill="#21201E"/>
<path d="M29.9908 3.00652H28.4967V1.51245H29.9908V3.00652Z" fill="#21201E"/>
<path d="M28.497 4.50031H27.0029V3.00623H28.497V4.50031Z" fill="#21201E"/>
<path d="M29.9908 4.50031H28.4967V3.00623H29.9908V4.50031Z" fill="#F9C62C"/>
<path d="M28.497 6.01266H27.0029V4.50037H28.497V6.01266Z" fill="#21201E"/>
<path d="M29.9908 6.01266H28.4967V4.50037H29.9908V6.01266Z" fill="#F9C62C"/>
<path d="M27.0028 7.5069H25.4905V6.01282H27.0028V7.5069Z" fill="#21201E"/>
<path d="M28.497 7.5069H27.0029V6.01282H28.497V7.5069Z" fill="#21201E"/>
<path d="M29.9908 7.5069H28.4967V6.01282H29.9908V7.5069Z" fill="#F9C62C"/>
<path d="M27.0028 9.00104H25.4905V7.50696H27.0028V9.00104Z" fill="#21201E"/>
<path d="M28.497 9.00104H27.0029V7.50696H28.497V9.00104Z" fill="#F9C62C"/>
<path d="M29.9908 9.00104H28.4967V7.50696H29.9908V9.00104Z" fill="#F9C62C"/>
<path d="M27.0028 10.4948H25.4905V9.00073H27.0028V10.4948Z" fill="#21201E"/>
<path d="M28.497 10.4948H27.0029V9.00073H28.497V10.4948Z" fill="#F9C62C"/>
<path d="M29.9908 10.4948H28.4967V9.00073H29.9908V10.4948Z" fill="#F9C62C"/>
<path d="M25.4904 12.0075H23.9963V10.4952H25.4904V12.0075Z" fill="#21201E"/>
<path d="M27.0028 12.0075H25.4905V10.4952H27.0028V12.0075Z" fill="#21201E"/>
<path d="M28.497 12.0075H27.0029V10.4952H28.497V12.0075Z" fill="#F9C62C"/>
<path d="M29.9908 12.0075H28.4967V10.4952H29.9908V12.0075Z" fill="#F9C62C"/>
<path d="M25.4904 13.5014H23.9963V12.0073H25.4904V13.5014Z" fill="#21201E"/>
<path d="M27.0028 13.5014H25.4905V12.0073H27.0028V13.5014Z" fill="#F9C62C"/>
<path d="M28.497 13.5014H27.0029V12.0073H28.497V13.5014Z" fill="#F9C62C"/>
<path d="M29.9908 13.5014H28.4967V12.0073H29.9908V13.5014Z" fill="#F9C62C"/>
<path d="M25.4904 14.9955H23.9963V13.5015H25.4904V14.9955Z" fill="#21201E"/>
<path d="M27.0028 14.9955H25.4905V13.5015H27.0028V14.9955Z" fill="#F9C62C"/>
<path d="M28.497 14.9955H27.0029V13.5015H28.497V14.9955Z" fill="#F9C62C"/>
<path d="M29.9908 14.9955H28.4967V13.5015H29.9908V14.9955Z" fill="#F9C62C"/>
<path d="M23.9966 16.5079H22.5026V14.9956H23.9966V16.5079Z" fill="#21201E"/>
<path d="M25.4904 16.5079H23.9963V14.9956H25.4904V16.5079Z" fill="#21201E"/>
<path d="M27.0028 16.5079H25.4905V14.9956H27.0028V16.5079Z" fill="#F9C62C"/>
<path d="M28.497 16.5079H27.0029V14.9956H28.497V16.5079Z" fill="#F9C62C"/>
<path d="M29.9908 16.5079H28.4967V14.9956H29.9908V16.5079Z" fill="#F9C62C"/>
<path d="M23.9966 18.0018H22.5026V16.5077H23.9966V18.0018Z" fill="#21201E"/>
<path d="M25.4904 18.0018H23.9963V16.5077H25.4904V18.0018Z" fill="#F9C62C"/>
<path d="M27.0028 18.0018H25.4905V16.5077H27.0028V18.0018Z" fill="#F9C62C"/>
<path d="M28.497 18.0018H27.0029V16.5077H28.497V18.0018Z" fill="#F9C62C"/>
<path d="M29.9908 18.0018H28.4967V16.5077H29.9908V18.0018Z" fill="#FFFAD7"/>
<path d="M23.9966 19.4959H22.5026V18.0018H23.9966V19.4959Z" fill="#21201E"/>
<path d="M25.4904 19.4959H23.9963V18.0018H25.4904V19.4959Z" fill="#F9C62C"/>
<path d="M27.0028 19.4959H25.4905V18.0018H27.0028V19.4959Z" fill="#F9C62C"/>
<path d="M28.497 19.4959H27.0029V18.0018H28.497V19.4959Z" fill="#F9C62C"/>
<path d="M29.9908 19.4959H28.4967V18.0018H29.9908V19.4959Z" fill="#FFFAD7"/>
<path d="M23.9966 21.0083H22.5026V19.496H23.9966V21.0083Z" fill="#21201E"/>
<path d="M25.4904 21.0083H23.9963V19.496H25.4904V21.0083Z" fill="#F9C62C"/>
<path d="M27.0028 21.0083H25.4905V19.496H27.0028V21.0083Z" fill="#F9C62C"/>
<path d="M28.497 21.0083H27.0029V19.496H28.497V21.0083Z" fill="#F9C62C"/>
<path d="M29.9908 21.0083H28.4967V19.496H29.9908V21.0083Z" fill="#FFFAD7"/>
<path d="M1.49408 22.5021H0V21.0081H1.49408V22.5021Z" fill="#21201E"/>
<path d="M2.98822 22.5021H1.49414V21.0081H2.98822V22.5021Z" fill="#21201E"/>
<path d="M4.50022 22.5021H2.98792V21.0081H4.50022V22.5021Z" fill="#21201E"/>
<path d="M5.99445 22.5021H4.50037V21.0081H5.99445V22.5021Z" fill="#21201E"/>
<path d="M7.48859 22.5021H5.99451V21.0081H7.48859V22.5021Z" fill="#21201E"/>
<path d="M9.00095 22.5021H7.48865V21.0081H9.00095V22.5021Z" fill="#21201E"/>
<path d="M10.4952 22.5021H9.0011V21.0081H10.4952V22.5021Z" fill="#21201E"/>
<path d="M11.989 22.5021H10.4949V21.0081H11.989V22.5021Z" fill="#21201E"/>
<path d="M13.5013 22.5021H11.989V21.0081H13.5013V22.5021Z" fill="#21201E"/>
<path d="M14.9955 22.5021H13.5015V21.0081H14.9955V22.5021Z" fill="#21201E"/>
<path d="M16.4897 22.5021H14.9956V21.0081H16.4897V22.5021Z" fill="#21201E"/>
<path d="M18.002 22.5021H16.4897V21.0081H18.002V22.5021Z" fill="#21201E"/>
<path d="M19.4959 22.5021H18.0018V21.0081H19.4959V22.5021Z" fill="#21201E"/>
<path d="M20.9901 22.5021H19.496V21.0081H20.9901V22.5021Z" fill="#21201E"/>
<path d="M22.5024 22.5021H20.9901V21.0081H22.5024V22.5021Z" fill="#21201E"/>
<path d="M23.9966 22.5021H22.5026V21.0081H23.9966V22.5021Z" fill="#21201E"/>
<path d="M25.4904 22.5021H23.9963V21.0081H25.4904V22.5021Z" fill="#F9C62C"/>
<path d="M27.0028 22.5021H25.4905V21.0081H27.0028V22.5021Z" fill="#F9C62C"/>
<path d="M28.497 22.5021H27.0029V21.0081H28.497V22.5021Z" fill="#FFFAD7"/>
<path d="M29.9908 22.5021H28.4967V21.0081H29.9908V22.5021Z" fill="#FFFAD7"/>
<path d="M1.49408 23.9963H0V22.5022H1.49408V23.9963Z" fill="#21201E"/>
<path d="M2.98822 23.9963H1.49414V22.5022H2.98822V23.9963Z" fill="#21201E"/>
<path d="M4.50022 23.9963H2.98792V22.5022H4.50022V23.9963Z" fill="#F4EBA7"/>
<path d="M5.99445 23.9963H4.50037V22.5022H5.99445V23.9963Z" fill="#F4EBA7"/>
<path d="M7.48859 23.9963H5.99451V22.5022H7.48859V23.9963Z" fill="#F4EBA7"/>
<path d="M9.00095 23.9963H7.48865V22.5022H9.00095V23.9963Z" fill="#F4EBA7"/>
<path d="M10.4952 23.9963H9.0011V22.5022H10.4952V23.9963Z" fill="#F4EBA7"/>
<path d="M11.989 23.9963H10.4949V22.5022H11.989V23.9963Z" fill="#F4EBA7"/>
<path d="M13.5013 23.9963H11.989V22.5022H13.5013V23.9963Z" fill="#F4EBA7"/>
<path d="M14.9955 23.9963H13.5015V22.5022H14.9955V23.9963Z" fill="#F4EBA7"/>
<path d="M16.4897 23.9963H14.9956V22.5022H16.4897V23.9963Z" fill="#F4EBA7"/>
<path d="M18.002 23.9963H16.4897V22.5022H18.002V23.9963Z" fill="#F4EBA7"/>
<path d="M19.4959 23.9963H18.0018V22.5022H19.4959V23.9963Z" fill="#F4EBA7"/>
<path d="M20.9901 23.9963H19.496V22.5022H20.9901V23.9963Z" fill="#F4EBA7"/>
<path d="M22.5024 23.9963H20.9901V22.5022H22.5024V23.9963Z" fill="#F4EBA7"/>
<path d="M23.9966 23.9963H22.5026V22.5022H23.9966V23.9963Z" fill="#F4EBA7"/>
<path d="M25.4904 23.9963H23.9963V22.5022H25.4904V23.9963Z" fill="#F4EBA7"/>
<path d="M27.0028 23.9963H25.4905V22.5022H27.0028V23.9963Z" fill="#F9C62C"/>
<path d="M28.497 23.9963H27.0029V22.5022H28.497V23.9963Z" fill="#FFFAD7"/>
<path d="M29.9908 23.9963H28.4967V22.5022H29.9908V23.9963Z" fill="#FFFAD7"/>
<path d="M2.98822 25.5086H1.49414V23.9963H2.98822V25.5086Z" fill="#21201E"/>
<path d="M4.50022 25.5086H2.98792V23.9963H4.50022V25.5086Z" fill="#21201E"/>
<path d="M5.99445 25.5086H4.50037V23.9963H5.99445V25.5086Z" fill="#F9C62C"/>
<path d="M7.48859 25.5086H5.99451V23.9963H7.48859V25.5086Z" fill="#F9C62C"/>
<path d="M9.00095 25.5086H7.48865V23.9963H9.00095V25.5086Z" fill="#F9C62C"/>
<path d="M10.4952 25.5086H9.0011V23.9963H10.4952V25.5086Z" fill="#F4EBA7"/>
<path d="M11.989 25.5086H10.4949V23.9963H11.989V25.5086Z" fill="#F4EBA7"/>
<path d="M13.5013 25.5086H11.989V23.9963H13.5013V25.5086Z" fill="#F4EBA7"/>
<path d="M14.9955 25.5086H13.5015V23.9963H14.9955V25.5086Z" fill="#F4EBA7"/>
<path d="M16.4897 25.5086H14.9956V23.9963H16.4897V25.5086Z" fill="#F4EBA7"/>
<path d="M18.002 25.5086H16.4897V23.9963H18.002V25.5086Z" fill="#F4EBA7"/>
<path d="M19.4959 25.5086H18.0018V23.9963H19.4959V25.5086Z" fill="#F4EBA7"/>
<path d="M20.9901 25.5086H19.496V23.9963H20.9901V25.5086Z" fill="#F4EBA7"/>
<path d="M22.5024 25.5086H20.9901V23.9963H22.5024V25.5086Z" fill="#F4EBA7"/>
<path d="M23.9966 25.5086H22.5026V23.9963H23.9966V25.5086Z" fill="#F4EBA7"/>
<path d="M25.4904 25.5086H23.9963V23.9963H25.4904V25.5086Z" fill="#F4EBA7"/>
<path d="M27.0028 25.5086H25.4905V23.9963H27.0028V25.5086Z" fill="#F4EBA7"/>
<path d="M28.497 25.5086H27.0029V23.9963H28.497V25.5086Z" fill="#FFFAD7"/>
<path d="M29.9908 25.5086H28.4967V23.9963H29.9908V25.5086Z" fill="#FFFAD7"/>
<path d="M4.50022 27.0029H2.98792V25.5088H4.50022V27.0029Z" fill="#21201E"/>
<path d="M5.99445 27.0029H4.50037V25.5088H5.99445V27.0029Z" fill="#21201E"/>
<path d="M7.48859 27.0029H5.99451V25.5088H7.48859V27.0029Z" fill="#21201E"/>
<path d="M9.00095 27.0029H7.48865V25.5088H9.00095V27.0029Z" fill="#F9C62C"/>
<path d="M10.4952 27.0029H9.0011V25.5088H10.4952V27.0029Z" fill="#F9C62C"/>
<path d="M11.989 27.0029H10.4949V25.5088H11.989V27.0029Z" fill="#F9C62C"/>
<path d="M13.5013 27.0029H11.989V25.5088H13.5013V27.0029Z" fill="#F9C62C"/>
<path d="M14.9955 27.0029H13.5015V25.5088H14.9955V27.0029Z" fill="#F4EBA7"/>
<path d="M16.4897 27.0029H14.9956V25.5088H16.4897V27.0029Z" fill="#F4EBA7"/>
<path d="M18.002 27.0029H16.4897V25.5088H18.002V27.0029Z" fill="#F4EBA7"/>
<path d="M19.4959 27.0029H18.0018V25.5088H19.4959V27.0029Z" fill="#F4EBA7"/>
<path d="M20.9901 27.0029H19.496V25.5088H20.9901V27.0029Z" fill="#F4EBA7"/>
<path d="M22.5024 27.0029H20.9901V25.5088H22.5024V27.0029Z" fill="#F4EBA7"/>
<path d="M23.9966 27.0029H22.5026V25.5088H23.9966V27.0029Z" fill="#F4EBA7"/>
<path d="M25.4904 27.0029H23.9963V25.5088H25.4904V27.0029Z" fill="#F4EBA7"/>
<path d="M27.0028 27.0029H25.4905V25.5088H27.0028V27.0029Z" fill="#FFFAD7"/>
<path d="M28.497 27.0029H27.0029V25.5088H28.497V27.0029Z" fill="#FFFAD7"/>
<path d="M29.9908 27.0029H28.4967V25.5088H29.9908V27.0029Z" fill="#FFFAD7"/>
<path d="M5.99445 28.4966H4.50037V27.0026H5.99445V28.4966Z" fill="#21201E"/>
<path d="M7.48859 28.4966H5.99451V27.0026H7.48859V28.4966Z" fill="#21201E"/>
<path d="M9.00095 28.4966H7.48865V27.0026H9.00095V28.4966Z" fill="#21201E"/>
<path d="M10.4952 28.4966H9.0011V27.0026H10.4952V28.4966Z" fill="#F9C62C"/>
<path d="M11.989 28.4966H10.4949V27.0026H11.989V28.4966Z" fill="#F9C62C"/>
<path d="M13.5013 28.4966H11.989V27.0026H13.5013V28.4966Z" fill="#F9C62C"/>
<path d="M14.9955 28.4966H13.5015V27.0026H14.9955V28.4966Z" fill="#F9C62C"/>
<path d="M16.4897 28.4966H14.9956V27.0026H16.4897V28.4966Z" fill="#F9C62C"/>
<path d="M18.002 28.4966H16.4897V27.0026H18.002V28.4966Z" fill="#FFFAD7"/>
<path d="M19.4959 28.4966H18.0018V27.0026H19.4959V28.4966Z" fill="#FFFAD7"/>
<path d="M20.9901 28.4966H19.496V27.0026H20.9901V28.4966Z" fill="#FFFAD7"/>
<path d="M22.5024 28.4966H20.9901V27.0026H22.5024V28.4966Z" fill="#FFFAD7"/>
<path d="M23.9966 28.4966H22.5026V27.0026H23.9966V28.4966Z" fill="#FFFAD7"/>
<path d="M25.4904 28.4966H23.9963V27.0026H25.4904V28.4966Z" fill="#FFFAD7"/>
<path d="M27.0028 28.4966H25.4905V27.0026H27.0028V28.4966Z" fill="#FFFAD7"/>
<path d="M28.497 28.4966H27.0029V27.0026H28.497V28.4966Z" fill="#FFFAD7"/>
<path d="M29.9908 28.4966H28.4967V27.0026H29.9908V28.4966Z" fill="#FFFAD7"/>
<path d="M9.00095 30.009H7.48865V28.4967H9.00095V30.009Z" fill="#21201E"/>
<path d="M10.4952 30.009H9.0011V28.4967H10.4952V30.009Z" fill="#21201E"/>
<path d="M11.989 30.009H10.4949V28.4967H11.989V30.009Z" fill="#F9C62C"/>
<path d="M13.5013 30.009H11.989V28.4967H13.5013V30.009Z" fill="#F9C62C"/>
<path d="M14.9955 30.009H13.5015V28.4967H14.9955V30.009Z" fill="#F9C62C"/>
<path d="M16.4897 30.009H14.9956V28.4967H16.4897V30.009Z" fill="#F9C62C"/>
<path d="M18.002 30.009H16.4897V28.4967H18.002V30.009Z" fill="#F9C62C"/>
<path d="M19.4959 30.009H18.0018V28.4967H19.4959V30.009Z" fill="#FFFAD7"/>
<path d="M20.9901 30.009H19.496V28.4967H20.9901V30.009Z" fill="#FFFAD7"/>
<path d="M22.5024 30.009H20.9901V28.4967H22.5024V30.009Z" fill="#FFFAD7"/>
<path d="M23.9966 30.009H22.5026V28.4967H23.9966V30.009Z" fill="#FFFAD7"/>
<path d="M25.4904 30.009H23.9963V28.4967H25.4904V30.009Z" fill="#FFFAD7"/>
<path d="M27.0028 30.009H25.4905V28.4967H27.0028V30.009Z" fill="#FFFAD7"/>
<path d="M28.497 30.009H27.0029V28.4967H28.497V30.009Z" fill="#FFFAD7"/>
<path d="M29.9908 30.009H28.4967V28.4967H29.9908V30.009Z" fill="#FFFAD7"/>
<path d="M10.4952 31.5032H9.0011V30.0092H10.4952V31.5032Z" fill="#21201E"/>
<path d="M11.989 31.5032H10.4949V30.0092H11.989V31.5032Z" fill="#21201E"/>
<path d="M13.5013 31.5032H11.989V30.0092H13.5013V31.5032Z" fill="#F9C62C"/>
<path d="M14.9955 31.5032H13.5015V30.0092H14.9955V31.5032Z" fill="#F9C62C"/>
<path d="M16.4897 31.5032H14.9956V30.0092H16.4897V31.5032Z" fill="#F9C62C"/>
<path d="M18.002 31.5032H16.4897V30.0092H18.002V31.5032Z" fill="#F9C62C"/>
<path d="M19.4959 31.5032H18.0018V30.0092H19.4959V31.5032Z" fill="#F9C62C"/>
<path d="M20.9901 31.5032H19.496V30.0092H20.9901V31.5032Z" fill="#FFFAD7"/>
<path d="M22.5024 31.5032H20.9901V30.0092H22.5024V31.5032Z" fill="#FFFAD7"/>
<path d="M23.9966 31.5032H22.5026V30.0092H23.9966V31.5032Z" fill="#FFFAD7"/>
<path d="M25.4904 31.5032H23.9963V30.0092H25.4904V31.5032Z" fill="#FFFAD7"/>
<path d="M27.0028 31.5032H25.4905V30.0092H27.0028V31.5032Z" fill="#FFFAD7"/>
<path d="M28.497 31.5032H27.0029V30.0092H28.497V31.5032Z" fill="#FFFAD7"/>
<path d="M29.9908 31.5032H28.4967V30.0092H29.9908V31.5032Z" fill="#FFFAD7"/>
<path d="M11.989 32.9974H10.4949V31.5033H11.989V32.9974Z" fill="#21201E"/>
<path d="M13.5013 32.9974H11.989V31.5033H13.5013V32.9974Z" fill="#21201E"/>
<path d="M14.9955 32.9974H13.5015V31.5033H14.9955V32.9974Z" fill="#21201E"/>
<path d="M16.4897 32.9974H14.9956V31.5033H16.4897V32.9974Z" fill="#F9C62C"/>
<path d="M18.002 32.9974H16.4897V31.5033H18.002V32.9974Z" fill="#F9C62C"/>
<path d="M19.4959 32.9974H18.0018V31.5033H19.4959V32.9974Z" fill="#F9C62C"/>
<path d="M20.9901 32.9974H19.496V31.5033H20.9901V32.9974Z" fill="#F9C62C"/>
<path d="M22.5024 32.9974H20.9901V31.5033H22.5024V32.9974Z" fill="#FFFAD7"/>
<path d="M23.9966 32.9974H22.5026V31.5033H23.9966V32.9974Z" fill="#FFFAD7"/>
<path d="M25.4904 32.9974H23.9963V31.5033H25.4904V32.9974Z" fill="#FFFAD7"/>
<path d="M27.0028 32.9974H25.4905V31.5033H27.0028V32.9974Z" fill="#FFFAD7"/>
<path d="M28.497 32.9974H27.0029V31.5033H28.497V32.9974Z" fill="#FFFAD7"/>
<path d="M29.9908 32.9974H28.4967V31.5033H29.9908V32.9974Z" fill="#FFFAD7"/>
<path d="M14.9955 34.5097H13.5015V32.9974H14.9955V34.5097Z" fill="#21201E"/>
<path d="M16.4897 34.5097H14.9956V32.9974H16.4897V34.5097Z" fill="#21201E"/>
<path d="M18.002 34.5097H16.4897V32.9974H18.002V34.5097Z" fill="#F9C62C"/>
<path d="M19.4959 34.5097H18.0018V32.9974H19.4959V34.5097Z" fill="#F9C62C"/>
<path d="M20.9901 34.5097H19.496V32.9974H20.9901V34.5097Z" fill="#F9C62C"/>
<path d="M22.5024 34.5097H20.9901V32.9974H22.5024V34.5097Z" fill="#F9C62C"/>
<path d="M23.9966 34.5097H22.5026V32.9974H23.9966V34.5097Z" fill="#F4EBA7"/>
<path d="M25.4904 34.5097H23.9963V32.9974H25.4904V34.5097Z" fill="#FFFAD7"/>
<path d="M27.0028 34.5097H25.4905V32.9974H27.0028V34.5097Z" fill="#FFFAD7"/>
<path d="M28.497 34.5097H27.0029V32.9974H28.497V34.5097Z" fill="#FFFAD7"/>
<path d="M29.9908 34.5097H28.4967V32.9974H29.9908V34.5097Z" fill="#FFFAD7"/>
<path d="M16.4897 36.0036H14.9956V34.5095H16.4897V36.0036Z" fill="#21201E"/>
<path d="M18.002 36.0036H16.4897V34.5095H18.002V36.0036Z" fill="#21201E"/>
<path d="M19.4959 36.0036H18.0018V34.5095H19.4959V36.0036Z" fill="#F9C62C"/>
<path d="M20.9901 36.0036H19.496V34.5095H20.9901V36.0036Z" fill="#F9C62C"/>
<path d="M22.5024 36.0036H20.9901V34.5095H22.5024V36.0036Z" fill="#F9C62C"/>
<path d="M23.9966 36.0036H22.5026V34.5095H23.9966V36.0036Z" fill="#F4EBA7"/>
<path d="M25.4904 36.0036H23.9963V34.5095H25.4904V36.0036Z" fill="#FFFAD7"/>
<path d="M27.0028 36.0036H25.4905V34.5095H27.0028V36.0036Z" fill="#FFFAD7"/>
<path d="M28.497 36.0036H27.0029V34.5095H28.497V36.0036Z" fill="#FFFAD7"/>
<path d="M29.9908 36.0036H28.4967V34.5095H29.9908V36.0036Z" fill="#FFFAD7"/>
<path d="M18.002 37.4977H16.4897V36.0037H18.002V37.4977Z" fill="#21201E"/>
<path d="M19.4959 37.4977H18.0018V36.0037H19.4959V37.4977Z" fill="#21201E"/>
<path d="M20.9901 37.4977H19.496V36.0037H20.9901V37.4977Z" fill="#F9C62C"/>
<path d="M22.5024 37.4977H20.9901V36.0037H22.5024V37.4977Z" fill="#F4EBA7"/>
<path d="M23.9966 37.4977H22.5026V36.0037H23.9966V37.4977Z" fill="#FFFAD7"/>
<path d="M25.4904 37.4977H23.9963V36.0037H25.4904V37.4977Z" fill="#FFFAD7"/>
<path d="M27.0028 37.4977H25.4905V36.0037H27.0028V37.4977Z" fill="#FFFAD7"/>
<path d="M28.497 37.4977H27.0029V36.0037H28.497V37.4977Z" fill="#FFFAD7"/>
<path d="M29.9908 37.4977H28.4967V36.0037H29.9908V37.4977Z" fill="#FFFAD7"/>
<path d="M18.002 39.0101H16.4897V37.4978H18.002V39.0101Z" fill="#21201E"/>
<path d="M19.4959 39.0101H18.0018V37.4978H19.4959V39.0101Z" fill="#F4EBA7"/>
<path d="M20.9901 39.0101H19.496V37.4978H20.9901V39.0101Z" fill="#F4EBA7"/>
<path d="M22.5024 39.0101H20.9901V37.4978H22.5024V39.0101Z" fill="#F4EBA7"/>
<path d="M23.9966 39.0101H22.5026V37.4978H23.9966V39.0101Z" fill="#FFFAD7"/>
<path d="M25.4904 39.0101H23.9963V37.4978H25.4904V39.0101Z" fill="#FFFAD7"/>
<path d="M27.0028 39.0101H25.4905V37.4978H27.0028V39.0101Z" fill="#FFFAD7"/>
<path d="M28.497 39.0101H27.0029V37.4978H28.497V39.0101Z" fill="#FFFAD7"/>
<path d="M29.9908 39.0101H28.4967V37.4978H29.9908V39.0101Z" fill="#FFFAD7"/>
<path d="M16.4897 40.5043H14.9956V39.0103H16.4897V40.5043Z" fill="#21201E"/>
<path d="M18.002 40.5043H16.4897V39.0103H18.002V40.5043Z" fill="#21201E"/>
<path d="M19.4959 40.5043H18.0018V39.0103H19.4959V40.5043Z" fill="#F4EBA7"/>
<path d="M20.9901 40.5043H19.496V39.0103H20.9901V40.5043Z" fill="#F4EBA7"/>
<path d="M22.5024 40.5043H20.9901V39.0103H22.5024V40.5043Z" fill="#F4EBA7"/>
<path d="M23.9966 40.5043H22.5026V39.0103H23.9966V40.5043Z" fill="#FFFAD7"/>
<path d="M25.4724 40.5043H23.9601V39.0103H25.4724V40.5043Z" fill="#FFFAD7"/>
<path d="M27.0027 40.5043H25.4722V39.0103H27.0027V40.5043Z" fill="#FFFAD7"/>
<path d="M28.497 40.5043H27.0029V39.0103H28.497V40.5043Z" fill="#FFFAD7"/>
<path d="M29.9908 40.5043H28.4967V39.0103H29.9908V40.5043Z" fill="#F9C62C"/>
<path d="M16.4897 41.9985H14.9956V40.5044H16.4897V41.9985Z" fill="#21201E"/>
<path d="M18.002 41.9985H16.4897V40.5044H18.002V41.9985Z" fill="#F4EBA7"/>
<path d="M19.4959 41.9985H18.0018V40.5044H19.4959V41.9985Z" fill="#F4EBA7"/>
<path d="M20.9901 41.9985H19.496V40.5044H20.9901V41.9985Z" fill="#F4EBA7"/>
<path d="M22.5024 41.9985H20.9901V40.5044H22.5024V41.9985Z" fill="#FFFAD7"/>
<path d="M23.9966 41.9985H22.5026V40.5044H23.9966V41.9985Z" fill="#FFFAD7"/>
<path d="M25.4724 41.9985H23.9601V40.5044H25.4724V41.9985Z" fill="#FFFAD7"/>
<path d="M27.0027 41.9985H25.4722V40.5044H27.0027V41.9985Z" fill="#F9C62C"/>
<path d="M28.497 41.9985H27.0029V40.5044H28.497V41.9985Z" fill="#F9C62C"/>
<path d="M29.9908 41.9985H28.4967V40.5044H29.9908V41.9985Z" fill="#F9C62C"/>
<path d="M16.4897 43.5105H14.9956V41.9982H16.4897V43.5105Z" fill="#21201E"/>
<path d="M18.002 43.5105H16.4897V41.9982H18.002V43.5105Z" fill="#F4EBA7"/>
<path d="M19.4959 43.5105H18.0018V41.9982H19.4959V43.5105Z" fill="#F4EBA7"/>
<path d="M20.9901 43.5105H19.496V41.9982H20.9901V43.5105Z" fill="#F4EBA7"/>
<path d="M22.5024 43.5105H20.9901V41.9982H22.5024V43.5105Z" fill="#FFFAD7"/>
<path d="M23.9966 43.5105H22.5026V41.9982H23.9966V43.5105Z" fill="#FFFAD7"/>
<path d="M25.4724 43.5105H23.9601V41.9982H25.4724V43.5105Z" fill="#F9C62C"/>
<path d="M27.0027 43.5105H25.4722V41.9982H27.0027V43.5105Z" fill="#F9C62C"/>
<path d="M28.497 43.5105H27.0029V41.9982H28.497V43.5105Z" fill="#F9C62C"/>
<path d="M29.9908 43.5105H28.4967V41.9982H29.9908V43.5105Z" fill="#F9C62C"/>
<path d="M14.9955 45.0043H13.5015V43.5103H14.9955V45.0043Z" fill="#21201E"/>
<path d="M16.4897 45.0043H14.9956V43.5103H16.4897V45.0043Z" fill="#21201E"/>
<path d="M18.002 45.0043H16.4897V43.5103H18.002V45.0043Z" fill="#F4EBA7"/>
<path d="M19.4959 45.0043H18.0018V43.5103H19.4959V45.0043Z" fill="#F4EBA7"/>
<path d="M20.9901 45.0043H19.496V43.5103H20.9901V45.0043Z" fill="#F4EBA7"/>
<path d="M22.5024 45.0043H20.9901V43.5103H22.5024V45.0043Z" fill="#FFFAD7"/>
<path d="M23.96 45.0043H22.4659V43.5103H23.96V45.0043Z" fill="#F9C62C"/>
<path d="M25.4724 45.0043H23.9601V43.5103H25.4724V45.0043Z" fill="#F9C62C"/>
<path d="M27.0027 45.0043H25.4722V43.5103H27.0027V45.0043Z" fill="#F9C62C"/>
<path d="M28.497 45.0043H27.0029V43.5103H28.497V45.0043Z" fill="#F9C62C"/>
<path d="M29.9908 45.0043H28.4967V43.5103H29.9908V45.0043Z" fill="#21201E"/>
<path d="M14.9955 46.4988H13.5015V45.0048H14.9955V46.4988Z" fill="#21201E"/>
<path d="M16.4897 46.4988H14.9956V45.0048H16.4897V46.4988Z" fill="#21201E"/>
<path d="M18.002 46.4988H16.4897V45.0048H18.002V46.4988Z" fill="#F4EBA7"/>
<path d="M19.4959 46.4988H18.0018V45.0048H19.4959V46.4988Z" fill="#F4EBA7"/>
<path d="M20.9717 46.4988H19.4594V45.0048H20.9717V46.4988Z" fill="#F4EBA7"/>
<path d="M22.4659 46.4988H20.9718V45.0048H22.4659V46.4988Z" fill="#F9C62C"/>
<path d="M23.96 46.4988H22.4659V45.0048H23.96V46.4988Z" fill="#F9C62C"/>
<path d="M25.4724 46.4988H23.9601V45.0048H25.4724V46.4988Z" fill="#F9C62C"/>
<path d="M27.0027 46.4988H25.4722V45.0048H27.0027V46.4988Z" fill="#F9C62C"/>
<path d="M28.497 46.4988H27.0029V45.0048H28.497V46.4988Z" fill="#21201E"/>
<path d="M29.9908 46.4988H28.4967V45.0048H29.9908V46.4988Z" fill="#21201E"/>
<path d="M14.9955 48.0112H13.5015V46.4989H14.9955V48.0112Z" fill="#21201E"/>
<path d="M16.4897 48.0112H14.9956V46.4989H16.4897V48.0112Z" fill="#F4EBA7"/>
<path d="M18.002 48.0112H16.4897V46.4989H18.002V48.0112Z" fill="#F4EBA7"/>
<path d="M19.4959 48.0112H18.0018V46.4989H19.4959V48.0112Z" fill="#F4EBA7"/>
<path d="M20.9717 48.0112H19.4594V46.4989H20.9717V48.0112Z" fill="#F9C62C"/>
<path d="M22.4659 48.0112H20.9718V46.4989H22.4659V48.0112Z" fill="#F9C62C"/>
<path d="M23.96 48.0112H22.4659V46.4989H23.96V48.0112Z" fill="#F9C62C"/>
<path d="M25.4724 48.0112H23.9601V46.4989H25.4724V48.0112Z" fill="#21201E"/>
<path d="M27.0027 48.0112H25.4722V46.4989H27.0027V48.0112Z" fill="#21201E"/>
<path d="M28.497 48.0112H27.0029V46.4989H28.497V48.0112Z" fill="#21201E"/>
<path d="M13.5013 49.5051H11.989V48.011H13.5013V49.5051Z" fill="#21201E"/>
<path d="M14.9955 49.5051H13.5015V48.011H14.9955V49.5051Z" fill="#21201E"/>
<path d="M16.4897 49.5051H14.9956V48.011H16.4897V49.5051Z" fill="#F4EBA7"/>
<path d="M18.002 49.5051H16.4897V48.011H18.002V49.5051Z" fill="#F4EBA7"/>
<path d="M19.4959 49.5051H18.0018V48.011H19.4959V49.5051Z" fill="#F9C62C"/>
<path d="M20.9901 49.5051H19.496V48.011H20.9901V49.5051Z" fill="#F9C62C"/>
<path d="M22.4659 49.5051H20.9718V48.011H22.4659V49.5051Z" fill="#F9C62C"/>
<path d="M23.96 49.5051H22.4659V48.011H23.96V49.5051Z" fill="#21201E"/>
<path d="M25.4724 49.5051H23.9601V48.011H25.4724V49.5051Z" fill="#21201E"/>
<path d="M13.5013 50.9988H11.989V49.5048H13.5013V50.9988Z" fill="#21201E"/>
<path d="M14.9955 50.9988H13.5015V49.5048H14.9955V50.9988Z" fill="#F4EBA7"/>
<path d="M16.4897 50.9988H14.9956V49.5048H16.4897V50.9988Z" fill="#F4EBA7"/>
<path d="M18.002 50.9988H16.4897V49.5048H18.002V50.9988Z" fill="#F9C62C"/>
<path d="M19.4959 50.9988H18.0018V49.5048H19.4959V50.9988Z" fill="#F9C62C"/>
<path d="M20.9901 50.9988H19.496V49.5048H20.9901V50.9988Z" fill="#21201E"/>
<path d="M22.4659 50.9988H20.9718V49.5048H22.4659V50.9988Z" fill="#21201E"/>
<path d="M23.96 50.9988H22.4659V49.5048H23.96V50.9988Z" fill="#21201E"/>
<path d="M13.5013 52.5116H11.989V50.9993H13.5013V52.5116Z" fill="#21201E"/>
<path d="M14.9955 52.5116H13.5015V50.9993H14.9955V52.5116Z" fill="#F4EBA7"/>
<path d="M16.4897 52.5116H14.9956V50.9993H16.4897V52.5116Z" fill="#F9C62C"/>
<path d="M18.002 52.5116H16.4897V50.9993H18.002V52.5116Z" fill="#F9C62C"/>
<path d="M19.4959 52.5116H18.0018V50.9993H19.4959V52.5116Z" fill="#21201E"/>
<path d="M20.9717 52.5116H19.4594V50.9993H20.9717V52.5116Z" fill="#21201E"/>
<path d="M11.989 54.0054H10.4949V52.5114H11.989V54.0054Z" fill="#21201E"/>
<path d="M13.5013 54.0054H11.989V52.5114H13.5013V54.0054Z" fill="#21201E"/>
<path d="M14.9955 54.0054H13.5015V52.5114H14.9955V54.0054Z" fill="#F9C62C"/>
<path d="M16.4897 54.0054H14.9956V52.5114H16.4897V54.0054Z" fill="#F9C62C"/>
<path d="M18.002 54.0054H16.4897V52.5114H18.002V54.0054Z" fill="#21201E"/>
<path d="M19.4959 54.0054H18.0018V52.5114H19.4959V54.0054Z" fill="#21201E"/>
<path d="M11.989 55.4996H10.4949V54.0055H11.989V55.4996Z" fill="#21201E"/>
<path d="M13.5013 55.4996H11.989V54.0055H13.5013V55.4996Z" fill="#F9C62C"/>
<path d="M14.9955 55.4996H13.5015V54.0055H14.9955V55.4996Z" fill="#21201E"/>
<path d="M16.4897 55.4996H14.9956V54.0055H16.4897V55.4996Z" fill="#21201E"/>
<path d="M18.002 55.4996H16.4897V54.0055H18.002V55.4996Z" fill="#21201E"/>
<path d="M11.989 57.0119H10.4949V55.4996H11.989V57.0119Z" fill="#21201E"/>
<path d="M13.5013 57.0119H11.989V55.4996H13.5013V57.0119Z" fill="#21201E"/>
<path d="M14.9955 57.0119H13.5015V55.4996H14.9955V57.0119Z" fill="#21201E"/>
<path d="M29.9908 1.51231H31.5031V0H29.9908V1.51231Z" fill="#21201E"/>
<path d="M31.5033 3.00652H32.9974V1.51245H31.5033V3.00652Z" fill="#21201E"/>
<path d="M29.9908 3.00652H31.5031V1.51245H29.9908V3.00652Z" fill="#21201E"/>
<path d="M31.5033 4.50031H32.9974V3.00623H31.5033V4.50031Z" fill="#21201E"/>
<path d="M29.9908 4.50031H31.5031V3.00623H29.9908V4.50031Z" fill="#F4EBA7"/>
<path d="M31.5033 6.01266H32.9974V4.50037H31.5033V6.01266Z" fill="#21201E"/>
<path d="M29.9908 6.01266H31.5031V4.50037H29.9908V6.01266Z" fill="#F4EBA7"/>
<path d="M32.9974 7.5069H34.4915V6.01282H32.9974V7.5069Z" fill="#21201E"/>
<path d="M31.5033 7.5069H32.9974V6.01282H31.5033V7.5069Z" fill="#21201E"/>
<path d="M29.9908 7.5069H31.5031V6.01282H29.9908V7.5069Z" fill="#F4EBA7"/>
<path d="M32.9974 9.00104H34.4915V7.50696H32.9974V9.00104Z" fill="#21201E"/>
<path d="M31.5033 9.00104H32.9974V7.50696H31.5033V9.00104Z" fill="#F4EBA7"/>
<path d="M29.9908 9.00104H31.5031V7.50696H29.9908V9.00104Z" fill="#F4EBA7"/>
<path d="M32.9974 10.4948H34.4915V9.00073H32.9974V10.4948Z" fill="#21201E"/>
<path d="M31.5033 10.4948H32.9974V9.00073H31.5033V10.4948Z" fill="#F4EBA7"/>
<path d="M29.9908 10.4948H31.5031V9.00073H29.9908V10.4948Z" fill="#F4EBA7"/>
<path d="M34.4912 12.0075H36.0035V10.4952H34.4912V12.0075Z" fill="#21201E"/>
<path d="M32.9974 12.0075H34.4915V10.4952H32.9974V12.0075Z" fill="#21201E"/>
<path d="M31.5033 12.0075H32.9974V10.4952H31.5033V12.0075Z" fill="#F4EBA7"/>
<path d="M29.9908 12.0075H31.5031V10.4952H29.9908V12.0075Z" fill="#F4EBA7"/>
<path d="M34.4912 13.5014H36.0035V12.0073H34.4912V13.5014Z" fill="#21201E"/>
<path d="M32.9974 13.5014H34.4915V12.0073H32.9974V13.5014Z" fill="#F4EBA7"/>
<path d="M31.5033 13.5014H32.9974V12.0073H31.5033V13.5014Z" fill="#F4EBA7"/>
<path d="M29.9908 13.5014H31.5031V12.0073H29.9908V13.5014Z" fill="#F4EBA7"/>
<path d="M34.4912 14.9955H36.0035V13.5015H34.4912V14.9955Z" fill="#21201E"/>
<path d="M32.9974 14.9955H34.4915V13.5015H32.9974V14.9955Z" fill="#F4EBA7"/>
<path d="M31.5033 14.9955H32.9974V13.5015H31.5033V14.9955Z" fill="#F4EBA7"/>
<path d="M29.9908 14.9955H31.5031V13.5015H29.9908V14.9955Z" fill="#F4EBA7"/>
<path d="M36.0037 16.5079H37.4977V14.9956H36.0037V16.5079Z" fill="#21201E"/>
<path d="M34.4912 16.5079H36.0035V14.9956H34.4912V16.5079Z" fill="#21201E"/>
<path d="M32.9974 16.5079H34.4915V14.9956H32.9974V16.5079Z" fill="#F4EBA7"/>
<path d="M31.5033 16.5079H32.9974V14.9956H31.5033V16.5079Z" fill="#F4EBA7"/>
<path d="M29.9908 16.5079H31.5031V14.9956H29.9908V16.5079Z" fill="#F4EBA7"/>
<path d="M36.0037 18.0018H37.4977V16.5077H36.0037V18.0018Z" fill="#21201E"/>
<path d="M34.4912 18.0018H36.0035V16.5077H34.4912V18.0018Z" fill="#F4EBA7"/>
<path d="M32.9974 18.0018H34.4915V16.5077H32.9974V18.0018Z" fill="#F4EBA7"/>
<path d="M31.5033 18.0018H32.9974V16.5077H31.5033V18.0018Z" fill="#F4EBA7"/>
<path d="M29.9908 18.0018H31.5031V16.5077H29.9908V18.0018Z" fill="#FFFAD7"/>
<path d="M36.0037 19.4959H37.4977V18.0018H36.0037V19.4959Z" fill="#21201E"/>
<path d="M34.4912 19.4959H36.0035V18.0018H34.4912V19.4959Z" fill="#F4EBA7"/>
<path d="M32.9974 19.4959H34.4915V18.0018H32.9974V19.4959Z" fill="#F4EBA7"/>
<path d="M31.5033 19.4959H32.9974V18.0018H31.5033V19.4959Z" fill="#F4EBA7"/>
<path d="M29.9908 19.4959H31.5031V18.0018H29.9908V19.4959Z" fill="#FFFAD7"/>
<path d="M36.0037 21.0083H37.4977V19.496H36.0037V21.0083Z" fill="#21201E"/>
<path d="M34.4912 21.0083H36.0035V19.496H34.4912V21.0083Z" fill="#F4EBA7"/>
<path d="M32.9974 21.0083H34.4915V19.496H32.9974V21.0083Z" fill="#F4EBA7"/>
<path d="M31.5033 21.0083H32.9974V19.496H31.5033V21.0083Z" fill="#F4EBA7"/>
<path d="M29.9908 21.0083H31.5031V19.496H29.9908V21.0083Z" fill="#FFFAD7"/>
<path d="M58.5059 22.5021H59.9999V21.0081H58.5059V22.5021Z" fill="#21201E"/>
<path d="M56.9938 22.5021H58.5061V21.0081H56.9938V22.5021Z" fill="#21201E"/>
<path d="M55.4996 22.5021H56.9937V21.0081H55.4996V22.5021Z" fill="#21201E"/>
<path d="M54.0055 22.5021H55.4996V21.0081H54.0055V22.5021Z" fill="#21201E"/>
<path d="M52.4934 22.5021H54.0057V21.0081H52.4934V22.5021Z" fill="#21201E"/>
<path d="M50.9993 22.5021H52.4933V21.0081H50.9993V22.5021Z" fill="#21201E"/>
<path d="M49.5051 22.5021H50.9992V21.0081H49.5051V22.5021Z" fill="#21201E"/>
<path d="M47.9927 22.5021H49.505V21.0081H47.9927V22.5021Z" fill="#21201E"/>
<path d="M46.4989 22.5021H47.993V21.0081H46.4989V22.5021Z" fill="#21201E"/>
<path d="M45.0048 22.5021H46.4988V21.0081H45.0048V22.5021Z" fill="#21201E"/>
<path d="M43.4923 22.5021H45.0046V21.0081H43.4923V22.5021Z" fill="#21201E"/>
<path d="M41.9982 22.5021H43.4922V21.0081H41.9982V22.5021Z" fill="#21201E"/>
<path d="M40.504 22.5021H41.9981V21.0081H40.504V22.5021Z" fill="#21201E"/>
<path d="M38.9919 22.5021H40.5042V21.0081H38.9919V22.5021Z" fill="#21201E"/>
<path d="M37.4978 22.5021H38.9919V21.0081H37.4978V22.5021Z" fill="#21201E"/>
<path d="M36.0037 22.5021H37.4977V21.0081H36.0037V22.5021Z" fill="#21201E"/>
<path d="M34.4912 22.5021H36.0035V21.0081H34.4912V22.5021Z" fill="#F4EBA7"/>
<path d="M32.9974 22.5021H34.4915V21.0081H32.9974V22.5021Z" fill="#F4EBA7"/>
<path d="M31.5033 22.5021H32.9974V21.0081H31.5033V22.5021Z" fill="#FFFAD7"/>
<path d="M29.9908 22.5021H31.5031V21.0081H29.9908V22.5021Z" fill="#FFFAD7"/>
<path d="M58.5059 23.9963H59.9999V22.5022H58.5059V23.9963Z" fill="#21201E"/>
<path d="M56.9938 23.9963H58.5061V22.5022H56.9938V23.9963Z" fill="#21201E"/>
<path d="M55.4996 23.9963H56.9937V22.5022H55.4996V23.9963Z" fill="#F4EBA7"/>
<path d="M54.0055 23.9963H55.4996V22.5022H54.0055V23.9963Z" fill="#F9C62C"/>
<path d="M52.4934 23.9963H54.0057V22.5022H52.4934V23.9963Z" fill="#F9C62C"/>
<path d="M50.9993 23.9963H52.4933V22.5022H50.9993V23.9963Z" fill="#F9C62C"/>
<path d="M49.5051 23.9963H50.9992V22.5022H49.5051V23.9963Z" fill="#F9C62C"/>
<path d="M47.9927 23.9963H49.505V22.5022H47.9927V23.9963Z" fill="#F9C62C"/>
<path d="M46.4989 23.9963H47.993V22.5022H46.4989V23.9963Z" fill="#F9C62C"/>
<path d="M45.0048 23.9963H46.4988V22.5022H45.0048V23.9963Z" fill="#F9C62C"/>
<path d="M43.4923 23.9963H45.0046V22.5022H43.4923V23.9963Z" fill="#F9C62C"/>
<path d="M41.9982 23.9963H43.4922V22.5022H41.9982V23.9963Z" fill="#F9C62C"/>
<path d="M40.504 23.9963H41.9981V22.5022H40.504V23.9963Z" fill="#F9C62C"/>
<path d="M38.9919 23.9963H40.5042V22.5022H38.9919V23.9963Z" fill="#F9C62C"/>
<path d="M37.4978 23.9963H38.9919V22.5022H37.4978V23.9963Z" fill="#F9C62C"/>
<path d="M36.0037 23.9963H37.4977V22.5022H36.0037V23.9963Z" fill="#F9C62C"/>
<path d="M34.4912 23.9963H36.0035V22.5022H34.4912V23.9963Z" fill="#F4EBA7"/>
<path d="M32.9974 23.9963H34.4915V22.5022H32.9974V23.9963Z" fill="#F4EBA7"/>
<path d="M31.5033 23.9963H32.9974V22.5022H31.5033V23.9963Z" fill="#FFFAD7"/>
<path d="M29.9908 23.9963H31.5031V22.5022H29.9908V23.9963Z" fill="#FFFAD7"/>
<path d="M56.9938 25.5086H58.5061V23.9963H56.9938V25.5086Z" fill="#21201E"/>
<path d="M55.4996 25.5086H56.9937V23.9963H55.4996V25.5086Z" fill="#21201E"/>
<path d="M54.0055 25.5086H55.4996V23.9963H54.0055V25.5086Z" fill="#F4EBA7"/>
<path d="M52.4934 25.5086H54.0057V23.9963H52.4934V25.5086Z" fill="#F4EBA7"/>
<path d="M50.9993 25.5086H52.4933V23.9963H50.9993V25.5086Z" fill="#F4EBA7"/>
<path d="M49.5051 25.5086H50.9992V23.9963H49.5051V25.5086Z" fill="#F9C62C"/>
<path d="M47.9927 25.5086H49.505V23.9963H47.9927V25.5086Z" fill="#F9C62C"/>
<path d="M46.4989 25.5086H47.993V23.9963H46.4989V25.5086Z" fill="#F9C62C"/>
<path d="M45.0048 25.5086H46.4988V23.9963H45.0048V25.5086Z" fill="#F9C62C"/>
<path d="M43.4923 25.5086H45.0046V23.9963H43.4923V25.5086Z" fill="#F9C62C"/>
<path d="M41.9982 25.5086H43.4922V23.9963H41.9982V25.5086Z" fill="#F9C62C"/>
<path d="M40.504 25.5086H41.9981V23.9963H40.504V25.5086Z" fill="#F9C62C"/>
<path d="M38.9919 25.5086H40.5042V23.9963H38.9919V25.5086Z" fill="#F9C62C"/>
<path d="M37.4978 25.5086H38.9919V23.9963H37.4978V25.5086Z" fill="#F9C62C"/>
<path d="M36.0037 25.5086H37.4977V23.9963H36.0037V25.5086Z" fill="#F9C62C"/>
<path d="M34.4912 25.5086H36.0035V23.9963H34.4912V25.5086Z" fill="#F9C62C"/>
<path d="M32.9974 25.5086H34.4915V23.9963H32.9974V25.5086Z" fill="#F4EBA7"/>
<path d="M31.5033 25.5086H32.9974V23.9963H31.5033V25.5086Z" fill="#FFFAD7"/>
<path d="M29.9908 25.5086H31.5031V23.9963H29.9908V25.5086Z" fill="#FFFAD7"/>
<path d="M55.4996 27.0029H56.9937V25.5088H55.4996V27.0029Z" fill="#21201E"/>
<path d="M54.0055 27.0029H55.4996V25.5088H54.0055V27.0029Z" fill="#21201E"/>
<path d="M52.4934 27.0029H54.0057V25.5088H52.4934V27.0029Z" fill="#21201E"/>
<path d="M50.9993 27.0029H52.4933V25.5088H50.9993V27.0029Z" fill="#F4EBA7"/>
<path d="M49.5051 27.0029H50.9992V25.5088H49.5051V27.0029Z" fill="#F4EBA7"/>
<path d="M47.9927 27.0029H49.505V25.5088H47.9927V27.0029Z" fill="#F4EBA7"/>
<path d="M46.4989 27.0029H47.993V25.5088H46.4989V27.0029Z" fill="#F9C62C"/>
<path d="M45.0048 27.0029H46.4988V25.5088H45.0048V27.0029Z" fill="#F9C62C"/>
<path d="M43.4923 27.0029H45.0046V25.5088H43.4923V27.0029Z" fill="#F9C62C"/>
<path d="M41.9982 27.0029H43.4922V25.5088H41.9982V27.0029Z" fill="#F9C62C"/>
<path d="M40.504 27.0029H41.9981V25.5088H40.504V27.0029Z" fill="#F9C62C"/>
<path d="M38.9919 27.0029H40.5042V25.5088H38.9919V27.0029Z" fill="#F9C62C"/>
<path d="M37.4978 27.0029H38.9919V25.5088H37.4978V27.0029Z" fill="#F9C62C"/>
<path d="M36.0037 27.0029H37.4977V25.5088H36.0037V27.0029Z" fill="#F9C62C"/>
<path d="M34.4912 27.0029H36.0035V25.5088H34.4912V27.0029Z" fill="#F9C62C"/>
<path d="M32.9974 27.0029H34.4915V25.5088H32.9974V27.0029Z" fill="#FFFAD7"/>
<path d="M31.5033 27.0029H32.9974V25.5088H31.5033V27.0029Z" fill="#FFFAD7"/>
<path d="M29.9908 27.0029H31.5031V25.5088H29.9908V27.0029Z" fill="#FFFAD7"/>
<path d="M54.0055 28.4966H55.4996V27.0026H54.0055V28.4966Z" fill="#21201E"/>
<path d="M52.4934 28.4966H54.0057V27.0026H52.4934V28.4966Z" fill="#21201E"/>
<path d="M50.9993 28.4966H52.4933V27.0026H50.9993V28.4966Z" fill="#21201E"/>
<path d="M49.5051 28.4966H50.9992V27.0026H49.5051V28.4966Z" fill="#F4EBA7"/>
<path d="M47.9927 28.4966H49.505V27.0026H47.9927V28.4966Z" fill="#F4EBA7"/>
<path d="M46.4989 28.4966H47.993V27.0026H46.4989V28.4966Z" fill="#F4EBA7"/>
<path d="M45.0048 28.4966H46.4988V27.0026H45.0048V28.4966Z" fill="#F4EBA7"/>
<path d="M43.4923 28.4966H45.0046V27.0026H43.4923V28.4966Z" fill="#F4EBA7"/>
<path d="M41.9982 28.4966H43.4922V27.0026H41.9982V28.4966Z" fill="#FFFAD7"/>
<path d="M40.504 28.4966H41.9981V27.0026H40.504V28.4966Z" fill="#FFFAD7"/>
<path d="M38.9919 28.4966H40.5042V27.0026H38.9919V28.4966Z" fill="#FFFAD7"/>
<path d="M37.4978 28.4966H38.9919V27.0026H37.4978V28.4966Z" fill="#FFFAD7"/>
<path d="M36.0037 28.4966H37.4977V27.0026H36.0037V28.4966Z" fill="#FFFAD7"/>
<path d="M34.4912 28.4966H36.0035V27.0026H34.4912V28.4966Z" fill="#FFFAD7"/>
<path d="M32.9974 28.4966H34.4915V27.0026H32.9974V28.4966Z" fill="#FFFAD7"/>
<path d="M31.5033 28.4966H32.9974V27.0026H31.5033V28.4966Z" fill="#FFFAD7"/>
<path d="M29.9908 28.4966H31.5031V27.0026H29.9908V28.4966Z" fill="#FFFAD7"/>
<path d="M50.9993 30.009H52.4933V28.4967H50.9993V30.009Z" fill="#21201E"/>
<path d="M49.5051 30.009H50.9992V28.4967H49.5051V30.009Z" fill="#21201E"/>
<path d="M47.9927 30.009H49.505V28.4967H47.9927V30.009Z" fill="#F4EBA7"/>
<path d="M46.4989 30.009H47.993V28.4967H46.4989V30.009Z" fill="#F4EBA7"/>
<path d="M45.0048 30.009H46.4988V28.4967H45.0048V30.009Z" fill="#F4EBA7"/>
<path d="M43.4923 30.009H45.0046V28.4967H43.4923V30.009Z" fill="#F4EBA7"/>
<path d="M41.9982 30.009H43.4922V28.4967H41.9982V30.009Z" fill="#F4EBA7"/>
<path d="M40.504 30.009H41.9981V28.4967H40.504V30.009Z" fill="#FFFAD7"/>
<path d="M38.9919 30.009H40.5042V28.4967H38.9919V30.009Z" fill="#FFFAD7"/>
<path d="M37.4978 30.009H38.9919V28.4967H37.4978V30.009Z" fill="#FFFAD7"/>
<path d="M36.0037 30.009H37.4977V28.4967H36.0037V30.009Z" fill="#FFFAD7"/>
<path d="M34.4912 30.009H36.0035V28.4967H34.4912V30.009Z" fill="#FFFAD7"/>
<path d="M32.9974 30.009H34.4915V28.4967H32.9974V30.009Z" fill="#FFFAD7"/>
<path d="M31.5033 30.009H32.9974V28.4967H31.5033V30.009Z" fill="#FFFAD7"/>
<path d="M29.9908 30.009H31.5031V28.4967H29.9908V30.009Z" fill="#FFFAD7"/>
<path d="M49.5051 31.5032H50.9992V30.0092H49.5051V31.5032Z" fill="#21201E"/>
<path d="M47.9927 31.5032H49.505V30.0092H47.9927V31.5032Z" fill="#21201E"/>
<path d="M46.4989 31.5032H47.993V30.0092H46.4989V31.5032Z" fill="#F4EBA7"/>
<path d="M45.0048 31.5032H46.4988V30.0092H45.0048V31.5032Z" fill="#F4EBA7"/>
<path d="M43.4923 31.5032H45.0046V30.0092H43.4923V31.5032Z" fill="#F4EBA7"/>
<path d="M41.9982 31.5032H43.4922V30.0092H41.9982V31.5032Z" fill="#F4EBA7"/>
<path d="M40.504 31.5032H41.9981V30.0092H40.504V31.5032Z" fill="#F4EBA7"/>
<path d="M38.9919 31.5032H40.5042V30.0092H38.9919V31.5032Z" fill="#FFFAD7"/>
<path d="M37.4978 31.5032H38.9919V30.0092H37.4978V31.5032Z" fill="#FFFAD7"/>
<path d="M36.0037 31.5032H37.4977V30.0092H36.0037V31.5032Z" fill="#FFFAD7"/>
<path d="M34.4912 31.5032H36.0035V30.0092H34.4912V31.5032Z" fill="#FFFAD7"/>
<path d="M32.9974 31.5032H34.4915V30.0092H32.9974V31.5032Z" fill="#FFFAD7"/>
<path d="M31.5033 31.5032H32.9974V30.0092H31.5033V31.5032Z" fill="#FFFAD7"/>
<path d="M29.9908 31.5032H31.5031V30.0092H29.9908V31.5032Z" fill="#FFFAD7"/>
<path d="M47.9927 32.9974H49.505V31.5033H47.9927V32.9974Z" fill="#21201E"/>
<path d="M46.4989 32.9974H47.993V31.5033H46.4989V32.9974Z" fill="#21201E"/>
<path d="M45.0048 32.9974H46.4988V31.5033H45.0048V32.9974Z" fill="#21201E"/>
<path d="M43.4923 32.9974H45.0046V31.5033H43.4923V32.9974Z" fill="#F4EBA7"/>
<path d="M41.9982 32.9974H43.4922V31.5033H41.9982V32.9974Z" fill="#F4EBA7"/>
<path d="M40.504 32.9974H41.9981V31.5033H40.504V32.9974Z" fill="#F4EBA7"/>
<path d="M38.9919 32.9974H40.5042V31.5033H38.9919V32.9974Z" fill="#F4EBA7"/>
<path d="M37.4978 32.9974H38.9919V31.5033H37.4978V32.9974Z" fill="#FFFAD7"/>
<path d="M36.0037 32.9974H37.4977V31.5033H36.0037V32.9974Z" fill="#FFFAD7"/>
<path d="M34.4912 32.9974H36.0035V31.5033H34.4912V32.9974Z" fill="#FFFAD7"/>
<path d="M32.9974 32.9974H34.4915V31.5033H32.9974V32.9974Z" fill="#FFFAD7"/>
<path d="M31.5033 32.9974H32.9974V31.5033H31.5033V32.9974Z" fill="#FFFAD7"/>
<path d="M29.9908 32.9974H31.5031V31.5033H29.9908V32.9974Z" fill="#FFFAD7"/>
<path d="M45.0048 34.5097H46.4988V32.9974H45.0048V34.5097Z" fill="#21201E"/>
<path d="M43.4923 34.5097H45.0046V32.9974H43.4923V34.5097Z" fill="#21201E"/>
<path d="M41.9982 34.5097H43.4922V32.9974H41.9982V34.5097Z" fill="#F4EBA7"/>
<path d="M40.504 34.5097H41.9981V32.9974H40.504V34.5097Z" fill="#F4EBA7"/>
<path d="M38.9919 34.5097H40.5042V32.9974H38.9919V34.5097Z" fill="#F4EBA7"/>
<path d="M37.4978 34.5097H38.9919V32.9974H37.4978V34.5097Z" fill="#F4EBA7"/>
<path d="M36.0037 34.5097H37.4977V32.9974H36.0037V34.5097Z" fill="#F4EBA7"/>
<path d="M34.4912 34.5097H36.0035V32.9974H34.4912V34.5097Z" fill="#FFFAD7"/>
<path d="M32.9974 34.5097H34.4915V32.9974H32.9974V34.5097Z" fill="#FFFAD7"/>
<path d="M31.5033 34.5097H32.9974V32.9974H31.5033V34.5097Z" fill="#FFFAD7"/>
<path d="M29.9908 34.5097H31.5031V32.9974H29.9908V34.5097Z" fill="#FFFAD7"/>
<path d="M43.4923 36.0036H45.0046V34.5095H43.4923V36.0036Z" fill="#21201E"/>
<path d="M41.9982 36.0036H43.4922V34.5095H41.9982V36.0036Z" fill="#21201E"/>
<path d="M40.504 36.0036H41.9981V34.5095H40.504V36.0036Z" fill="#F4EBA7"/>
<path d="M38.9919 36.0036H40.5042V34.5095H38.9919V36.0036Z" fill="#F4EBA7"/>
<path d="M37.4978 36.0036H38.9919V34.5095H37.4978V36.0036Z" fill="#F4EBA7"/>
<path d="M36.0037 36.0036H37.4977V34.5095H36.0037V36.0036Z" fill="#F4EBA7"/>
<path d="M34.4912 36.0036H36.0035V34.5095H34.4912V36.0036Z" fill="#FFFAD7"/>
<path d="M32.9974 36.0036H34.4915V34.5095H32.9974V36.0036Z" fill="#FFFAD7"/>
<path d="M31.5033 36.0036H32.9974V34.5095H31.5033V36.0036Z" fill="#FFFAD7"/>
<path d="M29.9908 36.0036H31.5031V34.5095H29.9908V36.0036Z" fill="#FFFAD7"/>
<path d="M41.9982 37.4977H43.4922V36.0037H41.9982V37.4977Z" fill="#21201E"/>
<path d="M40.504 37.4977H41.9981V36.0037H40.504V37.4977Z" fill="#21201E"/>
<path d="M38.9919 37.4977H40.5042V36.0037H38.9919V37.4977Z" fill="#F4EBA7"/>
<path d="M37.4978 37.4977H38.9919V36.0037H37.4978V37.4977Z" fill="#F9C62C"/>
<path d="M36.0037 37.4977H37.4977V36.0037H36.0037V37.4977Z" fill="#FFFAD7"/>
<path d="M34.4912 37.4977H36.0035V36.0037H34.4912V37.4977Z" fill="#FFFAD7"/>
<path d="M32.9974 37.4977H34.4915V36.0037H32.9974V37.4977Z" fill="#FFFAD7"/>
<path d="M31.5033 37.4977H32.9974V36.0037H31.5033V37.4977Z" fill="#FFFAD7"/>
<path d="M29.9908 37.4977H31.5031V36.0037H29.9908V37.4977Z" fill="#FFFAD7"/>
<path d="M41.9982 39.0101H43.4922V37.4978H41.9982V39.0101Z" fill="#21201E"/>
<path d="M40.504 39.0101H41.9981V37.4978H40.504V39.0101Z" fill="#F9C62C"/>
<path d="M38.9919 39.0101H40.5042V37.4978H38.9919V39.0101Z" fill="#F9C62C"/>
<path d="M37.4978 39.0101H38.9919V37.4978H37.4978V39.0101Z" fill="#F9C62C"/>
<path d="M36.0037 39.0101H37.4977V37.4978H36.0037V39.0101Z" fill="#FFFAD7"/>
<path d="M34.4912 39.0101H36.0035V37.4978H34.4912V39.0101Z" fill="#FFFAD7"/>
<path d="M32.9974 39.0101H34.4915V37.4978H32.9974V39.0101Z" fill="#FFFAD7"/>
<path d="M31.5033 39.0101H32.9974V37.4978H31.5033V39.0101Z" fill="#FFFAD7"/>
<path d="M29.9908 39.0101H31.5031V37.4978H29.9908V39.0101Z" fill="#FFFAD7"/>
<path d="M43.4923 40.5043H45.0046V39.0103H43.4923V40.5043Z" fill="#21201E"/>
<path d="M41.9982 40.5043H43.4922V39.0103H41.9982V40.5043Z" fill="#21201E"/>
<path d="M40.504 40.5043H41.9981V39.0103H40.504V40.5043Z" fill="#F9C62C"/>
<path d="M38.9919 40.5043H40.5042V39.0103H38.9919V40.5043Z" fill="#F9C62C"/>
<path d="M37.4978 40.5043H38.9919V39.0103H37.4978V40.5043Z" fill="#F9C62C"/>
<path d="M36.0037 40.5043H37.4977V39.0103H36.0037V40.5043Z" fill="#FFFAD7"/>
<path d="M34.5278 40.5043H36.0219V39.0103H34.5278V40.5043Z" fill="#FFFAD7"/>
<path d="M32.9974 40.5043H34.528V39.0103H32.9974V40.5043Z" fill="#FFFAD7"/>
<path d="M31.5033 40.5043H32.9974V39.0103H31.5033V40.5043Z" fill="#FFFAD7"/>
<path d="M29.9908 40.5043H31.5031V39.0103H29.9908V40.5043Z" fill="#F4EBA7"/>
<path d="M43.4923 41.9985H45.0046V40.5044H43.4923V41.9985Z" fill="#21201E"/>
<path d="M41.9982 41.9985H43.4922V40.5044H41.9982V41.9985Z" fill="#F9C62C"/>
<path d="M40.504 41.9985H41.9981V40.5044H40.504V41.9985Z" fill="#F9C62C"/>
<path d="M38.9919 41.9985H40.5042V40.5044H38.9919V41.9985Z" fill="#F9C62C"/>
<path d="M37.4978 41.9985H38.9919V40.5044H37.4978V41.9985Z" fill="#FFFAD7"/>
<path d="M36.0037 41.9985H37.4977V40.5044H36.0037V41.9985Z" fill="#FFFAD7"/>
<path d="M34.5278 41.9985H36.0219V40.5044H34.5278V41.9985Z" fill="#FFFAD7"/>
<path d="M32.9974 41.9985H34.528V40.5044H32.9974V41.9985Z" fill="#F4EBA7"/>
<path d="M31.5033 41.9985H32.9974V40.5044H31.5033V41.9985Z" fill="#F4EBA7"/>
<path d="M29.9908 41.9985H31.5031V40.5044H29.9908V41.9985Z" fill="#F4EBA7"/>
<path d="M43.4923 43.5105H45.0046V41.9982H43.4923V43.5105Z" fill="#21201E"/>
<path d="M41.9982 43.5105H43.4922V41.9982H41.9982V43.5105Z" fill="#F9C62C"/>
<path d="M40.504 43.5105H41.9981V41.9982H40.504V43.5105Z" fill="#F9C62C"/>
<path d="M38.9919 43.5105H40.5042V41.9982H38.9919V43.5105Z" fill="#F9C62C"/>
<path d="M37.4978 43.5105H38.9919V41.9982H37.4978V43.5105Z" fill="#FFFAD7"/>
<path d="M36.0037 43.5105H37.4977V41.9982H36.0037V43.5105Z" fill="#FFFAD7"/>
<path d="M34.5278 43.5105H36.0219V41.9982H34.5278V43.5105Z" fill="#F4EBA7"/>
<path d="M32.9974 43.5105H34.528V41.9982H32.9974V43.5105Z" fill="#F4EBA7"/>
<path d="M31.5033 43.5105H32.9974V41.9982H31.5033V43.5105Z" fill="#F4EBA7"/>
<path d="M29.9908 43.5105H31.5031V41.9982H29.9908V43.5105Z" fill="#F4EBA7"/>
<path d="M45.0048 45.0043H46.4988V43.5103H45.0048V45.0043Z" fill="#21201E"/>
<path d="M43.4923 45.0043H45.0046V43.5103H43.4923V45.0043Z" fill="#21201E"/>
<path d="M41.9982 45.0043H43.4922V43.5103H41.9982V45.0043Z" fill="#F9C62C"/>
<path d="M40.504 45.0043H41.9981V43.5103H40.504V45.0043Z" fill="#F9C62C"/>
<path d="M38.9919 45.0043H40.5042V43.5103H38.9919V45.0043Z" fill="#F9C62C"/>
<path d="M37.4978 45.0043H38.9919V43.5103H37.4978V45.0043Z" fill="#FFFAD7"/>
<path d="M36.022 45.0043H37.5343V43.5103H36.022V45.0043Z" fill="#F4EBA7"/>
<path d="M34.5278 45.0043H36.0219V43.5103H34.5278V45.0043Z" fill="#F4EBA7"/>
<path d="M32.9974 45.0043H34.528V43.5103H32.9974V45.0043Z" fill="#F4EBA7"/>
<path d="M31.5033 45.0043H32.9974V43.5103H31.5033V45.0043Z" fill="#F4EBA7"/>
<path d="M29.9908 45.0043H31.5031V43.5103H29.9908V45.0043Z" fill="#21201E"/>
<path d="M45.0048 46.4988H46.4988V45.0048H45.0048V46.4988Z" fill="#21201E"/>
<path d="M43.4923 46.4988H45.0046V45.0048H43.4923V46.4988Z" fill="#21201E"/>
<path d="M41.9982 46.4988H43.4922V45.0048H41.9982V46.4988Z" fill="#F9C62C"/>
<path d="M40.504 46.4988H41.9981V45.0048H40.504V46.4988Z" fill="#F9C62C"/>
<path d="M39.0286 46.4988H40.5226V45.0048H39.0286V46.4988Z" fill="#F9C62C"/>
<path d="M37.5344 46.4988H39.0285V45.0048H37.5344V46.4988Z" fill="#F4EBA7"/>
<path d="M36.022 46.4988H37.5343V45.0048H36.022V46.4988Z" fill="#F4EBA7"/>
<path d="M34.5278 46.4988H36.0219V45.0048H34.5278V46.4988Z" fill="#F4EBA7"/>
<path d="M32.9974 46.4988H34.528V45.0048H32.9974V46.4988Z" fill="#F4EBA7"/>
<path d="M31.5033 46.4988H32.9974V45.0048H31.5033V46.4988Z" fill="#21201E"/>
<path d="M29.9908 46.4988H31.5031V45.0048H29.9908V46.4988Z" fill="#21201E"/>
<path d="M45.0048 48.0112H46.4988V46.4989H45.0048V48.0112Z" fill="#21201E"/>
<path d="M43.4923 48.0112H45.0046V46.4989H43.4923V48.0112Z" fill="#F9C62C"/>
<path d="M41.9982 48.0112H43.4922V46.4989H41.9982V48.0112Z" fill="#F9C62C"/>
<path d="M40.504 48.0112H41.9981V46.4989H40.504V48.0112Z" fill="#F4EBA7"/>
<path d="M39.0286 48.0112H40.5226V46.4989H39.0286V48.0112Z" fill="#F4EBA7"/>
<path d="M37.5344 48.0112H39.0285V46.4989H37.5344V48.0112Z" fill="#F4EBA7"/>
<path d="M36.022 48.0112H37.5343V46.4989H36.022V48.0112Z" fill="#F4EBA7"/>
<path d="M34.5278 48.0112H36.0219V46.4989H34.5278V48.0112Z" fill="#21201E"/>
<path d="M32.9974 48.0112H34.528V46.4989H32.9974V48.0112Z" fill="#21201E"/>
<path d="M31.5033 48.0112H32.9974V46.4989H31.5033V48.0112Z" fill="#21201E"/>
<path d="M46.4989 49.5051H47.993V48.011H46.4989V49.5051Z" fill="#21201E"/>
<path d="M45.0048 49.5051H46.4988V48.011H45.0048V49.5051Z" fill="#21201E"/>
<path d="M43.4923 49.5051H45.0046V48.011H43.4923V49.5051Z" fill="#F9C62C"/>
<path d="M41.9982 49.5051H43.4922V48.011H41.9982V49.5051Z" fill="#F9C62C"/>
<path d="M40.504 49.5051H41.9981V48.011H40.504V49.5051Z" fill="#F4EBA7"/>
<path d="M38.9919 49.5051H40.5042V48.011H38.9919V49.5051Z" fill="#F4EBA7"/>
<path d="M37.5344 49.5051H39.0285V48.011H37.5344V49.5051Z" fill="#F4EBA7"/>
<path d="M36.022 49.5051H37.5343V48.011H36.022V49.5051Z" fill="#21201E"/>
<path d="M34.5278 49.5051H36.0219V48.011H34.5278V49.5051Z" fill="#21201E"/>
<path d="M46.4989 50.9988H47.993V49.5048H46.4989V50.9988Z" fill="#21201E"/>
<path d="M45.0048 50.9988H46.4988V49.5048H45.0048V50.9988Z" fill="#F9C62C"/>
<path d="M43.4923 50.9988H45.0046V49.5048H43.4923V50.9988Z" fill="#F9C62C"/>
<path d="M41.9982 50.9988H43.4922V49.5048H41.9982V50.9988Z" fill="#F4EBA7"/>
<path d="M40.504 50.9988H41.9981V49.5048H40.504V50.9988Z" fill="#F4EBA7"/>
<path d="M38.9919 50.9988H40.5042V49.5048H38.9919V50.9988Z" fill="#21201E"/>
<path d="M37.5344 50.9988H39.0285V49.5048H37.5344V50.9988Z" fill="#21201E"/>
<path d="M36.022 50.9988H37.5343V49.5048H36.022V50.9988Z" fill="#21201E"/>
<path d="M46.4989 52.5116H47.993V50.9993H46.4989V52.5116Z" fill="#21201E"/>
<path d="M45.0048 52.5116H46.4988V50.9993H45.0048V52.5116Z" fill="#F9C62C"/>
<path d="M43.4923 52.5116H45.0046V50.9993H43.4923V52.5116Z" fill="#F4EBA7"/>
<path d="M41.9982 52.5116H43.4922V50.9993H41.9982V52.5116Z" fill="#F4EBA7"/>
<path d="M40.504 52.5116H41.9981V50.9993H40.504V52.5116Z" fill="#21201E"/>
<path d="M39.0286 52.5116H40.5226V50.9993H39.0286V52.5116Z" fill="#21201E"/>
<path d="M47.9927 54.0054H49.505V52.5114H47.9927V54.0054Z" fill="#21201E"/>
<path d="M46.4989 54.0054H47.993V52.5114H46.4989V54.0054Z" fill="#21201E"/>
<path d="M45.0048 54.0054H46.4988V52.5114H45.0048V54.0054Z" fill="#F4EBA7"/>
<path d="M43.4923 54.0054H45.0046V52.5114H43.4923V54.0054Z" fill="#F4EBA7"/>
<path d="M41.9982 54.0054H43.4922V52.5114H41.9982V54.0054Z" fill="#21201E"/>
<path d="M40.504 54.0054H41.9981V52.5114H40.504V54.0054Z" fill="#21201E"/>
<path d="M47.9927 55.4996H49.505V54.0055H47.9927V55.4996Z" fill="#21201E"/>
<path d="M46.4989 55.4996H47.993V54.0055H46.4989V55.4996Z" fill="#F9C62C"/>
<path d="M45.0048 55.4996H46.4988V54.0055H45.0048V55.4996Z" fill="#21201E"/>
<path d="M43.4923 55.4996H45.0046V54.0055H43.4923V55.4996Z" fill="#21201E"/>
<path d="M41.9982 55.4996H43.4922V54.0055H41.9982V55.4996Z" fill="#21201E"/>
<path d="M47.9927 57.0119H49.505V55.4996H47.9927V57.0119Z" fill="#21201E"/>
<path d="M46.4989 57.0119H47.993V55.4996H46.4989V57.0119Z" fill="#21201E"/>
<path d="M45.0048 57.0119H46.4988V55.4996H45.0048V57.0119Z" fill="#21201E"/>
</svg>
